<?xml version="1.0" encoding="utf-8" standalone="yes"?>
<!DOCTYPE svg PUBLIC "-//W3C//DTD SVG 1.1//EN" "http://www.w3.org/Graphics/SVG/1.1/DTD/svg11.dtd">
<svg style="fill:none;stroke:none;fill-rule:evenodd;clip-rule:evenodd;stroke-linecap:round;stroke-linejoin:round;stroke-miterlimit:1.5;" version="1.1" xmlns="http://www.w3.org/2000/svg" xmlns:xlink="http://www.w3.org/1999/xlink" width="596" height="570" viewBox="0 0 596 570"><style class="text-font-style fontImports" data-font-family="Roboto">@import url(https://fonts.googleapis.com/css2?family=Roboto:wght@400;700&amp;amp;display=block);</style><g id="items" style="isolation: isolate"><g id="blend" style="mix-blend-mode: normal"><g id="g-root-sy_-1_Vector_1heg5161yjsge9-fill" data-item-order="-281543" transform="translate(26.463958740234375, 202)"></g><g id="g-root-sy_-1_Vector_1heg5161yjsge9-stroke" data-item-order="-281543" transform="translate(26.463958740234375, 202)"><g id="sy_-1_Vector_1heg5161yjsge9-stroke" fill="none" stroke-linecap="round" stroke-linejoin="round" stroke-miterlimit="4" stroke="#484848" stroke-width="2" stroke-dasharray="5.0, 7.0" stroke-opacity="1"><style>.fillAsStrokeColor-mk-4nk2a21v81jin { fill:#484848; }</style><g><path d="M 516.030031 75.74L 516.030031 163.99C 516.030031 181.08 501.360031 194.98 483.340031 194.98C 465.320031 194.98 450.660031 181.08 450.660031 163.99L 450.660031 38.99C 450.660031 23.01 436.950031 10 420.090031 10C 403.230031 10 389.520031 23.01 389.520031 38.99L 389.520031 200.01C 389.520031 217.1 374.860031 231 356.840031 231C 338.810031 231 324.150031 217.1 324.150031 200.01C 324.150031 199.75 324.150031 199.5 324.160031 199.24L 324.160031 68.95C 324.160031 52.96 310.440031 39.96 293.580031 39.96C 276.720031 39.96 263.010031 52.96 263.010031 68.95L 263.010031 142.58C 263.010031 159.68 248.350031 173.58 230.330031 173.58C 212.310031 173.58 197.650031 159.68 197.650031 142.58L 197.650031 52.02C 197.650031 36.04 183.940031 23.04 167.080031 23.04C 150.220031 23.04 136.500031 36.04 136.500031 52.02L 136.500031 167.58C 136.500031 184.67 121.840031 198.57 103.820031 198.57C 85.800031 198.57 71.140031 184.67 71.140031 167.58L 71.140031 66.91C 71.140031 50.93 57.430031 37.92 40.570031 37.92C 23.710031 37.92 10.000031 50.93 10.000031 66.91L 10.000031 165.42"></path><path d="M 522.500031 81.7L 516.000031 75.2L 509.500031 81.7" stroke-dasharray="none"></path><path d="M 7.000031 165.424C 7.000031 167.080859 8.343176 168.424005 10.000031 168.424005C 11.656885 168.424005 13.000031 167.080859 13.000031 165.424005C 13.000031 163.76715 11.656885 162.424005 10.000031 162.424005C 8.343176 162.424005 7.000031 163.76715 7.000031 165.424005Z" stroke-dasharray="none" class="fillAsStrokeColor-mk-4nk2a21v81jin" fill="#484848"></path></g></g></g><g id="g-root-cp_1_g-1_1heg5161yjsgea-fill" data-item-order="-281541" transform="translate(33.46295166015625, 239)"></g><g id="g-root-cp_1_g-1_1heg5161yjsgea-stroke" data-item-order="-281541" transform="translate(33.46295166015625, 239)"><g id="cp_1_g-1_1heg5161yjsgea-stroke" fill="none" stroke-linecap="round" stroke-linejoin="round" stroke-miterlimit="4" stroke="#4e88e7" stroke-width="2" stroke-opacity="1"><g><path d="M 10 34C 10.000001 47.254835 20.745167 58.000001 34.000001 58.000001C 47.254835 58.000001 58.000001 47.254835 58.000001 34.000001C 58.000001 20.745167 47.254835 10.000001 34.000001 10.000001C 20.745167 10.000001 10.000001 20.745167 10.000001 34.000001"></path></g></g></g><g id="g-root-cp_2_g-2_18jflve1yjse17-fill" data-item-order="-281535" transform="translate(96.46295166015625, 334)"></g><g id="g-root-cp_2_g-2_18jflve1yjse17-stroke" data-item-order="-281535" transform="translate(96.46295166015625, 334)"><g id="cp_2_g-2_18jflve1yjse17-stroke" fill="none" stroke-linecap="round" stroke-linejoin="round" stroke-miterlimit="4" stroke="#3cc583" stroke-width="2" stroke-opacity="1"><g><path d="M 10 34C 10.000001 47.254835 20.745167 58.000001 34.000001 58.000001C 47.254835 58.000001 58.000001 47.254835 58.000001 34.000001C 58.000001 20.745167 47.254835 10.000001 34.000001 10.000001C 20.745167 10.000001 10.000001 20.745167 10.000001 34.000001"></path></g></g></g><g id="g-root-cp_3_g-3_v7z3i21yjsfm4-fill" data-item-order="-281529" transform="translate(159.46295166015625, 223)"></g><g id="g-root-cp_3_g-3_v7z3i21yjsfm4-stroke" data-item-order="-281529" transform="translate(159.46295166015625, 223)"><g id="cp_3_g-3_v7z3i21yjsfm4-stroke" fill="none" stroke-linecap="round" stroke-linejoin="round" stroke-miterlimit="4" stroke="#92bd39" stroke-width="2" stroke-opacity="1"><g><path d="M 10 34C 10.000001 47.254835 20.745167 58.000001 34.000001 58.000001C 47.254835 58.000001 58.000001 47.254835 58.000001 34.000001C 58.000001 20.745167 47.254835 10.000001 34.000001 10.000001C 20.745167 10.000001 10.000001 20.745167 10.000001 34.000001"></path></g></g></g><g id="g-root-cp_4_g-4_qs5ldm1yjsged-fill" data-item-order="-281523" transform="translate(223.46295166015625, 310)"></g><g id="g-root-cp_4_g-4_qs5ldm1yjsged-stroke" data-item-order="-281523" transform="translate(223.46295166015625, 310)"><g id="cp_4_g-4_qs5ldm1yjsged-stroke" fill="none" stroke-linecap="round" stroke-linejoin="round" stroke-miterlimit="4" stroke="#1eabda" stroke-width="2" stroke-opacity="1"><g><path d="M 10 34C 10.000001 47.254835 20.745167 58.000001 34.000001 58.000001C 47.254835 58.000001 58.000001 47.254835 58.000001 34.000001C 58.000001 20.745167 47.254835 10.000001 34.000001 10.000001C 20.745167 10.000001 10.000001 20.745167 10.000001 34.000001"></path></g></g></g><g id="g-root-cp_5_g-5_hx527u1yjse1a-fill" data-item-order="-281517" transform="translate(286.46295166015625, 240)"></g><g id="g-root-cp_5_g-5_hx527u1yjse1a-stroke" data-item-order="-281517" transform="translate(286.46295166015625, 240)"><g id="cp_5_g-5_hx527u1yjse1a-stroke" fill="none" stroke-linecap="round" stroke-linejoin="round" stroke-miterlimit="4" stroke="#7f64ea" stroke-width="2" stroke-opacity="1"><g><path d="M 10 34C 10.000001 47.254835 20.745167 58.000001 34.000001 58.000001C 47.254835 58.000001 58.000001 47.254835 58.000001 34.000001C 58.000001 20.745167 47.254835 10.000001 34.000001 10.000001C 20.745167 10.000001 10.000001 20.745167 10.000001 34.000001"></path></g></g></g><g id="g-root-cp_6_g-6_hx527u1yjse1b-fill" data-item-order="-281511" transform="translate(349.46295166015625, 367)"></g><g id="g-root-cp_6_g-6_hx527u1yjse1b-stroke" data-item-order="-281511" transform="translate(349.46295166015625, 367)"><g id="cp_6_g-6_hx527u1yjse1b-stroke" fill="none" stroke-linecap="round" stroke-linejoin="round" stroke-miterlimit="4" stroke="#de58a9" stroke-width="2" stroke-opacity="1"><g><path d="M 10 34C 10.000001 47.254835 20.745167 58.000001 34.000001 58.000001C 47.254835 58.000001 58.000001 47.254835 58.000001 34.000001C 58.000001 20.745167 47.254835 10.000001 34.000001 10.000001C 20.745167 10.000001 10.000001 20.745167 10.000001 34.000001"></path></g></g></g><g id="g-root-cp_7_g-7_dhbk3e1yjsetk-fill" data-item-order="-281505" transform="translate(412.46295166015625, 211)"></g><g id="g-root-cp_7_g-7_dhbk3e1yjsetk-stroke" data-item-order="-281505" transform="translate(412.46295166015625, 211)"><g id="cp_7_g-7_dhbk3e1yjsetk-stroke" fill="none" stroke-linecap="round" stroke-linejoin="round" stroke-miterlimit="4" stroke="#de8431" stroke-width="2" stroke-opacity="1"><g><path d="M 10 34C 10.000001 47.254835 20.745167 58.000001 34.000001 58.000001C 47.254835 58.000001 58.000001 47.254835 58.000001 34.000001C 58.000001 20.745167 47.254835 10.000001 34.000001 10.000001C 20.745167 10.000001 10.000001 20.745167 10.000001 34.000001"></path></g></g></g><g id="g-root-cp_8_g-8_91i1yy1yjsflt-fill" data-item-order="-281499" transform="translate(475.46295166015625, 331)"></g><g id="g-root-cp_8_g-8_91i1yy1yjsflt-stroke" data-item-order="-281499" transform="translate(475.46295166015625, 331)"><g id="cp_8_g-8_91i1yy1yjsflt-stroke" fill="none" stroke-linecap="round" stroke-linejoin="round" stroke-miterlimit="4" stroke="#e55753" stroke-width="2" stroke-opacity="1"><g><path d="M 10 34C 10.000001 47.254835 20.745167 58.000001 34.000001 58.000001C 47.254835 58.000001 58.000001 47.254835 58.000001 34.000001C 58.000001 20.745167 47.254835 10.000001 34.000001 10.000001C 20.745167 10.000001 10.000001 20.745167 10.000001 34.000001"></path></g></g></g><g id="g-root-tx_develope_92r0561yjzfur-fill" data-item-order="0" transform="translate(16.08331298828125, 156)"><g id="tx_develope_92r0561yjzfur-fill-merged" stroke="none" fill="#484848" fill-opacity="1"><g><text style="font: 10.5px &quot;Roboto&quot;, sans-serif; white-space: pre;" transform="translate(53.441650390625, 28)" font-size="10.5px" font-family="'Roboto', sans-serif"><tspan x="-41.44" y="-5.3" dominant-baseline="ideographic">Developer makes </tspan><tspan x="-35.79" y="6.7" dominant-baseline="ideographic">changes to the </tspan><tspan x="-12.78" y="18.7" dominant-baseline="ideographic">code</tspan></text></g></g></g><g id="g-root-tx_develope_92r0561yjzfur-stroke" data-item-order="0" transform="translate(16.08331298828125, 156)"></g><g id="g-root-tx_gitbooka_qv9yt61yjzfnz-fill" data-item-order="0" transform="translate(400.18328857421875, 120)"><g id="tx_gitbooka_qv9yt61yjzfnz-fill-merged" stroke="none" fill="#484848" fill-opacity="1"><g><text style="font: 10.5px &quot;Roboto&quot;, sans-serif; white-space: pre;" transform="translate(47.3416748046875, 34)" font-size="10.5px" font-family="'Roboto', sans-serif"><tspan x="-18.47" y="-11.3" dominant-baseline="ideographic">GitBook </tspan><tspan x="-31.51" y="0.7" dominant-baseline="ideographic">automatically </tspan><tspan x="-22.24" y="12.7" dominant-baseline="ideographic">syncs the </tspan><tspan x="-35.34" y="24.7" dominant-baseline="ideographic">documentation</tspan></text></g></g></g><g id="g-root-tx_gitbooka_qv9yt61yjzfnz-stroke" data-item-order="0" transform="translate(400.18328857421875, 120)"></g><g id="g-root-tx_thechang_1qeggvu1yjzh1l-fill" data-item-order="0" transform="translate(329.5999755859375, 476)"><g id="tx_thechang_1qeggvu1yjzh1l-fill-merged" stroke="none" fill="#484848" fill-opacity="1"><g><text style="font: 10.5px &quot;Roboto&quot;, sans-serif; white-space: pre;" transform="translate(51.92498779296875, 28)" font-size="10.5px" font-family="'Roboto', sans-serif"><tspan x="-39.92" y="-5.3" dominant-baseline="ideographic">The changes are </tspan><tspan x="-37.94" y="6.7" dominant-baseline="ideographic">merged into the </tspan><tspan x="-30.26" y="18.7" dominant-baseline="ideographic">main branch</tspan></text></g></g></g><g id="g-root-tx_thechang_1qeggvu1yjzh1l-stroke" data-item-order="0" transform="translate(329.5999755859375, 476)"></g><g id="g-root-ic_2_v488ze1yjzgg7-fill" data-item-order="0" transform="translate(424.46295166015625, 223)"></g><g id="g-root-ic_2_v488ze1yjzgg7-stroke" data-item-order="0" transform="translate(424.46295166015625, 223)"><g id="ic_2_v488ze1yjzgg7-stroke" fill="none" stroke-linecap="round" stroke-linejoin="round" stroke-miterlimit="4" stroke="#de8431" stroke-width="2" stroke-opacity="1"><g><path d="M 12.322 26.214001L 23.25 26.214001C 23.25 26.214001 25.072 26.214001 25.072 28.036001L 25.072 31.678C 25.072 31.678 25.072 33.5 23.25 33.5L 12.322 33.5C 12.322 33.5 10.5 33.5 10.5 31.678L 10.5 28.036001C 10.5 28.036001 10.5 26.214001 12.322 26.214001M 24.984 27.476L 23.251 21.249L 22.157 21.249C 21.723254 21.249308 21.33916 21.5292 21.206 21.942L 20.741 22.878C 20.60784 23.2908 20.223746 23.570692 19.79 23.571L 15.781 23.571C 15.347254 23.570692 14.96316 23.2908 14.83 22.878L 14.367 21.942C 14.233727 21.528849 13.849115 21.248874 13.415 21.249L 12.322 21.249L 10.588 27.476M 14.143 29.402L 14.143 29.402M 14.143 29.4C 13.891711 29.400002 13.688 29.603712 13.688 29.855002C 13.688 30.106291 13.891711 30.310002 14.143 30.310002C 14.39429 30.310002 14.598 30.106291 14.598 29.855002C 14.598 29.603712 14.39429 29.400001 14.143 29.400002M 21.429 29.402L 21.429 29.402M 21.429 29.4C 21.177711 29.400002 20.974001 29.603712 20.974001 29.855002C 20.974001 30.106291 21.177711 30.310002 21.429001 30.310002C 21.68029 30.310002 21.884001 30.106291 21.884001 29.855002C 21.884001 29.603712 21.68029 29.400001 21.429001 29.400002M 26.5 12.675C 26.5 12.675 27.136 10.7 32.581 10.5C 32.804671 10.478625 33.027607 10.547535 33.200204 10.691397C 33.3728 10.835258 33.480738 11.042137 33.499999 11.266L 33.5 19.355C 33.457781 19.80105 33.07254 20.135218 32.625 20.114C 27.145 20.308 26.5 22.29 26.5 22.29L 26.5 12.675M 25.49 21.273C 25.929053 21.49211 26.283927 21.849443 26.5 22.29M 26.5 12.675C 26.5 12.675 25.864 10.7 20.419 10.5C 20.195329 10.478625 19.972392 10.547535 19.799796 10.691397C 19.627199 10.835258 19.519262 11.042137 19.5 11.266L 19.5 19.355C 19.503843 19.560514 19.59782 19.753952 19.757 19.884"></path></g></g></g><g id="g-root-tx_draftsdo_1lxe0l61yjzevj-fill" data-item-order="0" transform="translate(152.14996337890625, 124)"><g id="tx_draftsdo_1lxe0l61yjzevj-fill-merged" stroke="none" fill="#92bd39" fill-opacity="1"><g><text style="font: 12px &quot;Roboto&quot;, sans-serif; white-space: pre;" transform="translate(43.375, 17)" font-size="12px" font-family="'Roboto', sans-serif"><tspan x="-31.38" y="7.27" dominant-baseline="ideographic">Drafts Docs</tspan></text></g></g></g><g id="g-root-tx_draftsdo_1lxe0l61yjzevj-stroke" data-item-order="0" transform="translate(152.14996337890625, 124)"></g><g id="g-root-ic_edit_1d0i2621yjv8jp-fill" data-item-order="0" transform="translate(171.46295166015625, 235)"></g><g id="g-root-ic_edit_1d0i2621yjv8jp-stroke" data-item-order="0" transform="translate(171.46295166015625, 235)"><g id="ic_edit_1d0i2621yjv8jp-stroke" fill="none" stroke-linecap="round" stroke-linejoin="round" stroke-miterlimit="4" stroke="#92bd39" stroke-width="2" stroke-opacity="1"><g><path d="M 32.88 25.12L 25.25 32.75L 21.5 33.5L 22.25 29.75L 29.88 22.12C 30.276547 21.722828 30.814756 21.499647 31.376 21.499647C 31.937245 21.499647 32.475453 21.722828 32.872 22.12L 32.88 22.128C 33.277172 22.524547 33.500354 23.062756 33.500354 23.624C 33.500354 24.185245 33.277172 24.723453 32.88 25.12ZM 18.5 33.5L 11.5 33.5C 10.947715 33.5 10.5 33.052285 10.5 32.5L 10.5 11.5C 10.5 10.947715 10.947715 10.5 11.5 10.5L 24.793 10.5C 25.058195 10.500057 25.312507 10.605451 25.5 10.793L 29.207 14.5C 29.394549 14.687493 29.499943 14.941805 29.5 15.207L 29.5 18M 17.636 18.214C 17.399277 18.082037 17.11036 18.085363 16.876737 18.222739C 16.643115 18.360116 16.499757 18.61098 16.5 18.882L 16.5 24.618C 16.499757 24.889019 16.643115 25.139883 16.876737 25.27726C 17.11036 25.414637 17.399277 25.417962 17.636 25.285999L 22.607 22.227C 22.849629 22.09201 23.000069 21.836153 23.000069 21.5585C 23.000069 21.280847 22.849629 21.024991 22.607 20.89Z"></path></g></g></g><g id="g-root-ic_code_1lw52ey1yjsemj-fill" data-item-order="0" transform="translate(45.46295166015625, 251)"></g><g id="g-root-ic_code_1lw52ey1yjsemj-stroke" data-item-order="0" transform="translate(45.46295166015625, 251)"><g id="ic_code_1lw52ey1yjsemj-stroke" fill="none" stroke-linecap="round" stroke-linejoin="round" stroke-miterlimit="4" stroke="#4e88e7" stroke-width="2" stroke-opacity="1"><g><path d="M 19.15002 14.08751L 19.15002 11.78751C 19.15002 11.18751 19.55002 10.787506 20.15 10.787506L 29.75 10.787506C 29.95 10.787506 30.25 10.887506 30.35 10.987506L 32.75 12.98751C 32.95 13.18751 33.15 13.48751 33.15 13.78751L 33.15 26.2875C 33.15 26.8875 32.75 27.2875 32.15 27.2875L 24.65 27.2875M 10 10M 23.15 14.98749L 21.65 16.48749L 23.15 17.98749M 10 10M 29.15 14.98749L 30.65 16.48749L 29.15 17.98749M 10 10M 25.15 18.48752L 27.15 13.98752M 23.55 33.2125C 22.65 30.6125 20.15 28.7125 17.24998 28.7125C 14.34998 28.7125 11.74998 30.6125 10.849976 33.2125M 17.15 19.71249L 17.15 16.71249M 11.6499 22.6125L 22.6499 22.6125M 13.0499 23.7125C 13.1499 25.9125 14.9499 27.7125 17.1499 27.7125C 19.4499 27.7125 21.2499 25.9125 21.2499 23.6125L 21.2499 21.8125C 21.2499 19.51249 19.4499 17.71249 17.1499 17.71249C 14.9499 17.71249 13.1499 19.51249 13.0499 21.7125L 13.0499 23.7125Z"></path></g></g></g><g id="g-root-ic_2_8xr7ga1yjy2a3-fill" data-item-order="0" transform="translate(298.46295166015625, 252)"></g><g id="g-root-ic_2_8xr7ga1yjy2a3-stroke" data-item-order="0" transform="translate(298.46295166015625, 252)"><g id="ic_2_8xr7ga1yjy2a3-stroke" fill="none" stroke-linecap="round" stroke-linejoin="round" stroke-miterlimit="4" stroke="#7f64ea" stroke-width="2" stroke-opacity="1"><g><path d="M 19.64922 19.16172C 21.0243 19.16172 22.139 18.047 22.139 16.67192C 22.139 15.29685 21.0243 14.18213 19.64922 14.18213C 18.27414 14.18213 17.15942 15.29685 17.15942 16.67192C 17.15942 18.047 18.27414 19.16172 19.64922 19.16172ZM 30.2503 20.5588L 31.768 20.5588C 32.0364 20.5588 32.2937 20.6654 32.4835 20.8552C 32.6732 21.0449 32.7798 21.3023 32.7798 21.5706L 32.7798 31.6886C 32.7798 31.9569 32.6732 32.2143 32.4835 32.404C 32.2937 32.5938 32.0364 32.7004 31.768 32.7004L 23.6737 32.7004C 23.4053 32.7004 23.148 32.5938 22.9582 32.404C 22.7685 32.2143 22.6619 31.9569 22.6619 31.6886L 22.6619 21.5706C 22.6619 21.3023 22.7685 21.0449 22.9582 20.8552C 23.148 20.6654 23.4053 20.5588 23.6737 20.5588L 25.1914 20.5588M 29.2391 19.12213L 26.2037 19.12213C 25.6449 19.12213 25.1919 19.57513 25.1919 20.1339L 25.1919 21.1829C 25.1919 21.7417 25.6449 22.1947 26.2037 22.1947L 29.2391 22.1947C 29.7979 22.1947 30.2509 21.7417 30.2509 21.1829L 30.2509 20.1339C 30.2509 19.57513 29.7979 19.12213 29.2391 19.12213ZM 10 10M 25.5701 28.4459L 27.184 29.5219L 29.874 25.218M 27.7136 17.57626C 28.2023 17.04432 28.2023 16.29959 27.7136 15.76766C 26.3697 14.27823 23.3154 11.29935 19.65016 11.29935C 15.98496 11.29935 12.93064 14.27823 11.58673 15.76766C 11.09804 16.29959 11.09804 17.04432 11.58673 17.57626C 12.93064 19.17208 15.98496 22.0446 19.65016 22.0446C 20.0147 22.0446 20.3733 22.0151 20.7247 21.9605"></path></g></g></g><g id="g-root-tx_reviewer_1d1r0ca1yjzgg2-fill" data-item-order="0" transform="translate(267.49163818359375, 102)"><g id="tx_reviewer_1d1r0ca1yjzgg2-fill-merged" stroke="none" fill="#7f64ea" fill-opacity="1"><g><text style="font: 12px &quot;Roboto&quot;, sans-serif; white-space: pre;" transform="translate(54.0333251953125, 31)" font-size="12px" font-family="'Roboto', sans-serif"><tspan x="-25.6" y="-6.73" dominant-baseline="ideographic">Reviewer </tspan><tspan x="-42.03" y="7.27" dominant-baseline="ideographic">Approves Code </tspan><tspan x="-26.55" y="21.27" dominant-baseline="ideographic">and Docs</tspan></text></g></g></g><g id="g-root-tx_reviewer_1d1r0ca1yjzgg2-stroke" data-item-order="0" transform="translate(267.49163818359375, 102)"></g><g id="g-root-tx_gitbooka_qv9yt61yjzfny-fill" data-item-order="0" transform="translate(398.699951171875, 86)"><g id="tx_gitbooka_qv9yt61yjzfny-fill-merged" stroke="none" fill="#de8431" fill-opacity="1"><g><text style="font: 12px &quot;Roboto&quot;, sans-serif; white-space: pre;" transform="translate(48.82501220703125, 24)" font-size="12px" font-family="'Roboto', sans-serif"><tspan x="-36.82" y="0.27" dominant-baseline="ideographic">GitBook Auto-</tspan><tspan x="-12.86" y="14.27" dominant-baseline="ideographic">Sync</tspan></text></g></g></g><g id="g-root-tx_gitbooka_qv9yt61yjzfny-stroke" data-item-order="0" transform="translate(398.699951171875, 86)"></g><g id="g-root-ic_1_dkfxiy1yjwmix-fill" data-item-order="0" transform="translate(235.46295166015625, 322)"></g><g id="g-root-ic_1_dkfxiy1yjwmix-stroke" data-item-order="0" transform="translate(235.46295166015625, 322)"><g id="ic_1_dkfxiy1yjwmix-stroke" fill="none" stroke-linecap="round" stroke-linejoin="round" stroke-miterlimit="4" stroke="#1eabda" stroke-width="2" stroke-opacity="1"><g><path d="M 20.5 33.5L 11.5 33.5C 10.947715 33.5 10.5 33.052285 10.5 32.5L 10.5 11.5C 10.5 10.947715 10.947715 10.5 11.5 10.5L 24.793 10.5C 25.059204 10.501908 25.313659 10.609881 25.5 10.8L 29.207 14.5C 29.394549 14.687493 29.499943 14.941805 29.5 15.207L 29.5 18.5M 16.5 17.004L 13.5 20.004L 16.5 23.004M 19.5 17.004L 22.5 20.004L 19.5 23.004M 21.5 27.504C 21.500001 30.817709 24.186292 33.504001 27.500001 33.504001C 30.813709 33.504001 33.500001 30.817709 33.500001 27.504001C 33.500001 24.190292 30.813709 21.504001 27.500001 21.504001C 24.186292 21.504001 21.500001 24.190292 21.500001 27.504001ZM 30.174 25.759L 27.269 29.633C 27.138302 29.806823 26.93867 29.915455 26.721734 29.930799C 26.504798 29.946144 26.291863 29.866695 26.137999 29.712999L 24.638 28.213"></path></g></g></g><g id="g-root-tx_therevie_zqwz221yjzev8-fill" data-item-order="0" transform="translate(266.24163818359375, 150)"><g id="tx_therevie_zqwz221yjzev8-fill-merged" stroke="none" fill="#484848" fill-opacity="1"><g><text style="font: 10.5px &quot;Roboto&quot;, sans-serif; white-space: pre;" transform="translate(55.2833251953125, 34)" font-size="10.5px" font-family="'Roboto', sans-serif"><tspan x="-31.02" y="-11.3" dominant-baseline="ideographic">The reviewer </tspan><tspan x="-43.28" y="0.7" dominant-baseline="ideographic">approves both the </tspan><tspan x="-22.8" y="12.7" dominant-baseline="ideographic">code and </tspan><tspan x="-36.65" y="24.7" dominant-baseline="ideographic">documentation</tspan></text></g></g></g><g id="g-root-tx_therevie_zqwz221yjzev8-stroke" data-item-order="0" transform="translate(266.24163818359375, 150)"></g><g id="g-root-ic_3_znslmi1yjtts9-fill" data-item-order="0" transform="translate(108.46295166015625, 346)"></g><g id="g-root-ic_3_znslmi1yjtts9-stroke" data-item-order="0" transform="translate(108.46295166015625, 346)"><g id="ic_3_znslmi1yjtts9-stroke" fill="none" stroke-linecap="round" stroke-linejoin="round" stroke-miterlimit="4" stroke="#3cc583" stroke-width="2" stroke-opacity="1"><g><path d="M 15.428 29L 15.428 21.49L 18.557 25.996L 21.687 21.49L 21.687 29M 26.79 21.49L 26.79 29M 24.287 26.497L 26.79 29L 29.294 26.497M 30.5 33.5C 31.052285 33.5 31.5 33.052285 31.5 32.5L 31.5 16.475C 31.5 13.175099 28.824901 10.5 25.525 10.5L 13.5 10.5C 12.947715 10.5 12.5 10.947715 12.5 11.5L 12.5 32.5C 12.5 33.052285 12.947715 33.5 13.5 33.5L 30.5 33.5ZM 26.5 10.58L 26.5 14.5C 26.5 15.052285 26.947715 15.5 27.5 15.5L 31.42 15.5"></path></g></g></g><g id="g-root-ic_send_4hxpbu1yjzgg9-fill" data-item-order="0" transform="translate(487.46295166015625, 343)"></g><g id="g-root-ic_send_4hxpbu1yjzgg9-stroke" data-item-order="0" transform="translate(487.46295166015625, 343)"><g id="ic_send_4hxpbu1yjzgg9-stroke" fill="none" stroke-linecap="round" stroke-linejoin="round" stroke-miterlimit="4" stroke="#e55753" stroke-width="2" stroke-opacity="1"><g><path d="M 13.5 15L 33.5 15M 16.25 12.75C 16.111929 12.75 16 12.861929 16 13C 16 13.138071 16.111929 13.25 16.25 13.25C 16.388071 13.25 16.5 13.138071 16.5 13C 16.5 12.861929 16.388071 12.75 16.25 12.75L 16.25 12.75M 18.75 12.75C 18.611929 12.75 18.5 12.861929 18.5 13C 18.5 13.138071 18.611929 13.25 18.75 13.25C 18.888071 13.25 19 13.138071 19 13C 19 12.861929 18.888071 12.75 18.75 12.75L 18.75 12.75M 21.25 12.75C 21.111929 12.75 21 12.861929 21 13C 21 13.138071 21.111929 13.25 21.25 13.25C 21.388071 13.25 21.5 13.138071 21.5 13C 21.5 12.861929 21.388071 12.75 21.25 12.75L 21.25 12.75M 13.5 20L 13.5 13C 13.5 11.895431 14.395431 11 15.5 11L 31.5 11C 32.604569 11 33.5 11.895431 33.5 13L 33.5 24C 33.5 25.104569 32.604569 26 31.5 26L 23.5 26M 11.5 23L 19.5 23C 19.5 23 20.5 23 20.5 24L 20.5 32C 20.5 32 20.5 33 19.5 33L 11.5 33C 11.5 33 10.5 33 10.5 32L 10.5 24C 10.5 24 10.5 23 11.5 23M 14 25.5L 17.5 28L 14 30.5M 23 33L 26.19 33C 27 33 27.5 32 27.5 31.12L 27.5 28M 29.5 30L 27.5 28L 25.5 30"></path></g></g></g><g id="g-root-tx_document_5v1q21yjsgei-fill" data-item-order="0" transform="translate(140.49996948242188, 38)"><g id="tx_document_5v1q21yjsgei-fill-merged" stroke="none" fill="#484848" fill-opacity="1"><g><text style="font: bold 20px &quot;Roboto&quot;, sans-serif; white-space: pre;" transform="translate(154.02499389648438, 22)" font-weight="bold" font-size="20px" font-family="'Roboto', sans-serif"><tspan x="-142.02" y="12.28" dominant-baseline="ideographic">Documentation Update Process</tspan></text></g></g></g><g id="g-root-tx_document_5v1q21yjsgei-stroke" data-item-order="0" transform="translate(140.49996948242188, 38)"></g><g id="g-root-ic_code_18kok1m1yjy0w5-fill" data-item-order="0" transform="translate(361.46295166015625, 379)"></g><g id="g-root-ic_code_18kok1m1yjy0w5-stroke" data-item-order="0" transform="translate(361.46295166015625, 379)"><g id="ic_code_18kok1m1yjy0w5-stroke" fill="none" stroke-linecap="round" stroke-linejoin="round" stroke-miterlimit="4" stroke="#de58a9" stroke-width="2" stroke-opacity="1"><g><path d="M 10 10M 19 20L 17 22L 19 24M 10 10M 25 20L 27 22L 25 24M 10 10M 21.2999 25L 22.7999 19M 22 14.34998C 22.9941 14.34998 23.8 13.5441 23.8 12.54999C 23.8 11.55588 22.9941 10.75 22 10.75C 21.0059 10.75 20.2 11.55588 20.2 12.54999C 20.2 13.5441 21.0059 14.34998 22 14.34998ZM 10 10M 23.5001 13.5499L 26.0001 15.1499L 26.2001 13.1499M 13.90002 19.15005C 14.89414 19.15005 15.70004 18.34418 15.70004 17.35007C 15.70004 16.35595 14.89414 15.55005 13.90002 15.55005C 12.90591 15.55005 12.10004 16.35595 12.10004 17.35007C 12.10004 18.34418 12.90591 19.15005 13.90002 19.15005ZM 10 10M 15.50006 16.55005L 18.10007 15.25006L 16.50006 14.05005M 13.90002 28.4499C 14.89414 28.4499 15.70004 27.644 15.70004 26.6498C 15.70004 25.6557 14.89414 24.8499 13.90002 24.8499C 12.90591 24.8499 12.10004 25.6557 12.10004 26.6498C 12.10004 27.644 12.90591 28.4499 13.90002 28.4499ZM 10 10M 14.00012 24.8499L 14.20013 21.95L 12.30011 22.6499M 22 33.2501C 22.9941 33.2501 23.8 32.4442 23.8 31.4501C 23.8 30.456 22.9941 29.6501 22 29.6501C 21.0059 29.6501 20.2 30.456 20.2 31.4501C 20.2 32.4442 21.0059 33.2501 22 33.2501ZM 10 10M 20.3672 30.6875L 17.79999 28.9502L 17.5 30.9502M 30.1 28.4499C 31.0941 28.4499 31.9 27.644 31.9 26.6498C 31.9 25.6557 31.0941 24.8499 30.1 24.8499C 29.1059 24.8499 28.3 25.6557 28.3 26.6498C 28.3 27.644 29.1059 28.4499 30.1 28.4499ZM 28.5273 27.5312L 25.8 28.85L 27.4 30.05M 30.1 19.15005C 31.0941 19.15005 31.9 18.34418 31.9 17.35007C 31.9 16.35595 31.0941 15.55005 30.1 15.55005C 29.1059 15.55005 28.3 16.35595 28.3 17.35007C 28.3 18.34418 29.1059 19.15005 30.1 19.15005ZM 10 10M 30.0999 19.1499L 29.9 22.1499L 31.7 21.3499"></path></g></g></g><g id="g-root-tx_propened_4osxa21yjzfnq-fill" data-item-order="0" transform="translate(199.75830078125, 402)"><g id="tx_propened_4osxa21yjzfnq-fill-merged" stroke="none" fill="#1eabda" fill-opacity="1"><g><text style="font: 12px &quot;Roboto&quot;, sans-serif; white-space: pre;" transform="translate(55.76666259765625, 24)" font-size="12px" font-family="'Roboto', sans-serif"><tspan x="-43.77" y="0.27" dominant-baseline="ideographic">PR Opened with </tspan><tspan x="-42.87" y="14.27" dominant-baseline="ideographic">Docs Checkbox</tspan></text></g></g></g><g id="g-root-tx_propened_4osxa21yjzfnq-stroke" data-item-order="0" transform="translate(199.75830078125, 402)"></g><g id="g-root-tx_docsdepl_1lz9fui1yjzeo2-fill" data-item-order="0" transform="translate(435.14166259765625, 420)"><g id="tx_docsdepl_1lz9fui1yjzeo2-fill-merged" stroke="none" fill="#e55753" fill-opacity="1"><g><text style="font: 12px &quot;Roboto&quot;, sans-serif; white-space: pre;" transform="translate(72.38330078125, 24)" font-size="12px" font-family="'Roboto', sans-serif"><tspan x="-46.62" y="0.27" dominant-baseline="ideographic">Docs Deployed to </tspan><tspan x="-60.38" y="14.27" dominant-baseline="ideographic">`docs.visionaryauto.ai`</tspan></text></g></g></g><g id="g-root-tx_docsdepl_1lz9fui1yjzeo2-stroke" data-item-order="0" transform="translate(435.14166259765625, 420)"></g><g id="g-root-tx_docupdat_94mfei1yjzevg-fill" data-item-order="0" transform="translate(80.75830078125, 426)"><g id="tx_docupdat_94mfei1yjzevg-fill-merged" stroke="none" fill="#3cc583" fill-opacity="1"><g><text style="font: 12px &quot;Roboto&quot;, sans-serif; white-space: pre;" transform="translate(49.76666259765625, 31)" font-size="12px" font-family="'Roboto', sans-serif"><tspan x="-37.77" y="-6.73" dominant-baseline="ideographic">`/doc-update` </tspan><tspan x="-18.12" y="7.27" dominant-baseline="ideographic">Reads </tspan><tspan x="-34.03" y="21.27" dominant-baseline="ideographic">CLAUDE.md</tspan></text></g></g></g><g id="g-root-tx_docupdat_94mfei1yjzevg-stroke" data-item-order="0" transform="translate(80.75830078125, 426)"></g><g id="g-root-tx_apullreq_1uu9z0a1yjzg9b-fill" data-item-order="0" transform="translate(204.81661987304688, 436)"><g id="tx_apullreq_1uu9z0a1yjzg9b-fill-merged" stroke="none" fill="#484848" fill-opacity="1"><g><text style="font: 10.5px &quot;Roboto&quot;, sans-serif; white-space: pre;" transform="translate(50.708343505859375, 34)" font-size="10.5px" font-family="'Roboto', sans-serif"><tspan x="-38.59" y="-11.3" dominant-baseline="ideographic">A pull request is </tspan><tspan x="-38.71" y="0.7" dominant-baseline="ideographic">created with the </tspan><tspan x="-36.64" y="12.7" dominant-baseline="ideographic">documentation </tspan><tspan x="-23.62" y="24.7" dominant-baseline="ideographic">checkbox</tspan></text></g></g></g><g id="g-root-tx_apullreq_1uu9z0a1yjzg9b-stroke" data-item-order="0" transform="translate(204.81661987304688, 436)"></g><g id="g-root-tx_mergetom_1qeggvu1yjzh1k-fill" data-item-order="0" transform="translate(327.2332763671875, 456)"><g id="tx_mergetom_1qeggvu1yjzh1k-fill-merged" stroke="none" fill="#de58a9" fill-opacity="1"><g><text style="font: 12px &quot;Roboto&quot;, sans-serif; white-space: pre;" transform="translate(54.29168701171875, 17)" font-size="12px" font-family="'Roboto', sans-serif"><tspan x="-42.29" y="7.27" dominant-baseline="ideographic">Merge to `main`</tspan></text></g></g></g><g id="g-root-tx_mergetom_1qeggvu1yjzh1k-stroke" data-item-order="0" transform="translate(327.2332763671875, 456)"></g><g id="g-root-tx_thedocum_1d3mflm1yjzfgr-fill" data-item-order="0" transform="translate(449.79998779296875, 454)"><g id="tx_thedocum_1d3mflm1yjzfgr-fill-merged" stroke="none" fill="#484848" fill-opacity="1"><g><text style="font: 10.5px &quot;Roboto&quot;, sans-serif; white-space: pre;" transform="translate(57.7249755859375, 28)" font-size="10.5px" font-family="'Roboto', sans-serif"><tspan x="-45.72" y="-5.3" dominant-baseline="ideographic">The documentation </tspan><tspan x="-41.33" y="6.7" dominant-baseline="ideographic">is deployed to the </tspan><tspan x="-18.44" y="18.7" dominant-baseline="ideographic">website</tspan></text></g></g></g><g id="g-root-tx_thedocum_1d3mflm1yjzfgr-stroke" data-item-order="0" transform="translate(449.79998779296875, 454)"></g><g id="g-root-tx_thescrip_4osxa21yjzfnp-fill" data-item-order="0" transform="translate(73.50830078125, 474)"><g id="tx_thescrip_4osxa21yjzfnp-fill-merged" stroke="none" fill="#484848" fill-opacity="1"><g><text style="font: 10.5px &quot;Roboto&quot;, sans-serif; white-space: pre;" transform="translate(57.01666259765625, 28)" font-size="10.5px" font-family="'Roboto', sans-serif"><tspan x="-38.62" y="-5.3" dominant-baseline="ideographic">The script reads </tspan><tspan x="-45.02" y="6.7" dominant-baseline="ideographic">the documentation </tspan><tspan x="-7.95" y="18.7" dominant-baseline="ideographic">file</tspan></text></g></g></g><g id="g-root-tx_thescrip_4osxa21yjzfnp-stroke" data-item-order="0" transform="translate(73.50830078125, 474)"></g><g id="g-root-tx_thescrip_1d1r0ca1yjzgg1-fill" data-item-order="0" transform="translate(140.29995727539062, 144)"><g id="tx_thescrip_1d1r0ca1yjzgg1-fill-merged" stroke="none" fill="#484848" fill-opacity="1"><g><text style="font: 10.5px &quot;Roboto&quot;, sans-serif; white-space: pre;" transform="translate(55.225006103515625, 28)" font-size="10.5px" font-family="'Roboto', sans-serif"><tspan x="-43.22" y="-5.3" dominant-baseline="ideographic">The script creates </tspan><tspan x="-31.29" y="6.7" dominant-baseline="ideographic">a draft of the </tspan><tspan x="-36.64" y="18.7" dominant-baseline="ideographic">documentation</tspan></text></g></g></g><g id="g-root-tx_thescrip_1d1r0ca1yjzgg1-stroke" data-item-order="0" transform="translate(140.29995727539062, 144)"></g><g id="g-root-tx_develope_92r0561yjzfuq-fill" data-item-order="0" transform="translate(14.674957275390625, 122)"><g id="tx_develope_92r0561yjzfuq-fill-merged" stroke="none" fill="#4e88e7" fill-opacity="1"><g><text style="font: 12px &quot;Roboto&quot;, sans-serif; white-space: pre;" transform="translate(54.850006103515625, 24)" font-size="12px" font-family="'Roboto', sans-serif"><tspan x="-42.85" y="0.27" dominant-baseline="ideographic">Developer Edits </tspan><tspan x="-15.38" y="14.27" dominant-baseline="ideographic">Code</tspan></text></g></g></g><g id="g-root-tx_develope_92r0561yjzfuq-stroke" data-item-order="0" transform="translate(14.674957275390625, 122)"></g></g></g></svg>