<?xml version="1.0" encoding="utf-8" standalone="yes"?>
<!DOCTYPE svg PUBLIC "-//W3C//DTD SVG 1.1//EN" "http://www.w3.org/Graphics/SVG/1.1/DTD/svg11.dtd">
<svg style="fill:none;stroke:none;fill-rule:evenodd;clip-rule:evenodd;stroke-linecap:round;stroke-linejoin:round;stroke-miterlimit:1.5;" version="1.1" xmlns="http://www.w3.org/2000/svg" xmlns:xlink="http://www.w3.org/1999/xlink" width="686" height="750" viewBox="0 0 686 750"><style class="text-font-style fontImports" data-font-family="Roboto">@import url(https://fonts.googleapis.com/css2?family=Roboto:wght@400;700&amp;amp;display=block);</style><g id="items" style="isolation: isolate"><g id="blend" style="mix-blend-mode: normal"><g id="g-root-cp_2_sign-2_1hgb7tizw4xl7-fill" data-item-order="-423059" transform="translate(314.98333740234375, 236)"></g><g id="g-root-cp_2_sign-2_1hgb7tizw4xl7-stroke" data-item-order="-423059" transform="translate(314.98333740234375, 236)"><g id="cp_2_sign-2_1hgb7tizw4xl7-stroke" fill="none" stroke-linecap="round" stroke-linejoin="round" stroke-miterlimit="4" stroke="#000000" stroke-width="1" stroke-opacity="1"><g><path d="M 194.299988 106L 10 106M 10 10L 194.299988 10M 194.299988 10C 220.809688 10 242.299988 31.4903 242.299988 58C 242.299988 84.5097 220.809688 106 194.299988 106M 10 106L 10 10"></path></g></g></g><g id="g-root-cp_4_sign-4_145h6jazw4w0c-fill" data-item-order="-423035" transform="translate(314.98333740234375, 476)"></g><g id="g-root-cp_4_sign-4_145h6jazw4w0c-stroke" data-item-order="-423035" transform="translate(314.98333740234375, 476)"><g id="cp_4_sign-4_145h6jazw4w0c-stroke" fill="none" stroke-linecap="round" stroke-linejoin="round" stroke-miterlimit="4" stroke="#000000" stroke-width="1" stroke-opacity="1"><g><path d="M 241.616699 106L 10 106M 10 10L 241.616699 10M 241.616699 10C 268.126399 10 289.616699 31.4903 289.616699 58C 289.616699 84.5097 268.126399 106 241.616699 106M 10 106L 10 10"></path></g></g></g><g id="g-root-cp_1_sign-1_qu0o5yzw4xl9-fill" data-item-order="-423011" transform="translate(109.9000244140625, 116)"></g><g id="g-root-cp_1_sign-1_qu0o5yzw4xl9-stroke" data-item-order="-423011" transform="translate(109.9000244140625, 116)"><g id="cp_1_sign-1_qu0o5yzw4xl9-stroke" fill="none" stroke-linecap="round" stroke-linejoin="round" stroke-miterlimit="4" stroke="#000000" stroke-width="1" stroke-opacity="1"><g><path d="M 58 10L 215.083328 10M 215.083328 106L 58 106M 58 106C 31.4903 106 10 84.5097 10 58C 10 31.4903 31.4903 10 58 10M 215.083328 10L 215.083328 106"></path></g></g></g><g id="g-root-cp_3_sign-3_dj6mvqzw4w0e-fill" data-item-order="-422987" transform="translate(64.53338623046875, 356)"></g><g id="g-root-cp_3_sign-3_dj6mvqzw4w0e-stroke" data-item-order="-422987" transform="translate(64.53338623046875, 356)"><g id="cp_3_sign-3_dj6mvqzw4w0e-stroke" fill="none" stroke-linecap="round" stroke-linejoin="round" stroke-miterlimit="4" stroke="#000000" stroke-width="1" stroke-opacity="1"><g><path d="M 58 10L 260.449997 10M 260.449997 106L 58 106M 58 106C 31.4903 106 10 84.5097 10 58C 10 31.4903 31.4903 10 58 10M 260.449997 10L 260.449997 106"></path></g></g></g><g id="g-root-cp_5_sign-5_7q4iezw4xlb-fill" data-item-order="-422963" transform="translate(123.36669921875, 596)"></g><g id="g-root-cp_5_sign-5_7q4iezw4xlb-stroke" data-item-order="-422963" transform="translate(123.36669921875, 596)"><g id="cp_5_sign-5_7q4iezw4xlb-stroke" fill="none" stroke-linecap="round" stroke-linejoin="round" stroke-miterlimit="4" stroke="#000000" stroke-width="1" stroke-opacity="1"><g><path d="M 58 10L 201.616669 10M 201.616669 106L 58 106M 58 106C 31.4903 106 10 84.5097 10 58C 10 31.4903 31.4903 10 58 10M 201.616669 10L 201.616669 106"></path></g></g></g><g id="g-root-tx_document_1qdtnbqzw4vsw-fill" data-item-order="0" transform="translate(84.13336181640625, 38)"><g id="tx_document_1qdtnbqzw4vsw-fill-merged" stroke="none" fill="#000000" fill-opacity="1"><g><text style="font: bold 25px &quot;Roboto&quot;, sans-serif; white-space: pre;" transform="translate(240.8499755859375, 25)" font-weight="bold" font-size="25px" font-family="'Roboto', sans-serif"><tspan x="-228.85" y="15.08" dominant-baseline="ideographic">Documentation Automation Walkthrough</tspan></text></g></g></g><g id="g-root-tx_document_1qdtnbqzw4vsw-stroke" data-item-order="0" transform="translate(84.13336181640625, 38)"></g><g id="g-root-ic_edit_zqa8nqzvo2kp-fill" data-item-order="0" transform="translate(139.9000244140625, 146)"></g><g id="g-root-ic_edit_zqa8nqzvo2kp-stroke" data-item-order="0" transform="translate(139.9000244140625, 146)"><g id="ic_edit_zqa8nqzvo2kp-stroke" fill="none" stroke-linecap="round" stroke-linejoin="round" stroke-miterlimit="4" stroke="#000000" stroke-width="1" stroke-opacity="1"><g><path d="M 16.75 22.75L 31 22.75M 16.75 27.25L 31 27.25M 16.75 18.25L 27.25 18.25M 16.75 31.75L 28 31.75M 16.75 36.25L 22.75 36.25M 22.75 45.25L 12.25 45.25C 11.421573 45.25 10.75 44.578426 10.75 43.75L 10.75 12.25C 10.75 11.421573 11.421573 10.75 12.25 10.75L 32.189499 10.75C 32.587292 10.750085 32.968761 10.908176 33.25 11.1895L 38.810501 16.75C 39.091827 17.031239 39.249916 17.412708 39.25 17.810499L 39.25 22.75M 33.549999 43.449997L 27.25 45.25L 29.049999 38.949997L 39.818501 28.181499C 41.061138 26.938858 43.075859 26.938858 44.318501 28.181499C 45.561138 29.424141 45.561138 31.438858 44.318501 32.681499ZM 38.468498 29.5315L 42.968498 34.031502M 29.049999 38.949997L 33.549999 43.449997"></path></g></g></g><g id="g-root-tx_authored_1czvbrqzvpg5j-fill" data-item-order="0" transform="translate(187.9000244140625, 155)"><g id="tx_authored_1czvbrqzvpg5j-fill-merged" stroke="none" fill="#000000" fill-opacity="1"><g><text style="font: bold 15px &quot;Roboto&quot;, sans-serif; white-space: pre;" transform="translate(125.08331298828125, 19)" font-weight="bold" font-size="15px" font-family="'Roboto', sans-serif"><tspan x="-113.08" y="9.5" dominant-baseline="ideographic">Author Edits File</tspan></text></g></g></g><g id="g-root-tx_authored_1czvbrqzvpg5j-stroke" data-item-order="0" transform="translate(187.9000244140625, 155)"></g><g id="g-root-tx_authored_1d2d4yezw4xdt-fill" data-item-order="0" transform="translate(326.98333740234375, 146)"><g id="tx_authored_1d2d4yezw4xdt-fill-merged" stroke="none" fill="#000000" fill-opacity="1"><g><text style="font: 15px &quot;Roboto&quot;, sans-serif; white-space: pre;" transform="translate(10, 28)" font-size="15px" font-family="'Roboto', sans-serif"><tspan x="2" y="0.5" dominant-baseline="ideographic">Author edits a source file and </tspan><tspan x="2" y="18.5" dominant-baseline="ideographic">opens a PR.</tspan></text></g></g></g><g id="g-root-tx_authored_1d2d4yezw4xdt-stroke" data-item-order="0" transform="translate(326.98333740234375, 146)"></g><g id="g-root-ic_code_qvw3fazw4wlm-fill" data-item-order="0" transform="translate(481.28338623046875, 266)"></g><g id="g-root-ic_code_qvw3fazw4wlm-stroke" data-item-order="0" transform="translate(481.28338623046875, 266)"><g id="ic_code_qvw3fazw4wlm-stroke" fill="none" stroke-linecap="round" stroke-linejoin="round" stroke-miterlimit="4" stroke="#000000" stroke-width="1" stroke-opacity="1"><g><path d="M 28.804001 43.643501C 28.803173 44.530987 28.083488 45.25 27.196001 45.25L 12.7315 45.25C 11.844597 45.249172 11.125827 44.530403 11.125 43.643501L 11.125 39.625C 11.125 34.74308 15.08258 30.7855 19.9645 30.7855C 24.846422 30.7855 28.804001 34.74308 28.804001 39.625ZM 16.5895 36.25C 16.5895 36.457108 16.757393 36.625 16.9645 36.625C 17.171606 36.625 17.3395 36.457108 17.3395 36.25C 17.3395 36.042892 17.171606 35.875 16.9645 35.875C 16.757393 35.875 16.5895 36.042892 16.5895 36.25M 22.5895 36.240997C 22.5895 36.448105 22.757393 36.615997 22.9645 36.615997C 23.171608 36.615997 23.3395 36.448105 23.3395 36.240997C 23.3395 36.033894 23.171608 35.865997 22.9645 35.865997C 22.757393 35.865997 22.5895 36.033894 22.5895 36.240997M 19.9645 30.7855L 19.9645 27.570999M 17.553999 25.1605C 17.554001 26.491783 18.633217 27.571001 19.9645 27.571001C 21.295782 27.571001 22.375 26.491783 22.375 25.1605C 22.375 23.829218 21.295782 22.75 19.9645 22.75C 18.633217 22.75 17.554001 23.829218 17.554001 25.1605M 11.125 41.2225L 28.804001 41.2225M 38.875 11.5L 44.875 17.5L 38.875 23.5M 26.875 11.5L 20.875 17.5L 26.875 23.5M 34.375 10.75L 31.375 24.25"></path></g></g></g><g id="g-root-tx_claudere_zp1ahizvpeko-fill" data-item-order="0" transform="translate(104.54998779296875, 248)"><g id="tx_claudere_zp1ahizvpeko-fill-merged" stroke="none" fill="#000000" fill-opacity="1"><g><text style="font: 15px &quot;Roboto&quot;, sans-serif; white-space: pre;" transform="translate(208.433349609375, 46)" font-size="15px" font-family="'Roboto', sans-serif"><tspan x="-193.87" y="-17.5" dominant-baseline="ideographic">Claude reads the diff and the </tspan><tspan x="-137.82" y="0.5" dominant-baseline="ideographic">policy, then posts an </tspan><tspan x="-196.43" y="18.5" dominant-baseline="ideographic">assessment comment on the </tspan><tspan x="-24.67" y="36.5" dominant-baseline="ideographic">PR.</tspan></text></g></g></g><g id="g-root-tx_claudere_zp1ahizvpeko-stroke" data-item-order="0" transform="translate(104.54998779296875, 248)"></g><g id="g-root-tx_claudeas_qn5jdizvo0ec-fill" data-item-order="0" transform="translate(326.98333740234375, 275)"><g id="tx_claudeas_qn5jdizvo0ec-fill-merged" stroke="none" fill="#000000" fill-opacity="1"><g><text style="font: bold 15px &quot;Roboto&quot;, sans-serif; white-space: pre;" transform="translate(10, 19)" font-weight="bold" font-size="15px" font-family="'Roboto', sans-serif"><tspan x="2" y="9.5" dominant-baseline="ideographic">Claude Assesses PR</tspan></text></g></g></g><g id="g-root-tx_claudeas_qn5jdizvo0ec-stroke" data-item-order="0" transform="translate(326.98333740234375, 275)"></g><g id="g-root-ic_user_v97sd2zvpfcx-fill" data-item-order="0" transform="translate(94.53338623046875, 386)"></g><g id="g-root-ic_user_v97sd2zvpfcx-stroke" data-item-order="0" transform="translate(94.53338623046875, 386)"><g id="ic_user_v97sd2zvpfcx-stroke" fill="none" stroke-linecap="round" stroke-linejoin="round" stroke-miterlimit="4" stroke="#000000" stroke-width="1" stroke-opacity="1"><g><path d="M 39.516548 18.353291C 41.3806 18.353291 42.891548 16.842251 42.891548 14.978291C 42.891548 13.114315 41.3806 11.603275 39.516548 11.603275C 37.652649 11.603275 36.141548 13.114315 36.141548 14.978291C 36.141548 16.842251 37.652649 18.353291 39.516548 18.353291ZM 39.441551 44.875C 40.641548 44.875 41.691551 43.824997 41.691551 42.625L 41.691551 22.82497C 41.691551 21.924969 41.24155 21.174984 40.49155 20.874985C 39.74155 20.424984 38.841549 20.574986 38.24155 21.024984L 36.591549 22.07497C 35.24155 22.97497 32.841549 22.82497 30.14155 22.82497C 28.941549 22.82497 27.89155 23.874969 27.89155 25.075001C 27.89155 26.275002 28.941549 27.325001 30.14155 27.325001L 34.04155 27.325001C 35.091549 27.325001 36.141548 27.174999 37.191551 26.724998L 37.191551 42.625C 37.191551 43.824997 38.24155 44.875 39.441551 44.875ZM 20.758181 22.825075L 13.258181 22.825075M 20.758181 18.325075L 13.258181 18.325075M 20.758181 13.825075L 13.258181 13.825075M 30.451 27.325001L 13.258181 27.325001M 13.25488 27.325001L 13.25488 44.875L 27.208302 44.875M 10 10M 23.758181 27.325001L 23.758181 44.875M 10 10M 30.141251 22.824894L 31.341249 18.324896"></path></g></g></g><g id="g-root-tx_claudeco_1413y3azvqtxm-fill" data-item-order="0" transform="translate(142.5333251953125, 395)"><g id="tx_claudeco_1413y3azvqtxm-fill-merged" stroke="none" fill="#000000" fill-opacity="1"><g><text style="font: bold 15px &quot;Roboto&quot;, sans-serif; white-space: pre;" transform="translate(170.45001220703125, 19)" font-weight="bold" font-size="15px" font-family="'Roboto', sans-serif"><tspan x="-158.45" y="9.5" dominant-baseline="ideographic">Claude Commits Drafts</tspan></text></g></g></g><g id="g-root-tx_claudeco_1413y3azvqtxm-stroke" data-item-order="0" transform="translate(142.5333251953125, 395)"></g><g id="g-root-tx_ifthecha_4g20razvo2rx-fill" data-item-order="0" transform="translate(326.98333740234375, 368)"><g id="tx_ifthecha_4g20razvo2rx-fill-merged" stroke="none" fill="#000000" fill-opacity="1"><g><text style="font: 15px &quot;Roboto&quot;, sans-serif; white-space: pre;" transform="translate(10, 46)" font-size="15px" font-family="'Roboto', sans-serif"><tspan x="2" y="-17.5" dominant-baseline="ideographic">If the change qualifies under </tspan><tspan x="2" y="0.5" dominant-baseline="ideographic">§1, Claude commits doc drafts </tspan><tspan x="2" y="18.5" dominant-baseline="ideographic">to `docs/dev/` on the PR </tspan><tspan x="2" y="36.5" dominant-baseline="ideographic">branch.</tspan></text></g></g></g><g id="g-root-tx_ifthecha_4g20razvo2rx-stroke" data-item-order="0" transform="translate(326.98333740234375, 368)"></g><g id="g-root-ic_3_1cuvj2uzvo2ku-fill" data-item-order="0" transform="translate(528.6000366210938, 506)"></g><g id="g-root-ic_3_1cuvj2uzvo2ku-stroke" data-item-order="0" transform="translate(528.6000366210938, 506)"><g id="ic_3_1cuvj2uzvo2ku-stroke" fill="none" stroke-linecap="round" stroke-linejoin="round" stroke-miterlimit="4" stroke="#000000" stroke-width="1" stroke-opacity="1"><g><path d="M 18.25 22.75C 18.25 23.578428 18.921574 24.25 19.75 24.25L 22.75 24.25L 27.25 28.75L 27.25 24.25L 39.25 24.25C 40.078426 24.25 40.75 23.578428 40.75 22.75L 40.75 12.25C 40.75 11.421573 40.078426 10.75 39.25 10.75L 19.75 10.75C 18.921574 10.75 18.25 11.421573 18.25 12.25ZM 14.125 32.125C 14.125 33.98896 15.636039 35.5 17.5 35.5C 19.36396 35.5 20.875 33.98896 20.875 32.125C 20.875 30.26104 19.36396 28.75 17.5 28.75C 15.636039 28.75 14.125 30.26104 14.125 32.125M 22.255001 38.904999C 20.464441 37.211906 17.910774 36.594437 15.544478 37.282421C 13.178183 37.970406 11.35366 39.860802 10.75 42.25M 35.125 32.125C 35.125 33.98896 36.63604 35.5 38.5 35.5C 40.36396 35.5 41.875 33.98896 41.875 32.125C 41.875 30.26104 40.36396 28.75 38.5 28.75C 36.63604 28.75 35.125 30.26104 35.125 32.125M 33.744999 38.904999C 35.535561 37.211906 38.08923 36.594437 40.455524 37.282421C 42.821819 37.970406 44.646339 39.860802 45.25 42.25M 24.625 35.125C 24.625 36.98896 26.13604 38.5 28 38.5C 29.86396 38.5 31.375 36.98896 31.375 35.125C 31.375 33.26104 29.86396 31.75 28 31.75C 26.13604 31.75 24.625 33.26104 24.625 35.125M 34.75 45.25C 33.949986 42.177059 31.175375 40.032307 28 40.032307C 24.824625 40.032307 22.050014 42.177059 21.25 45.25M 34 14.5L 37 17.5L 34 20.5M 25 14.5L 22 17.5L 25 20.5M 31 14.5L 28 20.5"></path></g></g></g><g id="g-root-tx_therevie_mageomzvqt4z-fill" data-item-order="0" transform="translate(94.5, 506)"><g id="tx_therevie_mageomzvqt4z-fill-merged" stroke="none" fill="#000000" fill-opacity="1"><g><text style="font: 15px &quot;Roboto&quot;, sans-serif; white-space: pre;" transform="translate(218.48333740234375, 28)" font-size="15px" font-family="'Roboto', sans-serif"><tspan x="-206.48" y="0.5" dominant-baseline="ideographic">The reviewer reviews code and </tspan><tspan x="-186.92" y="18.5" dominant-baseline="ideographic">drafts together, in one pass.</tspan></text></g></g></g><g id="g-root-tx_therevie_mageomzvqt4z-stroke" data-item-order="0" transform="translate(94.5, 506)"></g><g id="g-root-tx_reviewer_4mx8pizvo16v-fill" data-item-order="0" transform="translate(326.98333740234375, 515)"><g id="tx_reviewer_4mx8pizvo16v-fill-merged" stroke="none" fill="#000000" fill-opacity="1"><g><text style="font: bold 15px &quot;Roboto&quot;, sans-serif; white-space: pre;" transform="translate(10, 19)" font-weight="bold" font-size="15px" font-family="'Roboto', sans-serif"><tspan x="2" y="9.5" dominant-baseline="ideographic">Reviewer Reviews Together</tspan></text></g></g></g><g id="g-root-tx_reviewer_4mx8pizvo16v-stroke" data-item-order="0" transform="translate(326.98333740234375, 515)"></g><g id="g-root-ic_1_3cw2ezvqvik-fill" data-item-order="0" transform="translate(153.36669921875, 626)"></g><g id="g-root-ic_1_3cw2ezvqvik-stroke" data-item-order="0" transform="translate(153.36669921875, 626)"><g id="ic_1_3cw2ezvqvik-stroke" fill="none" stroke-linecap="round" stroke-linejoin="round" stroke-miterlimit="4" stroke="#000000" stroke-width="1" stroke-opacity="1"><g><path d="M 10.75 16C 10.75 18.071068 12.428932 19.75 14.5 19.75C 16.571068 19.75 18.25 18.071068 18.25 16C 18.25 13.928932 16.571068 12.25 14.5 12.25C 12.428932 12.25 10.75 13.928932 10.75 16M 26.5 16C 26.5 18.071068 28.178932 19.75 30.25 19.75C 32.321068 19.75 34 18.071068 34 16C 34 13.928932 32.321068 12.25 30.25 12.25C 28.178932 12.25 26.5 13.928932 26.5 16M 26.5 38.5C 26.5 40.571068 28.178932 42.25 30.25 42.25C 32.321068 42.25 34 40.571068 34 38.5C 34 36.428932 32.321068 34.75 30.25 34.75C 28.178932 34.75 26.5 36.428932 26.5 38.5M 18.25 16L 26.5 16M 14.5 38.5L 26.5 38.5M 34 16C 40.213203 16 45.25 21.036797 45.25 27.250002C 45.25 33.463203 40.213203 38.5 34 38.5M 19 33.25L 13.75 38.5L 19 43.75"></path></g></g></g><g id="g-root-tx_mergetom_140hh06zvtnv3-fill" data-item-order="0" transform="translate(201.36663818359375, 635)"><g id="tx_mergetom_140hh06zvtnv3-fill-merged" stroke="none" fill="#000000" fill-opacity="1"><g><text style="font: bold 15px &quot;Roboto&quot;, sans-serif; white-space: pre;" transform="translate(111.61669921875, 19)" font-weight="bold" font-size="15px" font-family="'Roboto', sans-serif"><tspan x="-99.62" y="9.5" dominant-baseline="ideographic">Merge to Main</tspan></text></g></g></g><g id="g-root-tx_mergetom_140hh06zvtnv3-stroke" data-item-order="0" transform="translate(201.36663818359375, 635)"></g><g id="g-root-tx_mergetom_1d1qr12zvo0zs-fill" data-item-order="0" transform="translate(326.98333740234375, 626)"><g id="tx_mergetom_1d1qr12zvo0zs-fill-merged" stroke="none" fill="#000000" fill-opacity="1"><g><text style="font: 15px &quot;Roboto&quot;, sans-serif; white-space: pre;" transform="translate(10, 28)" font-size="15px" font-family="'Roboto', sans-serif"><tspan x="2" y="0.5" dominant-baseline="ideographic">Merge to `main`. GitBook syncs </tspan><tspan x="2" y="18.5" dominant-baseline="ideographic">the next time it pulls.</tspan></text></g></g></g><g id="g-root-tx_mergetom_1d1qr12zvo0zs-stroke" data-item-order="0" transform="translate(326.98333740234375, 626)"></g></g></g></svg>