<?xml version="1.0" encoding="utf-8" standalone="yes"?>
<!DOCTYPE svg PUBLIC "-//W3C//DTD SVG 1.1//EN" "http://www.w3.org/Graphics/SVG/1.1/DTD/svg11.dtd">
<svg style="fill:none;stroke:none;fill-rule:evenodd;clip-rule:evenodd;stroke-linecap:round;stroke-linejoin:round;stroke-miterlimit:1.5;" version="1.1" xmlns="http://www.w3.org/2000/svg" xmlns:xlink="http://www.w3.org/1999/xlink" width="531" height="480" viewBox="0 0 531 480"><style class="text-font-style fontImports" data-font-family="Roboto">@import url(https://fonts.googleapis.com/css2?family=Roboto:wght@400;700&amp;amp;display=block);</style><g id="items" style="isolation: isolate"><g id="blend" style="mix-blend-mode: normal"><g id="g-root-cp_0_g-0_m7z16i1wm9af8-fill" data-item-order="-188917" transform="translate(20.0013427734375, 260)"></g><g id="g-root-cp_0_g-0_m7z16i1wm9af8-stroke" data-item-order="-188917" transform="translate(20.0013427734375, 260)"><g id="cp_0_g-0_m7z16i1wm9af8-stroke" fill="none" stroke-linecap="round" stroke-linejoin="round" stroke-miterlimit="4" stroke="#484848" stroke-width="2" stroke-opacity="1"><g><path d="M 67 10L 10 10M 127.0307 10L 72.9706 10M 187 10L 133 10M 247 10L 192.9701 10M 307 10L 252.9703 10M 367.0306 10L 312.9701 10M 427.0299 10L 373 10"></path></g></g></g><g id="g-root-sy_0_Vector_8wiit61wm9c05-fill" data-item-order="-188913" transform="translate(442, 260)"></g><g id="g-root-sy_0_Vector_8wiit61wm9c05-stroke" data-item-order="-188913" transform="translate(442, 260)"><g id="sy_0_Vector_8wiit61wm9c05-stroke" fill="none" stroke-linecap="round" stroke-linejoin="round" stroke-miterlimit="4" stroke="#484848" stroke-width="2" stroke-opacity="1"><g><path d="M 65 10L 10 10"></path><path d="M 59 16.5L 65.5 10L 59 3.5" stroke-dasharray="none"></path></g></g></g><g id="g-root-cp_1_g-1_8wiit61wm9c06-fill" data-item-order="-188909" transform="translate(77, 257)"></g><g id="g-root-cp_1_g-1_8wiit61wm9c06-stroke" data-item-order="-188909" transform="translate(77, 257)"><g id="cp_1_g-1_8wiit61wm9c06-stroke" fill="none" stroke-linecap="round" stroke-linejoin="round" stroke-miterlimit="4" stroke="#484848" stroke-width="2" stroke-opacity="1"><g><path d="M 16 13C 16 14.6569 14.6569 16 13 16C 11.3432 16 10 14.6569 10 13C 10 11.3431 11.3432 10 13 10C 14.6569 10 16 11.3431 16 13Z"></path></g></g></g><g id="g-root-cp_2_g-2_vika1wm9csv-fill" data-item-order="-188905" transform="translate(137, 257)"></g><g id="g-root-cp_2_g-2_vika1wm9csv-stroke" data-item-order="-188905" transform="translate(137, 257)"><g id="cp_2_g-2_vika1wm9csv-stroke" fill="none" stroke-linecap="round" stroke-linejoin="round" stroke-miterlimit="4" stroke="#484848" stroke-width="2" stroke-opacity="1"><g><path d="M 16 13C 16 14.6569 14.6568 16 13 16C 11.3431 16 10 14.6569 10 13C 10 11.3431 11.3431 10 13 10C 14.6568 10 16 11.3431 16 13Z"></path></g></g></g><g id="g-root-cp_3_g-3_1umsji21wm9a88-fill" data-item-order="-188901" transform="translate(197, 257)"></g><g id="g-root-cp_3_g-3_1umsji21wm9a88-stroke" data-item-order="-188901" transform="translate(197, 257)"><g id="cp_3_g-3_1umsji21wm9a88-stroke" fill="none" stroke-linecap="round" stroke-linejoin="round" stroke-miterlimit="4" stroke="#484848" stroke-width="2" stroke-opacity="1"><g><path d="M 16 13C 16 14.6569 14.6568 16 13 16C 11.3431 16 10 14.6569 10 13C 10 11.3431 11.3431 10 13 10C 14.6568 10 16 11.3431 16 13Z"></path></g></g></g><g id="g-root-cp_6_g-6_1q6z1dm1wm9b0h-fill" data-item-order="-188897" transform="translate(377, 257)"></g><g id="g-root-cp_6_g-6_1q6z1dm1wm9b0h-stroke" data-item-order="-188897" transform="translate(377, 257)"><g id="cp_6_g-6_1q6z1dm1wm9b0h-stroke" fill="none" stroke-linecap="round" stroke-linejoin="round" stroke-miterlimit="4" stroke="#484848" stroke-width="2" stroke-opacity="1"><g><path d="M 16 13C 16 14.6569 14.6569 16 13 16C 11.3431 16 10 14.6569 10 13C 10 11.3431 11.3431 10 13 10C 14.6569 10 16 11.3431 16 13Z"></path></g></g></g><g id="g-root-cp_5_g-5_1q6z1dm1wm9b0i-fill" data-item-order="-188893" transform="translate(317, 257)"></g><g id="g-root-cp_5_g-5_1q6z1dm1wm9b0i-stroke" data-item-order="-188893" transform="translate(317, 257)"><g id="cp_5_g-5_1q6z1dm1wm9b0i-stroke" fill="none" stroke-linecap="round" stroke-linejoin="round" stroke-miterlimit="4" stroke="#484848" stroke-width="2" stroke-opacity="1"><g><path d="M 16 13C 16 14.6569 14.6568 16 13 16C 11.3431 16 10 14.6569 10 13C 10 11.3431 11.3431 10 13 10C 14.6568 10 16 11.3431 16 13Z"></path></g></g></g><g id="g-root-cp_7_g-7_1hbc14q1wm9bt7-fill" data-item-order="-188889" transform="translate(437, 257)"></g><g id="g-root-cp_7_g-7_1hbc14q1wm9bt7-stroke" data-item-order="-188889" transform="translate(437, 257)"><g id="cp_7_g-7_1hbc14q1wm9bt7-stroke" fill="none" stroke-linecap="round" stroke-linejoin="round" stroke-miterlimit="4" stroke="#484848" stroke-width="2" stroke-opacity="1"><g><path d="M 16 13C 16 14.6569 14.6569 16 13 16C 11.3432 16 10 14.6569 10 13C 10 11.3431 11.3432 10 13 10C 14.6569 10 16 11.3431 16 13Z"></path></g></g></g><g id="g-root-cp_4_g-4_1cvij0a1wm9clg-fill" data-item-order="-188885" transform="translate(257, 257)"></g><g id="g-root-cp_4_g-4_1cvij0a1wm9clg-stroke" data-item-order="-188885" transform="translate(257, 257)"><g id="cp_4_g-4_1cvij0a1wm9clg-stroke" fill="none" stroke-linecap="round" stroke-linejoin="round" stroke-miterlimit="4" stroke="#484848" stroke-width="2" stroke-opacity="1"><g><path d="M 16 13C 16 14.6569 14.6568 16 13 16C 11.3431 16 10 14.6569 10 13C 10 11.3431 11.3431 10 13 10C 14.6568 10 16 11.3431 16 13Z"></path></g></g></g><g id="g-root-ic_2_dikuyi1wlpn9l-fill" data-item-order="0" transform="translate(62, 212)"></g><g id="g-root-ic_2_dikuyi1wlpn9l-stroke" data-item-order="0" transform="translate(62, 212)"><g id="ic_2_dikuyi1wlpn9l-stroke" fill="none" stroke-linecap="round" stroke-linejoin="round" stroke-miterlimit="4" stroke="#4e88e7" stroke-width="2" stroke-opacity="1"><g><path d="M 30.835449 20.143749L 40.585449 20.143749C 41.78545 20.143749 42.835449 21.19375 42.835449 22.393749L 42.835449 38.143753M 13.58548 38.143753L 13.58548 30.193748M 32.03545 38.143753C 31.28545 39.493752 29.78545 40.393753 28.135448 40.393753C 26.485451 40.393753 24.98551 39.493752 24.23551 38.143753L 11.185516 38.143753L 11.185516 40.393753C 11.185516 42.943748 13.135509 44.893753 15.68551 44.893753L 40.435452 44.893753C 42.985451 44.893753 44.935452 42.943748 44.935452 40.393753L 44.935452 38.143753L 32.03545 38.143753ZM 30.9856 26.743752L 37.585602 26.743752M 30.9856 31.993752L 35.335602 31.993752M 24.98554 31.993752L 27.0856 31.993752M 10 10M 20.32102 12.4375L 20.921021 14.237515C 21.07102 14.837515 21.82102 15.287516 22.421021 15.137515L 24.22102 14.6875C 25.87105 14.3875 26.921049 16.187515 25.87105 17.387516L 24.521021 18.737514C 24.07102 19.187515 24.07102 19.937515 24.521021 20.387516L 25.87105 21.737514C 26.921049 22.937515 25.87105 24.887501 24.22102 24.4375L 22.421021 23.987514C 21.82102 23.837515 21.07102 24.137514 20.921021 24.887514L 20.32102 26.6875C 19.871019 28.337502 17.621019 28.337502 17.171021 26.6875L 16.57102 24.887514C 16.421021 24.287516 15.67102 23.837515 15.07102 23.987514L 13.27102 24.4375C 11.62102 24.737499 10.571021 22.937515 11.62102 21.737514L 12.97102 20.387516C 13.42102 19.937515 13.42102 19.187515 12.97102 18.737514L 11.62102 17.387516C 10.571021 16.187515 11.62102 14.2375 13.27102 14.6875L 15.07102 15.137515C 15.67102 15.287516 16.421021 14.987515 16.57102 14.237515L 17.171021 12.4375C 17.621019 10.787504 19.871019 10.787504 20.32102 12.4375ZM 16.4965 19.5625C 16.4965 20.805141 17.50386 21.8125 18.7465 21.8125C 19.989141 21.8125 20.9965 20.805141 20.9965 19.5625C 20.9965 18.31986 19.989141 17.3125 18.7465 17.3125C 17.50386 17.3125 16.4965 18.31986 16.4965 19.5625"></path></g></g></g><g id="g-root-ic_2_ddl29m1wlpnut-fill" data-item-order="0" transform="translate(182, 212)"></g><g id="g-root-ic_2_ddl29m1wlpnut-stroke" data-item-order="0" transform="translate(182, 212)"><g id="ic_2_ddl29m1wlpnut-stroke" fill="none" stroke-linecap="round" stroke-linejoin="round" stroke-miterlimit="4" stroke="#92bd39" stroke-width="2" stroke-opacity="1"><g><path d="M 24.473831 23.74258C 26.536449 23.74258 28.2085 22.070499 28.2085 20.007879C 28.2085 17.945274 26.536449 16.273195 24.473831 16.273195C 22.411211 16.273195 20.73913 17.945274 20.73913 20.007879C 20.73913 22.070499 22.411211 23.74258 24.473831 23.74258ZM 40.37545 25.8382L 42.652 25.8382C 43.0546 25.8382 43.440548 25.9981 43.72525 26.282799C 44.0098 26.56735 44.169701 26.953451 44.169701 27.3559L 44.169701 42.532902C 44.169701 42.935349 44.0098 43.321449 43.72525 43.605999C 43.440548 43.890701 43.0546 44.050598 42.652 44.050598L 30.510551 44.050598C 30.10795 44.050598 29.722 43.890701 29.437302 43.605999C 29.15275 43.321449 28.992849 42.935349 28.992849 42.532902L 28.992849 27.3559C 28.992849 26.953451 29.15275 26.56735 29.437302 26.282799C 29.722 25.9981 30.10795 25.8382 30.510551 25.8382L 32.787098 25.8382M 38.85865 23.683195L 34.30555 23.683195C 33.46735 23.683195 32.787849 24.362696 32.787849 25.20085L 32.787849 26.774351C 32.787849 27.612551 33.46735 28.292049 34.30555 28.292049L 38.85865 28.292049C 39.69685 28.292049 40.37635 27.612551 40.37635 26.774351L 40.37635 25.20085C 40.37635 24.362696 39.69685 23.683195 38.85865 23.683195ZM 10 10M 33.355148 37.66885L 35.776001 39.282852L 39.811001 32.827M 36.5704 21.364389C 37.303448 20.566481 37.303448 19.449385 36.5704 18.651489C 34.55455 16.417345 29.973101 11.949025 24.475239 11.949025C 18.97744 11.949025 14.39596 16.417345 12.380095 18.651489C 11.64706 19.449385 11.64706 20.566481 12.380095 21.364389C 14.39596 23.75812 18.97744 28.066898 24.475239 28.066898C 25.022049 28.066898 25.55995 28.02265 26.087049 27.94075"></path></g></g></g><g id="g-root-ic_code_1lz9pdm1wm9bm0-fill" data-item-order="0" transform="translate(302, 212)"></g><g id="g-root-ic_code_1lz9pdm1wm9bm0-stroke" data-item-order="0" transform="translate(302, 212)"><g id="ic_code_1lz9pdm1wm9bm0-stroke" fill="none" stroke-linecap="round" stroke-linejoin="round" stroke-miterlimit="4" stroke="#7f64ea" stroke-width="2" stroke-opacity="1"><g><path d="M 10 10M 19.375 42.625L 11.125 36.625L 11.125 19.375L 19.375 12.625L 19.375 42.625ZM 10 10M 36.625 43.375L 44.875 36.625L 44.875 20.125L 36.625 12.625L 36.625 43.375ZM 19.375 19.375L 22.075001 19.375M 19.375 36.625L 22.075001 36.625M 26.575001 19.375L 29.575001 19.375M 26.575001 36.625L 29.575001 36.625M 34.074997 19.375L 36.625 19.375M 34.074997 36.625L 36.625 36.625M 10 10M 26.575001 32.125L 22.825075 29.125L 26.575001 26.125M 10 10M 30.325001 32.125L 32.575001 23.875"></path></g></g></g><g id="g-root-ic_2_qp1hh61wm9bta-fill" data-item-order="0" transform="translate(422, 212)"></g><g id="g-root-ic_2_qp1hh61wm9bta-stroke" data-item-order="0" transform="translate(422, 212)"><g id="ic_2_qp1hh61wm9bta-stroke" fill="none" stroke-linecap="round" stroke-linejoin="round" stroke-miterlimit="4" stroke="#de8431" stroke-width="2" stroke-opacity="1"><g><path d="M 13.483 34.320999L 29.875 34.320999C 29.875 34.320999 32.607998 34.320999 32.607998 37.054001L 32.607998 42.517002C 32.607998 42.517002 32.607998 45.25 29.875 45.25L 13.483 45.25C 13.483 45.25 10.75 45.25 10.75 42.517002L 10.75 37.054001C 10.75 37.054001 10.75 34.320999 13.483 34.320999M 32.476002 36.214001L 29.876501 26.873499L 28.2355 26.873499C 27.584881 26.873962 27.008739 27.2938 26.809 27.913L 26.1115 29.317001C 25.911758 29.936199 25.335619 30.356037 24.684999 30.356501L 18.671501 30.356501C 18.020882 30.356037 17.44474 29.936199 17.244999 29.317001L 16.550501 27.913C 16.35059 27.293274 15.773672 26.87331 15.122499 26.873499L 13.483 26.873499L 10.882 36.214001M 16.2145 39.103001L 16.2145 39.103001M 16.2145 39.099998C 15.837566 39.100002 15.532001 39.405567 15.532001 39.782501C 15.532001 40.159435 15.837566 40.465004 16.2145 40.465004C 16.591434 40.465004 16.897001 40.159435 16.897001 39.782501C 16.897001 39.405567 16.591434 39.100002 16.2145 39.100002M 27.143499 39.103001L 27.143499 39.103001M 27.143499 39.099998C 26.766567 39.100002 26.461002 39.405567 26.461002 39.782501C 26.461002 40.159435 26.766567 40.465004 27.143501 40.465004C 27.520435 40.465004 27.826 40.159435 27.826 39.782501C 27.826 39.405567 27.520435 39.100002 27.143501 39.100002M 34.75 14.0125C 34.75 14.0125 35.703999 11.05 43.871498 10.75C 44.207005 10.717937 44.541412 10.821302 44.800304 11.037095C 45.0592 11.252888 45.221107 11.563206 45.25 11.899L 45.25 24.032499C 45.186672 24.701574 44.60881 25.202827 43.9375 25.171001C 35.717499 25.462 34.75 28.434999 34.75 28.434999L 34.75 14.0125M 33.235001 26.9095C 33.893581 27.238163 34.425892 27.774166 34.75 28.434999M 34.75 14.0125C 34.75 14.0125 33.796001 11.05 25.6285 10.75C 25.292994 10.717937 24.958588 10.821302 24.699694 11.037095C 24.4408 11.252888 24.278893 11.563206 24.25 11.899L 24.25 24.032499C 24.255764 24.340771 24.39673 24.630928 24.6355 24.826"></path></g></g></g><g id="g-root-tx_gitbooka_v48loa1wlr2tk-fill" data-item-order="0" transform="translate(397.99169921875, 134)"><g id="tx_gitbooka_v48loa1wlr2tk-fill-merged" stroke="none" fill="#484848" fill-opacity="1"><g><text style="font: 10.5px &quot;Roboto&quot;, sans-serif; white-space: pre;" transform="translate(52.00830078125, 34)" font-size="10.5px" font-family="'Roboto', sans-serif"><tspan x="-19.78" y="-11.3" dominant-baseline="ideographic">GitBook </tspan><tspan x="-32.81" y="0.7" dominant-baseline="ideographic">automatically </tspan><tspan x="-40.01" y="12.7" dominant-baseline="ideographic">syncs docs from </tspan><tspan x="-38.96" y="24.7" dominant-baseline="ideographic">the main branch</tspan></text></g></g></g><g id="g-root-tx_gitbooka_v48loa1wlr2tk-stroke" data-item-order="0" transform="translate(397.99169921875, 134)"></g><g id="g-root-tx_docsuseu_zk23sq1wlr21a-fill" data-item-order="0" transform="translate(273.74169921875, 146)"><g id="tx_docsuseu_zk23sq1wlr21a-fill-merged" stroke="none" fill="#484848" fill-opacity="1"><g><text style="font: 10.5px &quot;Roboto&quot;, sans-serif; white-space: pre;" transform="translate(56.25830078125, 28)" font-size="10.5px" font-family="'Roboto', sans-serif"><tspan x="-44.26" y="-5.3" dominant-baseline="ideographic">Docs use URLs for </tspan><tspan x="-32.29" y="6.7" dominant-baseline="ideographic">cross-service </tspan><tspan x="-26.03" y="18.7" dominant-baseline="ideographic">references</tspan></text></g></g></g><g id="g-root-tx_docsuseu_zk23sq1wlr21a-stroke" data-item-order="0" transform="translate(273.74169921875, 146)"></g><g id="g-root-tx_therevie_18fp41m1wlr18k-fill" data-item-order="0" transform="translate(158.75833129882812, 134)"><g id="tx_therevie_18fp41m1wlr18k-fill-merged" stroke="none" fill="#484848" fill-opacity="1"><g><text style="font: 10.5px &quot;Roboto&quot;, sans-serif; white-space: pre;" transform="translate(51.241668701171875, 34)" font-size="10.5px" font-family="'Roboto', sans-serif"><tspan x="-31.01" y="-11.3" dominant-baseline="ideographic">The reviewer </tspan><tspan x="-39.24" y="0.7" dominant-baseline="ideographic">checks the docs </tspan><tspan x="-37.53" y="12.7" dominant-baseline="ideographic">during the code </tspan><tspan x="-16.33" y="24.7" dominant-baseline="ideographic">review</tspan></text></g></g></g><g id="g-root-tx_therevie_18fp41m1wlr18k-stroke" data-item-order="0" transform="translate(158.75833129882812, 134)"></g><g id="g-root-tx_determin_1lqj5bu1wlr2te-fill" data-item-order="0" transform="translate(36.17498779296875, 134)"><g id="tx_determin_1lqj5bu1wlr2te-fill-merged" stroke="none" fill="#484848" fill-opacity="1"><g><text style="font: 10.5px &quot;Roboto&quot;, sans-serif; white-space: pre;" transform="translate(53.82501220703125, 34)" font-size="10.5px" font-family="'Roboto', sans-serif"><tspan x="-40.71" y="-11.3" dominant-baseline="ideographic">Determine if new </tspan><tspan x="-41.83" y="0.7" dominant-baseline="ideographic">docs are required </tspan><tspan x="-40.58" y="12.7" dominant-baseline="ideographic">based on feature </tspan><tspan x="-21.14" y="24.7" dominant-baseline="ideographic">changes</tspan></text></g></g></g><g id="g-root-tx_determin_1lqj5bu1wlr2te-stroke" data-item-order="0" transform="translate(36.17498779296875, 134)"></g><g id="g-root-tx_gitbooka_v48loa1wlr2tj-fill" data-item-order="0" transform="translate(401.17498779296875, 100)"><g id="tx_gitbooka_v48loa1wlr2tj-fill-merged" stroke="none" fill="#de8431" fill-opacity="1"><g><text style="font: 12px &quot;Roboto&quot;, sans-serif; white-space: pre;" transform="translate(48.82501220703125, 24)" font-size="12px" font-family="'Roboto', sans-serif"><tspan x="-36.82" y="0.27" dominant-baseline="ideographic">GitBook Auto-</tspan><tspan x="-31.06" y="14.27" dominant-baseline="ideographic">Syncs Docs</tspan></text></g></g></g><g id="g-root-tx_gitbooka_v48loa1wlr2tj-stroke" data-item-order="0" transform="translate(401.17498779296875, 100)"></g><g id="g-root-tx_docscont_18fp41m1wlr18l-fill" data-item-order="0" transform="translate(279.816650390625, 98)"><g id="tx_docscont_18fp41m1wlr18l-fill-merged" stroke="none" fill="#7f64ea" fill-opacity="1"><g><text style="font: 12px &quot;Roboto&quot;, sans-serif; white-space: pre;" transform="translate(50.183349609375, 31)" font-size="12px" font-family="'Roboto', sans-serif"><tspan x="-37.25" y="-6.73" dominant-baseline="ideographic">Docs Contain </tspan><tspan x="-38.18" y="7.27" dominant-baseline="ideographic">Cross-Service </tspan><tspan x="-31.47" y="21.27" dominant-baseline="ideographic">References</tspan></text></g></g></g><g id="g-root-tx_docscont_18fp41m1wlr18l-stroke" data-item-order="0" transform="translate(279.816650390625, 98)"></g><g id="g-root-tx_coderevi_1cvim621wlr0gb-fill" data-item-order="0" transform="translate(157, 100)"><g id="tx_coderevi_1cvim621wlr0gb-fill-merged" stroke="none" fill="#92bd39" fill-opacity="1"><g><text style="font: 12px &quot;Roboto&quot;, sans-serif; white-space: pre;" transform="translate(53, 24)" font-size="12px" font-family="'Roboto', sans-serif"><tspan x="-41" y="0.27" dominant-baseline="ideographic">Code Reviewer </tspan><tspan x="-36.57" y="14.27" dominant-baseline="ideographic">Verifies Docs</tspan></text></g></g></g><g id="g-root-tx_coderevi_1cvim621wlr0gb-stroke" data-item-order="0" transform="translate(157, 100)"></g><g id="g-root-tx_identify_1lqj5bu1wlr2td-fill" data-item-order="0" transform="translate(35.524993896484375, 86)"><g id="tx_identify_1lqj5bu1wlr2td-fill-merged" stroke="none" fill="#4e88e7" fill-opacity="1"><g><text style="font: 12px &quot;Roboto&quot;, sans-serif; white-space: pre;" transform="translate(54.475006103515625, 31)" font-size="12px" font-family="'Roboto', sans-serif"><tspan x="-21.36" y="-6.73" dominant-baseline="ideographic">Identify </tspan><tspan x="-42.47" y="7.27" dominant-baseline="ideographic">Documentation </tspan><tspan x="-15.53" y="21.27" dominant-baseline="ideographic">Need</tspan></text></g></g></g><g id="g-root-tx_identify_1lqj5bu1wlr2td-stroke" data-item-order="0" transform="translate(35.524993896484375, 86)"></g><g id="g-root-ic_1_qs5y2i1wlpmof-fill" data-item-order="0" transform="translate(122, 272)"></g><g id="g-root-ic_1_qs5y2i1wlpmof-stroke" data-item-order="0" transform="translate(122, 272)"><g id="ic_1_qs5y2i1wlpmof-stroke" fill="none" stroke-linecap="round" stroke-linejoin="round" stroke-miterlimit="4" stroke="#3cc583" stroke-width="2" stroke-opacity="1"><g><path d="M 25.813 45.25L 12.313 45.25C 11.484573 45.25 10.813 44.578426 10.813 43.75L 10.813 12.25C 10.813 11.421573 11.484573 10.75 12.313 10.75L 32.252499 10.75C 32.651806 10.752862 33.033489 10.914822 33.313 11.2L 38.873501 16.75C 39.154823 17.031239 39.312912 17.412708 39.313 17.810499L 39.313 24.25M 19.813 20.506001L 15.313 25.006001L 19.813 29.506001M 24.313 20.506001L 28.813 25.006001L 24.313 29.506001M 40.063 36.256001L 45.313 36.256001L 45.313 31.006001M 36.308498 45.25C 31.848988 45.252617 28.194605 41.710941 28.05756 37.253536C 27.920513 32.796127 31.350418 29.036642 35.80167 28.765289C 40.252918 28.493937 44.11409 31.808954 44.519501 36.25M 45.313 31.006001L 45.313 36.256001L 40.063 36.256001"></path></g></g></g><g id="g-root-ic_chec_1upwwxm1wmaosi-fill" data-item-order="0" transform="translate(242, 272)"></g><g id="g-root-ic_chec_1upwwxm1wmaosi-stroke" data-item-order="0" transform="translate(242, 272)"><g id="ic_chec_1upwwxm1wmaosi-stroke" fill="none" stroke-linecap="round" stroke-linejoin="round" stroke-miterlimit="4" stroke="#1eabda" stroke-width="2" stroke-opacity="1"><g><path d="M 40.75 22.75L 40.75 16.75C 40.75 15.921573 40.078426 15.25 39.25 15.25L 24.427 15.25C 23.859001 15.249697 23.339895 14.928595 23.086 14.4205L 21.664 11.5795C 21.410105 11.071405 20.890999 10.750303 20.323 10.75L 12.25 10.75C 11.421573 10.75 10.75 11.421573 10.75 12.25L 10.75 34.75C 10.75 35.578426 11.421573 36.25 12.25 36.25L 22.75 36.25M 27.25 36.25C 27.250002 41.220566 31.279438 45.25 36.25 45.25C 41.220566 45.25 45.25 41.220566 45.25 36.25C 45.25 31.279438 41.220566 27.250002 36.25 27.250002C 31.279438 27.250002 27.250002 31.279438 27.250002 36.25ZM 40.261002 33.633999L 35.9035 39.443501C 35.707451 39.704231 35.408005 39.867184 35.082603 39.890198C 34.757198 39.913216 34.437794 39.794041 34.206997 39.563499L 31.956999 37.313499"></path></g></g></g><g id="g-root-ic_1_v7zd161wm9c7b-fill" data-item-order="0" transform="translate(362, 272)"></g><g id="g-root-ic_1_v7zd161wm9c7b-stroke" data-item-order="0" transform="translate(362, 272)"><g id="ic_1_v7zd161wm9c7b-stroke" fill="none" stroke-linecap="round" stroke-linejoin="round" stroke-miterlimit="4" stroke="#de58a9" stroke-width="2" stroke-opacity="1"><g><path d="M 25.75 45.25L 12.25 45.25C 11.421573 45.25 10.75 44.578426 10.75 43.75L 10.75 12.25C 10.75 11.421573 11.421573 10.75 12.25 10.75L 32.189499 10.75C 32.588806 10.752862 32.97049 10.914822 33.25 11.2L 38.810501 16.75C 39.091827 17.031239 39.249916 17.412708 39.25 17.810499L 39.25 22.75M 19.75 20.506001L 15.25 25.006001L 19.75 29.506001M 24.25 20.506001L 28.75 25.006001L 24.25 29.506001M 27.25 36.256001C 27.250002 41.226563 31.279438 45.256001 36.25 45.256001C 41.220566 45.256001 45.25 41.226563 45.25 36.256001C 45.25 31.285439 41.220566 27.256001 36.25 27.256001C 31.279438 27.256001 27.250002 31.285439 27.250002 36.256001ZM 40.261002 33.6385L 35.9035 39.449501C 35.707451 39.710236 35.408005 39.873184 35.082603 39.896198C 34.757198 39.919216 34.437794 39.800041 34.206997 39.5695L 31.956999 37.3195"></path></g></g></g><g id="g-root-tx_document_140hzui1wm9a8d-fill" data-item-order="0" transform="translate(115.97500610351562, 38)"><g id="tx_document_140hzui1wm9a8d-fill-merged" stroke="none" fill="#484848" fill-opacity="1"><g><text style="font: bold 20px &quot;Roboto&quot;, sans-serif; white-space: pre;" transform="translate(154.02499389648438, 22)" font-weight="bold" font-size="20px" font-family="'Roboto', sans-serif"><tspan x="-142.02" y="12.28" dominant-baseline="ideographic">Documentation Update Process</tspan></text></g></g></g><g id="g-root-tx_document_140hzui1wm9a8d-stroke" data-item-order="0" transform="translate(115.97500610351562, 38)"></g><g id="g-root-tx_prauthor_hrj54q1wlr283-fill" data-item-order="0" transform="translate(94.691650390625, 338)"><g id="tx_prauthor_hrj54q1wlr283-fill-merged" stroke="none" fill="#3cc583" fill-opacity="1"><g><text style="font: 12px &quot;Roboto&quot;, sans-serif; white-space: pre;" transform="translate(55.308349609375, 24)" font-size="12px" font-family="'Roboto', sans-serif"><tspan x="-43.31" y="0.27" dominant-baseline="ideographic">PR Author Runs </tspan><tspan x="-32.56" y="14.27" dominant-baseline="ideographic">Doc Update</tspan></text></g></g></g><g id="g-root-tx_prauthor_hrj54q1wlr283-stroke" data-item-order="0" transform="translate(94.691650390625, 338)"></g><g id="g-root-tx_docsstor_4gp3ui1wlr0n9-fill" data-item-order="0" transform="translate(217.70001220703125, 338)"><g id="tx_docsstor_4gp3ui1wlr0n9-fill-merged" stroke="none" fill="#1eabda" fill-opacity="1"><g><text style="font: 12px &quot;Roboto&quot;, sans-serif; white-space: pre;" transform="translate(52.29998779296875, 31)" font-size="12px" font-family="'Roboto', sans-serif"><tspan x="-40.3" y="-6.73" dominant-baseline="ideographic">Docs Stored in </tspan><tspan x="-32.82" y="7.27" dominant-baseline="ideographic">Appropriate </tspan><tspan x="-24.72" y="21.27" dominant-baseline="ideographic">Location</tspan></text></g></g></g><g id="g-root-tx_docsstor_4gp3ui1wlr0n9-stroke" data-item-order="0" transform="translate(217.70001220703125, 338)"></g><g id="g-root-tx_prtempla_1um65kq1wlr18v-fill" data-item-order="0" transform="translate(342.54998779296875, 338)"><g id="tx_prtempla_1um65kq1wlr18v-fill-merged" stroke="none" fill="#de58a9" fill-opacity="1"><g><text style="font: 12px &quot;Roboto&quot;, sans-serif; white-space: pre;" transform="translate(47.45001220703125, 24)" font-size="12px" font-family="'Roboto', sans-serif"><tspan x="-35.45" y="0.27" dominant-baseline="ideographic">PR Template </tspan><tspan x="-27.77" y="14.27" dominant-baseline="ideographic">Checkbox</tspan></text></g></g></g><g id="g-root-tx_prtempla_1um65kq1wlr18v-stroke" data-item-order="0" transform="translate(342.54998779296875, 338)"></g><g id="g-root-tx_theautho_8vw4vu1wlr30s-fill" data-item-order="0" transform="translate(92.47500610351562, 372)"><g id="tx_theautho_8vw4vu1wlr30s-fill-merged" stroke="none" fill="#484848" fill-opacity="1"><g><text style="font: 10.5px &quot;Roboto&quot;, sans-serif; white-space: pre;" transform="translate(57.524993896484375, 28)" font-size="10.5px" font-family="'Roboto', sans-serif"><tspan x="-45.53" y="-5.3" dominant-baseline="ideographic">The author initiates </tspan><tspan x="-35.33" y="6.7" dominant-baseline="ideographic">the doc update </tspan><tspan x="-19.09" y="18.7" dominant-baseline="ideographic">process</tspan></text></g></g></g><g id="g-root-tx_theautho_8vw4vu1wlr30s-stroke" data-item-order="0" transform="translate(92.47500610351562, 372)"></g><g id="g-root-tx_theautho_1q6cnga1wlr214-fill" data-item-order="0" transform="translate(333.61669921875, 372)"><g id="tx_theautho_1q6cnga1wlr214-fill-merged" stroke="none" fill="#484848" fill-opacity="1"><g><text style="font: 10.5px &quot;Roboto&quot;, sans-serif; white-space: pre;" transform="translate(56.38330078125, 28)" font-size="10.5px" font-family="'Roboto', sans-serif"><tspan x="-44.38" y="-5.3" dominant-baseline="ideographic">The author checks </tspan><tspan x="-43.7" y="6.7" dominant-baseline="ideographic">the box to confirm </tspan><tspan x="-41.8" y="18.7" dominant-baseline="ideographic">docs are updated</tspan></text></g></g></g><g id="g-root-tx_theautho_1q6cnga1wlr214-stroke" data-item-order="0" transform="translate(333.61669921875, 372)"></g><g id="g-root-tx_docsares_4gp3ui1wlr0na-fill" data-item-order="0" transform="translate(213.85833740234375, 386)"><g id="tx_docsares_4gp3ui1wlr0na-fill-merged" stroke="none" fill="#484848" fill-opacity="1"><g><text style="font: 10.5px &quot;Roboto&quot;, sans-serif; white-space: pre;" transform="translate(56.14166259765625, 28)" font-size="10.5px" font-family="'Roboto', sans-serif"><tspan x="-42.84" y="-5.3" dominant-baseline="ideographic">Docs are stored in </tspan><tspan x="-40.06" y="6.7" dominant-baseline="ideographic">public, private, or </tspan><tspan x="-44.14" y="18.7" dominant-baseline="ideographic">internal directories</tspan></text></g></g></g><g id="g-root-tx_docsares_4gp3ui1wlr0na-stroke" data-item-order="0" transform="translate(213.85833740234375, 386)"></g></g></g></svg>