<?xml version="1.0" encoding="utf-8" standalone="yes"?>
<!DOCTYPE svg PUBLIC "-//W3C//DTD SVG 1.1//EN" "http://www.w3.org/Graphics/SVG/1.1/DTD/svg11.dtd">
<svg style="fill:none;stroke:none;fill-rule:evenodd;clip-rule:evenodd;stroke-linecap:round;stroke-linejoin:round;stroke-miterlimit:1.5;" version="1.1" xmlns="http://www.w3.org/2000/svg" xmlns:xlink="http://www.w3.org/1999/xlink" width="607" height="990" viewBox="0 0 607 990"><style class="text-font-style fontImports" data-font-family="Roboto">@import url(https://fonts.googleapis.com/css2?family=Roboto:wght@400;700&amp;amp;display=block);</style><g id="items" style="isolation: isolate"><g id="blend" style="mix-blend-mode: normal"><g id="g-root-cp_2_sign-2_18f20ui1ya2ozz-fill" data-item-order="-572820" transform="translate(324.76666259765625, 236)"><g id="cp_2_sign-2_18f20ui1ya2ozz-fill-merged" stroke="none" fill="#fff2e5" fill-opacity="1"><g><path d="M204.967 10C231.476 10 252.967 31.49 252.967 58C252.967 84.51 231.476 106 204.967 106 H10 V10 H204.967"></path></g></g></g><g id="g-root-cp_2_sign-2_18f20ui1ya2ozz-stroke" data-item-order="-572820" transform="translate(324.76666259765625, 236)"><g id="cp_2_sign-2_18f20ui1ya2ozz-stroke" fill="none" stroke-linecap="round" stroke-linejoin="round" stroke-miterlimit="4" stroke="#de8431" stroke-width="2" stroke-opacity="1"><g><path d="M 204.966675 106L 10 106M 10 10L 204.966675 10M 204.966675 10C 231.476375 10 252.966675 31.4903 252.966675 58C 252.966675 84.5097 231.476375 106 204.966675 106M 10 106L 10 10"></path></g></g></g><g id="g-root-cp_4_sign-4_13zuzt61ya2mmg-fill" data-item-order="-572792" transform="translate(324.76666259765625, 476)"><g id="cp_4_sign-4_13zuzt61ya2mmg-fill-merged" stroke="none" fill="#ffebf7" fill-opacity="1"><g><path d="M209.7 10C236.21 10 257.7 31.49 257.7 58C257.7 84.51 236.21 106 209.7 106 H10 V10 H209.7"></path></g></g></g><g id="g-root-cp_4_sign-4_13zuzt61ya2mmg-stroke" data-item-order="-572792" transform="translate(324.76666259765625, 476)"><g id="cp_4_sign-4_13zuzt61ya2mmg-stroke" fill="none" stroke-linecap="round" stroke-linejoin="round" stroke-miterlimit="4" stroke="#de58a9" stroke-width="2" stroke-opacity="1"><g><path d="M 209.700012 106L 10 106M 10 10L 209.700012 10M 209.700012 10C 236.209712 10 257.700012 31.4903 257.700012 58C 257.700012 84.5097 236.209712 106 209.700012 106M 10 106L 10 10"></path></g></g></g><g id="g-root-cp_6_sign-6_zk1hoq1ya2nep-fill" data-item-order="-572768" transform="translate(324.76666259765625, 716)"><g id="cp_6_sign-6_zk1hoq1ya2nep-fill-merged" stroke="none" fill="#edf4ff" fill-opacity="1"><g><path d="M198.8 10C225.31 10 246.8 31.49 246.8 58C246.8 84.51 225.31 106 198.8 106 H10 V10 H198.8"></path></g></g></g><g id="g-root-cp_6_sign-6_zk1hoq1ya2nep-stroke" data-item-order="-572768" transform="translate(324.76666259765625, 716)"><g id="cp_6_sign-6_zk1hoq1ya2nep-stroke" fill="none" stroke-linecap="round" stroke-linejoin="round" stroke-miterlimit="4" stroke="#4e88e7" stroke-width="2" stroke-opacity="1"><g><path d="M 198.799988 106L 10 106M 10 10L 198.799988 10M 198.799988 10C 225.309688 10 246.799988 31.4903 246.799988 58C 246.799988 84.5097 225.309688 106 198.799988 106M 10 106L 10 10"></path></g></g></g><g id="g-root-cp_1_sign-1_qoehfu1ya2o7e-fill" data-item-order="-572748" transform="translate(55.183349609375, 116)"><g id="cp_1_sign-1_qoehfu1ya2o7e-fill-merged" stroke="none" fill="#fffbda" fill-opacity="1"><g><path d="M58 106C31.49 106 10 84.51 10 58C10 31.49 31.49 10 58 10 H279.583 V106 H58"></path></g></g></g><g id="g-root-cp_1_sign-1_qoehfu1ya2o7e-stroke" data-item-order="-572748" transform="translate(55.183349609375, 116)"><g id="cp_1_sign-1_qoehfu1ya2o7e-stroke" fill="none" stroke-linecap="round" stroke-linejoin="round" stroke-miterlimit="4" stroke="#e0cb15" stroke-width="2" stroke-opacity="1"><g><path d="M 58 10L 279.583313 10M 279.583313 106L 58 106M 58 106C 31.4903 106 10 84.5097 10 58C 10 31.4903 31.4903 10 58 10M 279.583313 10L 279.583313 106"></path></g></g></g><g id="g-root-cp_3_sign-3_m8kzbe1ya2ozn-fill" data-item-order="-572724" transform="translate(69.41668701171875, 356)"><g id="cp_3_sign-3_m8kzbe1ya2ozn-fill-merged" stroke="none" fill="#ffeceb" fill-opacity="1"><g><path d="M58 106C31.49 106 10 84.51 10 58C10 31.49 31.49 10 58 10 H265.35 V106 H58"></path></g></g></g><g id="g-root-cp_3_sign-3_m8kzbe1ya2ozn-stroke" data-item-order="-572724" transform="translate(69.41668701171875, 356)"><g id="cp_3_sign-3_m8kzbe1ya2ozn-stroke" fill="none" stroke-linecap="round" stroke-linejoin="round" stroke-miterlimit="4" stroke="#e55753" stroke-width="2" stroke-opacity="1"><g><path d="M 57.999969 10L 265.349975 10M 265.349975 106L 57.999969 106M 57.999969 106C 31.490269 106 9.999969 84.5097 9.999969 58C 9.999969 31.4903 31.490269 10 57.999969 10M 265.349975 10L 265.349975 106"></path></g></g></g><g id="g-root-cp_7_sign-7_m8kzbe1ya2ozo-fill" data-item-order="-572704" transform="translate(65.2166748046875, 836)"><g id="cp_7_sign-7_m8kzbe1ya2ozo-fill-merged" stroke="none" fill="#e8f9ff" fill-opacity="1"><g><path d="M58 106C31.49 106 10 84.51 10 58C10 31.49 31.49 10 58 10 H269.55 V106 H58"></path></g></g></g><g id="g-root-cp_7_sign-7_m8kzbe1ya2ozo-stroke" data-item-order="-572704" transform="translate(65.2166748046875, 836)"><g id="cp_7_sign-7_m8kzbe1ya2ozo-stroke" fill="none" stroke-linecap="round" stroke-linejoin="round" stroke-miterlimit="4" stroke="#1eabda" stroke-width="2" stroke-opacity="1"><g><path d="M 58 10L 269.549988 10M 269.549988 106L 58 106M 58 106C 31.4903 106 10 84.5097 10 58C 10 31.4903 31.4903 10 58 10M 269.549988 10L 269.549988 106"></path></g></g></g><g id="g-root-cp_5_sign-5_ddkg5m1ya2mml-fill" data-item-order="-572680" transform="translate(14, 596)"><g id="cp_5_sign-5_ddkg5m1ya2mml-fill-merged" stroke="none" fill="#faf0ff" fill-opacity="1"><g><path d="M58 106C31.49 106 10 84.51 10 58C10 31.49 31.49 10 58 10 H320.767 V106 H58"></path></g></g></g><g id="g-root-cp_5_sign-5_ddkg5m1ya2mml-stroke" data-item-order="-572680" transform="translate(14, 596)"><g id="cp_5_sign-5_ddkg5m1ya2mml-stroke" fill="none" stroke-linecap="round" stroke-linejoin="round" stroke-miterlimit="4" stroke="#ba5de5" stroke-width="2" stroke-opacity="1"><g><path d="M 58 10L 320.766663 10M 320.766663 106L 58 106M 58 106C 31.4903 106 10 84.5097 10 58C 10 31.4903 31.4903 10 58 10M 320.766663 10L 320.766663 106"></path></g></g></g><g id="g-root-tx_placecla_v6pvwq1ya8a32-fill" data-item-order="0" transform="translate(112.066650390625, 266)"><g id="tx_placecla_v6pvwq1ya8a32-fill-merged" stroke="none" fill="#484848" fill-opacity="1"><g><text style="font: 15px &quot;Roboto&quot;, sans-serif; white-space: pre;" transform="translate(210.70001220703125, 28)" font-size="15px" font-family="'Roboto', sans-serif"><tspan x="-198.7" y="0.5" dominant-baseline="ideographic">Place `CLAUDE.md` file at the </tspan><tspan x="-145.08" y="18.5" dominant-baseline="ideographic">root of the repository.</tspan></text></g></g></g><g id="g-root-tx_placecla_v6pvwq1ya8a32-stroke" data-item-order="0" transform="translate(112.066650390625, 266)"></g><g id="g-root-tx_addclaud_mfg79m1ya2nep-fill" data-item-order="0" transform="translate(336.76666259765625, 272)"><g id="tx_addclaud_mfg79m1ya2nep-fill-merged" stroke="none" fill="#de8431" fill-opacity="1"><g><text style="font: 20px &quot;Roboto&quot;, sans-serif; white-space: pre;" transform="translate(10, 22)" font-size="20px" font-family="'Roboto', sans-serif"><tspan x="2" y="12.28" dominant-baseline="ideographic">Add CLAUDE.md</tspan></text></g></g></g><g id="g-root-tx_addclaud_mfg79m1ya2nep-stroke" data-item-order="0" transform="translate(336.76666259765625, 272)"></g><g id="g-root-ic_text_1cwqy8a1ya2o00-fill" data-item-order="0" transform="translate(501.73333740234375, 266)"></g><g id="g-root-ic_text_1cwqy8a1ya2o00-stroke" data-item-order="0" transform="translate(501.73333740234375, 266)"><g id="ic_text_1cwqy8a1ya2o00-stroke" fill="none" stroke-linecap="round" stroke-linejoin="round" stroke-miterlimit="4" stroke="#de8431" stroke-width="2" stroke-opacity="1"><g><path d="M 41.810501 16.75C 42.091827 17.031239 42.249916 17.412708 42.25 17.810499L 42.25 43.75C 42.25 44.578426 41.578426 45.25 40.75 45.25L 15.25 45.25C 14.421573 45.25 13.75 44.578426 13.75 43.75L 13.75 12.25C 13.75 11.421573 14.421573 10.75 15.25 10.75L 35.189499 10.75C 35.587292 10.750085 35.968761 10.908176 36.25 11.1895ZM 19 34L 37 34M 19 38.5L 37 38.5M 19 29.5L 37 29.5M 19 25L 37 25M 19 20.5L 29.5 20.5M 19 20.5L 29.5 20.5M 19 25L 37 25M 19 29.5L 37 29.5M 19 34L 37 34M 19 38.5L 37 38.5"></path></g></g></g><g id="g-root-ic_sett_1cz8ukq1ya89vz-fill" data-item-order="0" transform="translate(99.41665649414062, 386)"></g><g id="g-root-ic_sett_1cz8ukq1ya89vz-stroke" data-item-order="0" transform="translate(99.41665649414062, 386)"><g id="ic_sett_1cz8ukq1ya89vz-stroke" fill="none" stroke-linecap="round" stroke-linejoin="round" stroke-miterlimit="4" stroke="#e55753" stroke-width="2" stroke-opacity="1"><g><path d="M 24.25 45.25L 12.25 45.25C 11.421573 45.25 10.75 44.578426 10.75 43.75L 10.75 12.25C 10.75 11.421573 11.421573 10.75 12.25 10.75L 32.189499 10.75C 32.587292 10.750085 32.968761 10.908176 33.25 11.1895L 38.810501 16.75C 39.091827 17.031239 39.249916 17.412708 39.25 17.810499L 39.25 22.75M 28.9105 26.335001L 21.454 22.320999C 21.098915 22.123055 20.665541 22.128044 20.315105 22.334108C 19.964672 22.540174 19.749636 22.91647 19.75 23.323L 19.75 31.927C 19.749636 32.333527 19.964672 32.709824 20.315105 32.91589C 20.665541 33.121956 21.098915 33.126942 21.453999 32.929001L 24.716499 30.922001M 34.469498 35.546501C 34.469501 36.736954 35.434551 37.702 36.625 37.702C 37.815453 37.702 38.780502 36.736954 38.780502 35.546501C 38.780502 34.356052 37.815453 33.391003 36.625 33.391003C 35.434551 33.391003 34.469501 34.356052 34.469501 35.546501ZM 38.456501 27.205L 39.092499 29.293001C 39.308815 30.012587 40.046242 30.441 40.778503 30.272501L 42.8965 29.782C 43.719906 29.596405 44.568153 29.969009 44.988518 30.700949C 45.408882 31.432888 45.303253 32.353321 44.728001 32.971001L 43.245998 34.568501C 42.738937 35.11961 42.738937 35.967388 43.245998 36.518497L 44.728001 38.115997C 45.303253 38.733681 45.408882 39.654114 44.988518 40.386051C 44.568153 41.117989 43.719906 41.490597 42.8965 41.305L 40.7785 40.813C 40.04678 40.651173 39.314297 41.081894 39.099998 41.800003L 38.464001 43.888C 38.220936 44.696384 37.476635 45.249805 36.6325 45.249805C 35.788364 45.249805 35.044064 44.696384 34.801003 43.888L 34.157501 41.800003C 33.939941 41.081398 33.203526 40.653564 32.4715 40.820503L 30.3535 41.3125C 29.530094 41.498093 28.681847 41.125492 28.261482 40.393551C 27.841116 39.661613 27.946747 38.74118 28.522001 38.123501L 30.004002 36.526001C 30.511059 35.974888 30.511059 35.127113 30.004 34.575996L 28.521999 32.9785C 27.946747 32.360821 27.841116 31.440388 28.261482 30.708447C 28.681847 29.976509 29.530094 29.603905 30.3535 29.789499L 32.4715 30.280001C 33.203762 30.448502 33.941185 30.020086 34.157501 29.300501L 34.793499 27.212502C 35.034904 26.403614 35.778076 25.848663 36.622211 25.846935C 37.466351 25.845207 38.211784 26.39711 38.456501 27.205Z"></path></g></g></g><g id="g-root-tx_configur_1q6yll61y9n7d6-fill" data-item-order="0" transform="translate(147.41668701171875, 392)"><g id="tx_configur_1q6yll61y9n7d6-fill-merged" stroke="none" fill="#e55753" fill-opacity="1"><g><text style="font: 20px &quot;Roboto&quot;, sans-serif; white-space: pre;" transform="translate(175.3499755859375, 22)" font-size="20px" font-family="'Roboto', sans-serif"><tspan x="-163.35" y="12.28" dominant-baseline="ideographic">Configure GitBook</tspan></text></g></g></g><g id="g-root-tx_configur_1q6yll61y9n7d6-stroke" data-item-order="0" transform="translate(147.41668701171875, 392)"></g><g id="g-root-tx_addgitbo_8z5qi1ya2mmi-fill" data-item-order="0" transform="translate(336.76666259765625, 386)"><g id="tx_addgitbo_8z5qi1ya2mmi-fill-merged" stroke="none" fill="#484848" fill-opacity="1"><g><text style="font: 15px &quot;Roboto&quot;, sans-serif; white-space: pre;" transform="translate(10, 28)" font-size="15px" font-family="'Roboto', sans-serif"><tspan x="2" y="0.5" dominant-baseline="ideographic">Add `.gitbook.yaml` file pointing </tspan><tspan x="2" y="18.5" dominant-baseline="ideographic">to the `docs/users/` directory.</tspan></text></g></g></g><g id="g-root-tx_addgitbo_8z5qi1ya2mmi-stroke" data-item-order="0" transform="translate(336.76666259765625, 386)"></g><g id="g-root-tx_createdo_1lsdyh61ya2mfj-fill" data-item-order="0" transform="translate(336.76666259765625, 137)"><g id="tx_createdo_1lsdyh61ya2mfj-fill-merged" stroke="none" fill="#484848" fill-opacity="1"><g><text style="font: 15px &quot;Roboto&quot;, sans-serif; white-space: pre;" transform="translate(10, 37)" font-size="15px" font-family="'Roboto', sans-serif"><tspan x="2" y="-8.5" dominant-baseline="ideographic">Create `docs/users/`, `docs/</tspan><tspan x="2" y="9.5" dominant-baseline="ideographic">dev/`, and `docs/internal/` </tspan><tspan x="2" y="27.5" dominant-baseline="ideographic">directories.</tspan></text></g></g></g><g id="g-root-tx_createdo_1lsdyh61ya2mfj-stroke" data-item-order="0" transform="translate(336.76666259765625, 137)"></g><g id="g-root-ic_pen_18nso221ya2mfg-fill" data-item-order="0" transform="translate(506.4666748046875, 506)"></g><g id="g-root-ic_pen_18nso221ya2mfg-stroke" data-item-order="0" transform="translate(506.4666748046875, 506)"><g id="ic_pen_18nso221ya2mfg-stroke" fill="none" stroke-linecap="round" stroke-linejoin="round" stroke-miterlimit="4" stroke="#de58a9" stroke-width="2" stroke-opacity="1"><g><path d="M 33.25 43.75C 33.25 44.578426 32.578426 45.25 31.75 45.25L 16.75 45.25C 15.921573 45.25 15.25 44.578426 15.25 43.75L 15.25 19.75L 33.25 19.75ZM 12.25 34.75C 11.421573 34.75 10.75 34.078426 10.75 33.25L 10.75 15.25C 10.75 12.764719 12.764719 10.75 15.25 10.75C 17.735281 10.75 19.75 12.764719 19.75 15.25C 19.75 17.735281 17.735281 19.75 15.25 19.75M 33.25 19.75C 35.735283 19.75 37.75 17.735281 37.75 15.25C 37.75 12.764719 35.735283 10.75 33.25 10.75L 15.25 10.75M 24.25 25.75L 30.25 25.75M 24.25 31.75L 30.25 31.75M 24.25 37.75L 30.25 37.75M 18.25 25L 19 25.75L 22 22.75M 18.25 31L 19 31.75L 22 28.75M 45.25 43C 45.25 44.242641 44.242641 45.25 43 45.25C 41.757362 45.25 40.75 44.242641 40.75 43L 40.75 21.25C 40.75 20.00736 41.757362 19 43 19C 44.242641 19 45.25 20.00736 45.25 21.25ZM 40.75 42.25L 45.25 42.25M 40.75 31.75L 45.25 31.75M 37.75 34L 37.75 22.75C 37.75 21.50736 38.757362 20.5 40 20.5L 40.879002 20.5"></path></g></g></g><g id="g-root-tx_createap_1d2db621y9n7d2-fill" data-item-order="0" transform="translate(103.23333740234375, 497)"><g id="tx_createap_1d2db621y9n7d2-fill-merged" stroke="none" fill="#484848" fill-opacity="1"><g><text style="font: 15px &quot;Roboto&quot;, sans-serif; white-space: pre;" transform="translate(219.5333251953125, 37)" font-size="15px" font-family="'Roboto', sans-serif"><tspan x="-207.53" y="-8.5" dominant-baseline="ideographic">Create a Pull Request template </tspan><tspan x="-132.08" y="9.5" dominant-baseline="ideographic">with a checkbox for </tspan><tspan x="-164.63" y="27.5" dominant-baseline="ideographic">documentation updates.</tspan></text></g></g></g><g id="g-root-tx_createap_1d2db621y9n7d2-stroke" data-item-order="0" transform="translate(103.23333740234375, 497)"></g><g id="g-root-tx_addprtem_qriuve1ya5g5h-fill" data-item-order="0" transform="translate(336.76666259765625, 512)"><g id="tx_addprtem_qriuve1ya5g5h-fill-merged" stroke="none" fill="#de58a9" fill-opacity="1"><g><text style="font: 20px &quot;Roboto&quot;, sans-serif; white-space: pre;" transform="translate(10, 22)" font-size="20px" font-family="'Roboto', sans-serif"><tspan x="2" y="12.28" dominant-baseline="ideographic">Add PR Template</tspan></text></g></g></g><g id="g-root-tx_addprtem_qriuve1ya5g5h-stroke" data-item-order="0" transform="translate(336.76666259765625, 512)"></g><g id="g-root-tx_scaffold_18hjx6y1ya8bnx-fill" data-item-order="0" transform="translate(133.183349609375, 152)"><g id="tx_scaffold_18hjx6y1ya8bnx-fill-merged" stroke="none" fill="#e0cb15" fill-opacity="1"><g><text style="font: 20px &quot;Roboto&quot;, sans-serif; white-space: pre;" transform="translate(189.58331298828125, 22)" font-size="20px" font-family="'Roboto', sans-serif"><tspan x="-177.58" y="12.28" dominant-baseline="ideographic">Scaffold Directories</tspan></text></g></g></g><g id="g-root-tx_scaffold_18hjx6y1ya8bnx-stroke" data-item-order="0" transform="translate(133.183349609375, 152)"></g><g id="g-root-ic_1_zqwssq1y9n8xz-fill" data-item-order="0" transform="translate(44, 626)"></g><g id="g-root-ic_1_zqwssq1y9n8xz-stroke" data-item-order="0" transform="translate(44, 626)"><g id="ic_1_zqwssq1y9n8xz-stroke" fill="none" stroke-linecap="round" stroke-linejoin="round" stroke-miterlimit="4" stroke="#ba5de5" stroke-width="2" stroke-opacity="1"><g><path d="M 22.813 45.25L 12.313 45.25C 11.484573 45.25 10.813 44.578426 10.813 43.75L 10.813 12.25C 10.813 11.421573 11.484573 10.75 12.313 10.75L 32.252499 10.75C 32.651806 10.752862 33.033489 10.914822 33.313 11.2L 38.873501 16.75C 39.154823 17.031239 39.312912 17.412708 39.313 17.810499L 39.313 22.75M 19.813 20.506001L 15.313 25.006001L 19.813 29.506001M 24.313 20.506001L 28.813 25.006001L 24.313 29.506001M 44.383003 32.684502L 32.938 44.131001L 27.313 45.256001L 28.438 39.631001L 39.883003 28.1845C 41.121925 26.945625 43.130573 26.945625 44.369499 28.1845L 44.383003 28.198C 45.62188 29.436928 45.62188 31.445572 44.383003 32.684502Z"></path></g></g></g><g id="g-root-tx_editinst_mb2ytm1y9olc9-fill" data-item-order="0" transform="translate(92, 632)"><g id="tx_editinst_mb2ytm1y9olc9-fill-merged" stroke="none" fill="#ba5de5" fill-opacity="1"><g><text style="font: 20px &quot;Roboto&quot;, sans-serif; white-space: pre;" transform="translate(230.76666259765625, 22)" font-size="20px" font-family="'Roboto', sans-serif"><tspan x="-218.77" y="12.28" dominant-baseline="ideographic">Edit Instrumentation File</tspan></text></g></g></g><g id="g-root-tx_editinst_mb2ytm1y9olc9-stroke" data-item-order="0" transform="translate(92, 632)"></g><g id="g-root-tx_openapul_dg2ci21ya5hqe-fill" data-item-order="0" transform="translate(336.76666259765625, 617)"><g id="tx_openapul_dg2ci21ya5hqe-fill-merged" stroke="none" fill="#484848" fill-opacity="1"><g><text style="font: 15px &quot;Roboto&quot;, sans-serif; white-space: pre;" transform="translate(10, 37)" font-size="15px" font-family="'Roboto', sans-serif"><tspan x="2" y="-8.5" dominant-baseline="ideographic">Open a Pull Request that edits </tspan><tspan x="2" y="9.5" dominant-baseline="ideographic">the `instrumentation/ppr-</tspan><tspan x="2" y="27.5" dominant-baseline="ideographic">emitter.js` file.</tspan></text></g></g></g><g id="g-root-tx_openapul_dg2ci21ya5hqe-stroke" data-item-order="0" transform="translate(336.76666259765625, 617)"></g><g id="g-root-ic_orga_dg2ci21ya6v4a-fill" data-item-order="0" transform="translate(85.183349609375, 146)"></g><g id="g-root-ic_orga_dg2ci21ya6v4a-stroke" data-item-order="0" transform="translate(85.183349609375, 146)"><g id="ic_orga_dg2ci21ya6v4a-stroke" fill="none" stroke-linecap="round" stroke-linejoin="round" stroke-miterlimit="4" stroke="#e0cb15" stroke-width="2" stroke-opacity="1"><g><path d="M 10 10M 35.050003 23.275015L 27.549999 27.474998L 20.049925 23.275015L 20.049925 15.17497L 27.549999 11.125L 35.050003 15.17497L 35.050003 23.275015ZM 10 10M 35.050003 15.175301L 27.549999 19.375315L 20.049925 15.175301M 27.549999 19.375L 27.549999 27.47485M 27.549999 30.77515L 27.549999 37.375149M 15.09985 37.375L 15.09985 34.386101C 15.09985 33.389801 15.69985 32.725601 16.59985 32.725601L 39.09985 32.725601C 39.999851 32.725601 40.59985 33.389801 40.59985 34.386101L 40.59985 37.375M 31.299999 43.375C 31.299999 44.275002 30.700001 44.875 29.799999 44.875L 25.299999 44.875C 24.399925 44.875 23.799925 44.275002 23.799925 43.375L 23.799925 38.875C 23.799925 37.974998 24.399925 37.375 25.299999 37.375L 29.799999 37.375C 30.700001 37.375 31.299999 37.974998 31.299999 38.875L 31.299999 43.375ZM 19 43.375C 19 44.275002 18.4 44.875 17.5 44.875L 13 44.875C 12.1 44.875 11.5 44.275002 11.5 43.375L 11.5 38.875C 11.5 37.974998 12.1 37.375 13 37.375L 17.5 37.375C 18.4 37.375 19 37.974998 19 38.875L 19 43.375ZM 44.5 43.375C 44.5 44.275002 43.900002 44.875 43 44.875L 38.5 44.875C 37.599998 44.875 37 44.275002 37 43.375L 37 38.875C 37 37.974998 37.599998 37.375 38.5 37.375L 43 37.375C 43.900002 37.375 44.5 37.974998 44.5 38.875L 44.5 43.375Z"></path></g></g></g><g id="g-root-tx_mergethe_1lympca1ya2o0b-fill" data-item-order="0" transform="translate(336.76666259765625, 848)"><g id="tx_mergethe_1lympca1ya2o0b-fill-merged" stroke="none" fill="#484848" fill-opacity="1"><g><text style="font: 15px &quot;Roboto&quot;, sans-serif; white-space: pre;" transform="translate(10, 46)" font-size="15px" font-family="'Roboto', sans-serif"><tspan x="2" y="-17.5" dominant-baseline="ideographic">Merge the changes into the </tspan><tspan x="2" y="0.5" dominant-baseline="ideographic">`main` branch, and GitBook will </tspan><tspan x="2" y="18.5" dominant-baseline="ideographic">automatically publish the </tspan><tspan x="2" y="36.5" dominant-baseline="ideographic">documentation.</tspan></text></g></g></g><g id="g-root-tx_mergethe_1lympca1ya2o0b-stroke" data-item-order="0" transform="translate(336.76666259765625, 848)"></g><g id="g-root-tx_executet_8zmgga1y9omx6-fill" data-item-order="0" transform="translate(99.76666259765625, 737)"><g id="tx_executet_8zmgga1y9omx6-fill-merged" stroke="none" fill="#484848" fill-opacity="1"><g><text style="font: 15px &quot;Roboto&quot;, sans-serif; white-space: pre;" transform="translate(223, 37)" font-size="15px" font-family="'Roboto', sans-serif"><tspan x="-174" y="-8.5" dominant-baseline="ideographic">Execute the `/doc-update` </tspan><tspan x="-211" y="9.5" dominant-baseline="ideographic">command, review the draft, and </tspan><tspan x="-142.52" y="27.5" dominant-baseline="ideographic">commit the changes.</tspan></text></g></g></g><g id="g-root-tx_executet_8zmgga1y9omx6-stroke" data-item-order="0" transform="translate(99.76666259765625, 737)"></g><g id="g-root-tx_rundocup_qqwdsa1ya6wp5-fill" data-item-order="0" transform="translate(336.76666259765625, 752)"><g id="tx_rundocup_qqwdsa1ya6wp5-fill-merged" stroke="none" fill="#4e88e7" fill-opacity="1"><g><text style="font: 20px &quot;Roboto&quot;, sans-serif; white-space: pre;" transform="translate(10, 22)" font-size="20px" font-family="'Roboto', sans-serif"><tspan x="2" y="12.28" dominant-baseline="ideographic">Run Doc Update</tspan></text></g></g></g><g id="g-root-tx_rundocup_qqwdsa1ya6wp5-stroke" data-item-order="0" transform="translate(336.76666259765625, 752)"></g><g id="g-root-tx_document_8xqy161ya2neu-fill" data-item-order="0" transform="translate(158.60000610351562, 38)"><g id="tx_document_8xqy161ya2neu-fill-merged" stroke="none" fill="#484848" fill-opacity="1"><g><text style="font: bold 25px &quot;Roboto&quot;, sans-serif; white-space: pre;" transform="translate(176.16665649414062, 25)" font-weight="bold" font-size="25px" font-family="'Roboto', sans-serif"><tspan x="-164.17" y="15.08" dominant-baseline="ideographic">Documentation Update Steps</tspan></text></g></g></g><g id="g-root-tx_document_8xqy161ya2neu-stroke" data-item-order="0" transform="translate(158.60000610351562, 38)"></g><g id="g-root-ic_arro_1cxdih61y9n7yb-fill" data-item-order="0" transform="translate(95.2166748046875, 866)"></g><g id="g-root-ic_arro_1cxdih61y9n7yb-stroke" data-item-order="0" transform="translate(95.2166748046875, 866)"><g id="ic_arro_1cxdih61y9n7yb-stroke" fill="none" stroke-linecap="round" stroke-linejoin="round" stroke-miterlimit="4" stroke="#1eabda" stroke-width="2" stroke-opacity="1"><g><path d="M 20.46097 19.50391L 17.70508 19.50391C 14.39137 19.50391 11.70508 22.190199 11.70508 25.503851L 11.70508 33.34375C 11.70508 36.657402 14.39137 39.34375 17.70508 39.34375L 26.322401 39.34375M 39.1684 27.783699C 41.96545 27.783699 44.296448 25.3363 44.296448 22.539206C 44.296448 19.742125 41.96545 17.411215 39.1684 17.411215C 38.11945 17.411215 37.070648 17.760851 36.254799 18.343584C 35.5555 14.730685 32.408802 11.93359 28.562801 11.93359C 24.250599 11.93359 20.637701 15.429955 20.637701 19.858675C 20.637701 24.287395 24.13405 27.783699 28.562801 27.783699L 39.1684 27.783699ZM 10 10M 33.33205 39.34375L 44.294952 39.34375M 10 10M 22.108406 34.621151L 26.82955 39.339401L 22.108406 44.06065M 10 10M 37.521549 44.066349L 32.799252 39.34705L 37.521549 34.624748"></path></g></g></g><g id="g-root-tx_mergeand_1ut0ukq1y9n85p-fill" data-item-order="0" transform="translate(143.2166748046875, 872)"><g id="tx_mergeand_1ut0ukq1y9n85p-fill-merged" stroke="none" fill="#1eabda" fill-opacity="1"><g><text style="font: 20px &quot;Roboto&quot;, sans-serif; white-space: pre;" transform="translate(179.54998779296875, 22)" font-size="20px" font-family="'Roboto', sans-serif"><tspan x="-167.55" y="12.28" dominant-baseline="ideographic">Merge and Publish</tspan></text></g></g></g><g id="g-root-tx_mergeand_1ut0ukq1y9n85p-stroke" data-item-order="0" transform="translate(143.2166748046875, 872)"></g><g id="g-root-ic_3_1qapcy21ya5gr3-fill" data-item-order="0" transform="translate(495.566650390625, 746)"></g><g id="g-root-ic_3_1qapcy21ya5gr3-stroke" data-item-order="0" transform="translate(495.566650390625, 746)"><g id="ic_3_1qapcy21ya5gr3-stroke" fill="none" stroke-linecap="round" stroke-linejoin="round" stroke-miterlimit="4" stroke="#4e88e7" stroke-width="2" stroke-opacity="1"><g><path d="M 10.75 33.25L 13.75 33.25C 14.578427 33.25 15.25 33.921574 15.25 34.75L 15.25 43.75C 15.25 44.578426 14.578427 45.25 13.75 45.25L 10.75 45.25M 15.25 43.75L 37.75 43.75C 37.75 41.264721 35.735283 39.25 33.25 39.25L 22.75 39.25M 15.25 34.75L 22.75 34.75C 25.235283 34.75 27.25 36.764717 27.25 39.25L 27.25 39.25M 11.875 41.5C 12.082107 41.5 12.25 41.667892 12.25 41.875C 12.25 42.082108 12.082107 42.25 11.875 42.25C 11.667893 42.25 11.5 42.082108 11.5 41.875C 11.5 41.667892 11.667893 41.5 11.875 41.5M 21.25 30.25L 21.25 12.25C 21.25 11.421573 21.921574 10.75 22.75 10.75L 38.629002 10.75C 39.026791 10.750085 39.40826 10.908176 39.689499 11.1895L 44.810501 16.310499C 45.091827 16.59174 45.249916 16.973207 45.25 17.371L 45.25 39.25C 45.25 40.078426 44.578426 40.75 43.75 40.75L 41.5 40.75"></path></g></g></g></g></g></svg>