<svg xmlns="http://www.w3.org/2000/svg" xmlns:xlink="http://www.w3.org/1999/xlink" xmlns:lucid="lucid" width="2102" height="482"><g transform="translate(51 -29)" lucid:page-tab-id="page1"><path d="M-50 35a5 5 0 0 1 5-5h2090a5 5 0 0 1 5 5v470a5 5 0 0 1-5 5H-45a5 5 0 0 1-5-5z" stroke="#000" stroke-width="2" fill-opacity="0"/><path d="M150 230c22.1 0 40 17.9 40 40s-17.9 40-40 40H70c-22.1 0-40-17.9-40-40s17.9-40 40-40z" stroke="#000" stroke-width="2" fill="#fff"/><use xlink:href="#a" transform="matrix(1,0,0,1,35,235) translate(37.509582111858364 25.374547335747543)"/><use xlink:href="#b" transform="matrix(1,0,0,1,35,235) translate(16.972707938150254 55.967408173823074)"/><use xlink:href="#c" transform="matrix(1,0,0,1,35,235) translate(77.8043455768236 55.967408173823074)"/><path d="M230 236a6 6 0 0 1 6-6h148a6 6 0 0 1 6 6v68a6 6 0 0 1-6 6H236a6 6 0 0 1-6-6z" stroke="#000" stroke-width="2" fill="#fff"/><use xlink:href="#d" transform="matrix(1,0,0,1,242,242) translate(7.9643334819438225 19.331054639124186)"/><use xlink:href="#e" transform="matrix(1,0,0,1,242,242) translate(67.77312131569822 19.331054639124186)"/><use xlink:href="#f" transform="matrix(1,0,0,1,242,242) translate(104.32971714469707 19.331054639124186)"/><use xlink:href="#g" transform="matrix(1,0,0,1,242,242) translate(44.61247337395353 45.69574478624857)"/><path d="M430 236a6 6 0 0 1 6-6h148a6 6 0 0 1 6 6v68a6 6 0 0 1-6 6H436a6 6 0 0 1-6-6z" stroke="#000" stroke-width="2" fill="#fff"/><use xlink:href="#h" transform="matrix(1,0,0,1,442,242) translate(5.004408777926381 19.331054639124186)"/><use xlink:href="#i" transform="matrix(1,0,0,1,442,242) translate(47.66394214098181 45.69574478624857)"/><path d="M630 236a6 6 0 0 1 6-6h188a6 6 0 0 1 6 6v68a6 6 0 0 1-6 6H636a6 6 0 0 1-6-6z" stroke="#000" stroke-width="2" fill="#fff"/><use xlink:href="#j" transform="matrix(1,0,0,1,642,242) translate(4.790529265451327 22.675010232675298)"/><use xlink:href="#k" transform="matrix(1,0,0,1,642,242) translate(52.812191051919015 22.675010232675298)"/><use xlink:href="#l" transform="matrix(1,0,0,1,642,242) translate(91.56311199269544 22.675010232675298)"/><use xlink:href="#m" transform="matrix(1,0,0,1,642,242) translate(53.70435439690186 39.43216523409213)"/><use xlink:href="#n" transform="matrix(1,0,0,1,642,242) translate(80.85715185290137 39.43216523409213)"/><use xlink:href="#o" transform="matrix(1,0,0,1,642,242) translate(104.09218853310666 39.43216523409213)"/><path d="M955 213.33a9 9 0 0 1 10 0l80 53.34a4 4 0 0 1 0 6.66l-80 53.34a9 9 0 0 1-10 0l-80-53.34a4 4 0 0 1 0-6.66z" stroke="#000" stroke-width="2" fill="#fff"/><use xlink:href="#p" transform="matrix(1,0,0,1,875,215) translate(40.52587329780935 43.01087921847248)"/><use xlink:href="#q" transform="matrix(1,0,0,1,875,215) translate(33.45739096112097 70.52064831261103)"/><use xlink:href="#r" transform="matrix(1,0,0,1,875,215) translate(98.3473324123413 70.52064831261103)"/><path d="M1090 116a6 6 0 0 1 6-6h188a6 6 0 0 1 6 6v68a6 6 0 0 1-6 6h-188a6 6 0 0 1-6-6z" stroke="#000" stroke-width="2" fill="#fff"/><use xlink:href="#s" transform="matrix(1,0,0,1,1102,122) translate(3.462539462539468 21.664587664587664)"/><use xlink:href="#t" transform="matrix(1,0,0,1,1102,122) translate(62.1834141834142 21.664587664587664)"/><use xlink:href="#u" transform="matrix(1,0,0,1,1102,122) translate(130.34326634326635 21.664587664587664)"/><use xlink:href="#v" transform="matrix(1,0,0,1,1102,122) translate(38.467390467390466 42.15523215523216)"/><use xlink:href="#w" transform="matrix(1,0,0,1,1102,122) translate(57.44020944020944 42.15523215523216)"/><use xlink:href="#x" transform="matrix(1,0,0,1,1102,122) translate(85.85200585200586 42.15523215523216)"/><path d="M1090 356a6 6 0 0 1 6-6h188a6 6 0 0 1 6 6v68a6 6 0 0 1-6 6h-188a6 6 0 0 1-6-6z" stroke="#000" stroke-width="2" fill="#fff"/><use xlink:href="#s" transform="matrix(1,0,0,1,1102,362) translate(2.015862015862016 21.664587664587664)"/><use xlink:href="#y" transform="matrix(1,0,0,1,1102,362) translate(60.736736736736745 21.664587664587664)"/><use xlink:href="#z" transform="matrix(1,0,0,1,1102,362) translate(144.12227612227613 21.664587664587664)"/><use xlink:href="#A" transform="matrix(1,0,0,1,1102,362) translate(52.22268422268422 42.15523215523216)"/><use xlink:href="#B" transform="matrix(1,0,0,1,1102,362) translate(65.45622545622547 42.15523215523216)"/><path d="M1330 236a6 6 0 0 1 6-6h188a6 6 0 0 1 6 6v68a6 6 0 0 1-6 6h-188a6 6 0 0 1-6-6z" stroke="#000" stroke-width="2" fill="#fff"/><use xlink:href="#C" transform="matrix(1,0,0,1,1342,242) translate(15.296835296835297 21.664587664587664)"/><use xlink:href="#D" transform="matrix(1,0,0,1,1342,242) translate(90.99838299838302 21.664587664587664)"/><use xlink:href="#E" transform="matrix(1,0,0,1,1342,242) translate(32.728112728112734 42.15523215523216)"/><use xlink:href="#F" transform="matrix(1,0,0,1,1342,242) translate(74.46831446831447 42.15523215523216)"/><use xlink:href="#G" transform="matrix(1,0,0,1,1342,242) translate(107.67074767074767 42.15523215523216)"/><path d="M1690 230c22.1 0 40 17.9 40 40s-17.9 40-40 40h-80c-22.1 0-40-17.9-40-40s17.9-40 40-40z" stroke="#000" stroke-width="2" fill="#fff"/><use xlink:href="#H" transform="matrix(1,0,0,1,1575,235) translate(24.797965166407995 25.374547335747543)"/><use xlink:href="#I" transform="matrix(1,0,0,1,1575,235) translate(103.97115594642754 25.374547335747543)"/><use xlink:href="#J" transform="matrix(1,0,0,1,1575,235) translate(47.459343564982454 55.967408173823074)"/><path d="M1770 236a6 6 0 0 1 6-6h188a6 6 0 0 1 6 6v68a6 6 0 0 1-6 6h-188a6 6 0 0 1-6-6z" stroke="#000" stroke-width="2" fill="#fff"/><use xlink:href="#K" transform="matrix(1,0,0,1,1782,242) translate(8.632632632632628 31.89212289212289)"/><path d="M192 270h18.5" stroke="#000" stroke-width="2" fill="none"/><path d="M192.03 270.98h-1.1l.07-.97-.03-.98h1.06z" stroke="#000" stroke-width=".05"/><path d="M225.76 270l-14.26 4.63v-9.26z" stroke="#000" stroke-width="2"/><path d="M392 270h18.5" stroke="#000" stroke-width="2" fill="none"/><path d="M392.03 270.98H391v-1.96h1.03z" stroke="#000" stroke-width=".05"/><path d="M425.76 270l-14.26 4.63v-9.26z" stroke="#000" stroke-width="2"/><path d="M592 270h18.5" stroke="#000" stroke-width="2" fill="none"/><path d="M592.03 270.98H591v-1.96h1.03z" stroke="#000" stroke-width=".05"/><path d="M625.76 270l-14.26 4.63v-9.26z" stroke="#000" stroke-width="2"/><path d="M832 270h21.7" stroke="#000" stroke-width="2" fill="none"/><path d="M832.03 270.98H831v-1.96h1.03z" stroke="#000" stroke-width=".05"/><path d="M868.97 270l-14.27 4.63v-9.26z" stroke="#000" stroke-width="2"/><path d="M1143.72 270.98h-94.93v-1.96h94.92zm47.25-5.94l-.07.9-.22.9-.35.87-.5.8-.6.73-.72.6-.8.5-.85.36-.9.2-.9.08h-11.98v-1.96h11.9l.66-.05.6-.15.6-.24.53-.33.48-.4.4-.5.34-.52.25-.6.14-.6.06-.67V209.5h1.94z" stroke="#000" stroke-width=".05"/><path d="M1048.82 270.98h-1.12l.1-.98-.1-.98h1.12z"/><path stroke="#000" stroke-width=".05"/><path d="M1194.63 208.5h-9.27l4.64-14.26z"/><path d="M1195.98 209.48h-11.96l5.98-18.4zm-9.27-1.95h6.6l-3.3-10.14z" stroke="#000" stroke-width=".05"/><use xlink:href="#L" transform="matrix(1,0,0,1,1143.721849760523,259.2) translate(0 14.4)"/><path d="M960.98 384.96l.05.67.14.6.25.6.33.53.4.48.5.4.52.34.6.25.6.14.67.05h17.58v1.96h-17.66l-.9-.08-.9-.2-.87-.37-.8-.5-.73-.6-.6-.72-.5-.8-.35-.85-.22-.92-.08-.9V330.2H961zm109.52 4.06v1.96h-64.93v-1.96z" stroke="#000" stroke-width=".05"/><path d="M960 329.2l.98-.07v1.08H959v-1.07z"/><path stroke="#000" stroke-width=".05"/><path d="M1085.76 390l-14.26 4.63v-9.26z"/><path d="M1088.92 390l-18.4 5.98v-11.96zm-16.45 3.3l10.14-3.3-10.13-3.3z" stroke="#000" stroke-width=".05"/><use xlink:href="#M" transform="matrix(1,0,0,1,982.617529999506,379.2) translate(0 14.4)"/><path d="M1292 150h133a5 5 0 0 1 5 5v55.5" stroke="#000" stroke-width="2" fill="none"/><path d="M1292.03 150.97H1291v-1.94h1.03z" stroke="#000" stroke-width=".05"/><path d="M1430 225.76l-4.63-14.26h9.27z" stroke="#000" stroke-width="2"/><path d="M1292 390h133a5 5 0 0 0 5-5v-55.5" stroke="#000" stroke-width="2" fill="none"/><path d="M1292.03 390.98H1291v-1.96h1.03z" stroke="#000" stroke-width=".05"/><path d="M1430 314.24l4.63 14.26h-9.27z" stroke="#000" stroke-width="2"/><path d="M1532 270h18.5" stroke="#000" stroke-width="2" fill="none"/><path d="M1532.03 270.98H1531v-1.96h1.03z" stroke="#000" stroke-width=".05"/><path d="M1565.76 270l-14.26 4.63v-9.26z" stroke="#000" stroke-width="2"/><path d="M1732 270h18.5" stroke="#94a3b8" stroke-width="2" fill="none"/><path d="M1732.03 270.98h-1.1l.07-.97-.03-.98h1.06z" stroke="#94a3b8" stroke-width=".05" fill="#94a3b8"/><path d="M1765.76 270l-14.26 4.63v-9.26z" stroke="#94a3b8" stroke-width="2" fill="#94a3b8"/><path d="M-50 35a5 5 0 0 1 5-5h2090a5 5 0 0 1 5 5v470a5 5 0 0 1-5 5H-45a5 5 0 0 1-5-5z" stroke="#000" stroke-width="2" fill-opacity="0"/><path d="M150 230c22.1 0 40 17.9 40 40s-17.9 40-40 40H70c-22.1 0-40-17.9-40-40s17.9-40 40-40z" stroke="#000" stroke-width="2" fill="#fff"/><use xlink:href="#a" transform="matrix(1,0,0,1,35,235) translate(37.509582111858364 25.374547335747543)"/><use xlink:href="#b" transform="matrix(1,0,0,1,35,235) translate(16.972707938150254 55.967408173823074)"/><use xlink:href="#c" transform="matrix(1,0,0,1,35,235) translate(77.8043455768236 55.967408173823074)"/><path d="M230 236a6 6 0 0 1 6-6h148a6 6 0 0 1 6 6v68a6 6 0 0 1-6 6H236a6 6 0 0 1-6-6z" stroke="#000" stroke-width="2" fill="#fff"/><use xlink:href="#d" transform="matrix(1,0,0,1,242,242) translate(7.9643334819438225 19.331054639124186)"/><use xlink:href="#e" transform="matrix(1,0,0,1,242,242) translate(67.77312131569822 19.331054639124186)"/><use xlink:href="#f" transform="matrix(1,0,0,1,242,242) translate(104.32971714469707 19.331054639124186)"/><use xlink:href="#g" transform="matrix(1,0,0,1,242,242) translate(44.61247337395353 45.69574478624857)"/><path d="M430 236a6 6 0 0 1 6-6h148a6 6 0 0 1 6 6v68a6 6 0 0 1-6 6H436a6 6 0 0 1-6-6z" stroke="#000" stroke-width="2" fill="#fff"/><use xlink:href="#h" transform="matrix(1,0,0,1,442,242) translate(5.004408777926381 19.331054639124186)"/><use xlink:href="#i" transform="matrix(1,0,0,1,442,242) translate(47.66394214098181 45.69574478624857)"/><path d="M630 236a6 6 0 0 1 6-6h188a6 6 0 0 1 6 6v68a6 6 0 0 1-6 6H636a6 6 0 0 1-6-6z" stroke="#000" stroke-width="2" fill="#fff"/><use xlink:href="#j" transform="matrix(1,0,0,1,642,242) translate(4.790529265451327 22.675010232675298)"/><use xlink:href="#k" transform="matrix(1,0,0,1,642,242) translate(52.812191051919015 22.675010232675298)"/><use xlink:href="#l" transform="matrix(1,0,0,1,642,242) translate(91.56311199269544 22.675010232675298)"/><use xlink:href="#m" transform="matrix(1,0,0,1,642,242) translate(53.70435439690186 39.43216523409213)"/><use xlink:href="#n" transform="matrix(1,0,0,1,642,242) translate(80.85715185290137 39.43216523409213)"/><use xlink:href="#o" transform="matrix(1,0,0,1,642,242) translate(104.09218853310666 39.43216523409213)"/><path d="M955 213.33a9 9 0 0 1 10 0l80 53.34a4 4 0 0 1 0 6.66l-80 53.34a9 9 0 0 1-10 0l-80-53.34a4 4 0 0 1 0-6.66z" stroke="#000" stroke-width="2" fill="#fff"/><use xlink:href="#p" transform="matrix(1,0,0,1,875,215) translate(40.52587329780935 43.01087921847248)"/><use xlink:href="#q" transform="matrix(1,0,0,1,875,215) translate(33.45739096112097 70.52064831261103)"/><use xlink:href="#r" transform="matrix(1,0,0,1,875,215) translate(98.3473324123413 70.52064831261103)"/><path d="M1090 116a6 6 0 0 1 6-6h188a6 6 0 0 1 6 6v68a6 6 0 0 1-6 6h-188a6 6 0 0 1-6-6z" stroke="#000" stroke-width="2" fill="#fff"/><use xlink:href="#s" transform="matrix(1,0,0,1,1102,122) translate(3.462539462539468 21.664587664587664)"/><use xlink:href="#t" transform="matrix(1,0,0,1,1102,122) translate(62.1834141834142 21.664587664587664)"/><use xlink:href="#u" transform="matrix(1,0,0,1,1102,122) translate(130.34326634326635 21.664587664587664)"/><use xlink:href="#v" transform="matrix(1,0,0,1,1102,122) translate(38.467390467390466 42.15523215523216)"/><use xlink:href="#w" transform="matrix(1,0,0,1,1102,122) translate(57.44020944020944 42.15523215523216)"/><use xlink:href="#x" transform="matrix(1,0,0,1,1102,122) translate(85.85200585200586 42.15523215523216)"/><path d="M1090 356a6 6 0 0 1 6-6h188a6 6 0 0 1 6 6v68a6 6 0 0 1-6 6h-188a6 6 0 0 1-6-6z" stroke="#000" stroke-width="2" fill="#fff"/><g><use xlink:href="#s" transform="matrix(1,0,0,1,1102,362) translate(2.015862015862016 21.664587664587664)"/><use xlink:href="#y" transform="matrix(1,0,0,1,1102,362) translate(60.736736736736745 21.664587664587664)"/><use xlink:href="#z" transform="matrix(1,0,0,1,1102,362) translate(144.12227612227613 21.664587664587664)"/><use xlink:href="#A" transform="matrix(1,0,0,1,1102,362) translate(52.22268422268422 42.15523215523216)"/><use xlink:href="#B" transform="matrix(1,0,0,1,1102,362) translate(65.45622545622547 42.15523215523216)"/></g><path d="M1330 236a6 6 0 0 1 6-6h188a6 6 0 0 1 6 6v68a6 6 0 0 1-6 6h-188a6 6 0 0 1-6-6z" stroke="#000" stroke-width="2" fill="#fff"/><g><use xlink:href="#C" transform="matrix(1,0,0,1,1342,242) translate(15.296835296835297 21.664587664587664)"/><use xlink:href="#D" transform="matrix(1,0,0,1,1342,242) translate(90.99838299838302 21.664587664587664)"/><use xlink:href="#E" transform="matrix(1,0,0,1,1342,242) translate(32.728112728112734 42.15523215523216)"/><use xlink:href="#F" transform="matrix(1,0,0,1,1342,242) translate(74.46831446831447 42.15523215523216)"/><use xlink:href="#G" transform="matrix(1,0,0,1,1342,242) translate(107.67074767074767 42.15523215523216)"/></g><path d="M1690 230c22.1 0 40 17.9 40 40s-17.9 40-40 40h-80c-22.1 0-40-17.9-40-40s17.9-40 40-40z" stroke="#000" stroke-width="2" fill="#fff"/><g><use xlink:href="#H" transform="matrix(1,0,0,1,1575,235) translate(24.797965166407995 25.374547335747543)"/><use xlink:href="#I" transform="matrix(1,0,0,1,1575,235) translate(103.97115594642754 25.374547335747543)"/><use xlink:href="#J" transform="matrix(1,0,0,1,1575,235) translate(47.459343564982454 55.967408173823074)"/></g><path d="M1770 236a6 6 0 0 1 6-6h188a6 6 0 0 1 6 6v68a6 6 0 0 1-6 6h-188a6 6 0 0 1-6-6z" stroke="#000" stroke-width="2" fill="#fff"/><g><use xlink:href="#K" transform="matrix(1,0,0,1,1782,242) translate(8.632632632632628 31.89212289212289)"/></g><path d="M192 270h18.5" stroke="#000" stroke-width="2" fill="none"/><path d="M192.03 270.98h-1.1l.07-.97-.03-.98h1.06z" stroke="#000" stroke-width=".05"/><path d="M225.76 270l-14.26 4.63v-9.26z" stroke="#000" stroke-width="2"/><path d="M392 270h18.5" stroke="#000" stroke-width="2" fill="none"/><path d="M392.03 270.98H391v-1.96h1.03z" stroke="#000" stroke-width=".05"/><path d="M425.76 270l-14.26 4.63v-9.26z" stroke="#000" stroke-width="2"/><path d="M592 270h18.5" stroke="#000" stroke-width="2" fill="none"/><path d="M592.03 270.98H591v-1.96h1.03z" stroke="#000" stroke-width=".05"/><path d="M625.76 270l-14.26 4.63v-9.26z" stroke="#000" stroke-width="2"/><path d="M832 270h21.7" stroke="#000" stroke-width="2" fill="none"/><path d="M832.03 270.98H831v-1.96h1.03z" stroke="#000" stroke-width=".05"/><path d="M868.97 270l-14.27 4.63v-9.26z" stroke="#000" stroke-width="2"/><path d="M1143.72 270.98h-94.93v-1.96h94.92zm47.25-5.94l-.07.9-.22.9-.35.87-.5.8-.6.73-.72.6-.8.5-.85.36-.9.2-.9.08h-11.98v-1.96h11.9l.66-.05.6-.15.6-.24.53-.33.48-.4.4-.5.34-.52.25-.6.14-.6.06-.67V209.5h1.94z" stroke="#000" stroke-width=".05"/><path d="M1048.82 270.98h-1.12l.1-.98-.1-.98h1.12z"/><path stroke="#000" stroke-width=".05"/><path d="M1194.63 208.5h-9.27l4.64-14.26z"/><path d="M1195.98 209.48h-11.96l5.98-18.4zm-9.27-1.95h6.6l-3.3-10.14z" stroke="#000" stroke-width=".05"/><g><use xlink:href="#L" transform="matrix(1,0,0,1,1143.721849760523,259.2) translate(0 14.4)"/></g><path d="M960.98 384.96l.05.67.14.6.25.6.33.53.4.48.5.4.52.34.6.25.6.14.67.05h17.58v1.96h-17.66l-.9-.08-.9-.2-.87-.37-.8-.5-.73-.6-.6-.72-.5-.8-.35-.85-.22-.92-.08-.9V330.2H961zm109.52 4.06v1.96h-64.93v-1.96z" stroke="#000" stroke-width=".05"/><path d="M960 329.2l.98-.07v1.08H959v-1.07z"/><path stroke="#000" stroke-width=".05"/><path d="M1085.76 390l-14.26 4.63v-9.26z"/><path d="M1088.92 390l-18.4 5.98v-11.96zm-16.45 3.3l10.14-3.3-10.13-3.3z" stroke="#000" stroke-width=".05"/><g><use xlink:href="#M" transform="matrix(1,0,0,1,982.617529999506,379.2) translate(0 14.4)"/></g><path d="M1292 150h133a5 5 0 0 1 5 5v55.5" stroke="#000" stroke-width="2" fill="none"/><path d="M1292.03 150.97H1291v-1.94h1.03z" stroke="#000" stroke-width=".05"/><path d="M1430 225.76l-4.63-14.26h9.27z" stroke="#000" stroke-width="2"/><path d="M1292 390h133a5 5 0 0 0 5-5v-55.5" stroke="#000" stroke-width="2" fill="none"/><path d="M1292.03 390.98H1291v-1.96h1.03z" stroke="#000" stroke-width=".05"/><path d="M1430 314.24l4.63 14.26h-9.27z" stroke="#000" stroke-width="2"/><path d="M1532 270h18.5" stroke="#000" stroke-width="2" fill="none"/><path d="M1532.03 270.98H1531v-1.96h1.03z" stroke="#000" stroke-width=".05"/><path d="M1565.76 270l-14.26 4.63v-9.26z" stroke="#000" stroke-width="2"/><path d="M1732 270h18.5" stroke="#94a3b8" stroke-width="2" fill="none"/><path d="M1732.03 270.98h-1.1l.07-.97-.03-.98h1.06z" stroke="#94a3b8" stroke-width=".05" fill="#94a3b8"/><path d="M1765.76 270l-14.26 4.63v-9.26z" stroke="#94a3b8" stroke-width="2" fill="#94a3b8"/><defs><path d="M205 0l-28-72H64L36 0H1l101-248h38L239 0h-34zm-38-99l-47-123c-12 45-31 82-46 123h93" id="N"/><path d="M84 4C-5 8 30-112 23-190h32v120c0 31 7 50 39 49 72-2 45-101 50-169h31l1 190h-30c-1-10 1-25-2-33-11 22-28 36-60 37" id="O"/><path d="M59-47c-2 24 18 29 38 22v24C64 9 27 4 27-40v-127H5v-23h24l9-43h21v43h35v23H59v120" id="P"/><path d="M106-169C34-169 62-67 57 0H25v-261h32l-1 103c12-21 28-36 61-36 89 0 53 116 60 194h-32v-121c2-32-8-49-39-48" id="Q"/><path d="M100-194c62-1 85 37 85 99 1 63-27 99-86 99S16-35 15-95c0-66 28-99 85-99zM99-20c44 1 53-31 53-75 0-43-8-75-51-75s-53 32-53 75 10 74 51 75" id="R"/><path d="M114-163C36-179 61-72 57 0H25l-1-190h30c1 12-1 29 2 39 6-27 23-49 58-41v29" id="S"/><g id="a"><use transform="matrix(0.07081680749554521,0,0,0.07081680749554521,0,0)" xlink:href="#N"/><use transform="matrix(0.07081680749554521,0,0,0.07081680749554521,16.99603379893085,0)" xlink:href="#O"/><use transform="matrix(0.07081680749554521,0,0,0.07081680749554521,31.159395298039893,0)" xlink:href="#P"/><use transform="matrix(0.07081680749554521,0,0,0.07081680749554521,38.24107604759441,0)" xlink:href="#Q"/><use transform="matrix(0.07081680749554521,0,0,0.07081680749554521,52.404437546703456,0)" xlink:href="#R"/><use transform="matrix(0.07081680749554521,0,0,0.07081680749554521,66.56779904581249,0)" xlink:href="#S"/></g><path d="M100-194c63 0 86 42 84 106H49c0 40 14 67 53 68 26 1 43-12 49-29l28 8c-11 28-37 45-77 45C44 4 14-33 15-96c1-61 26-98 85-98zm52 81c6-60-76-77-97-28-3 7-6 17-6 28h103" id="T"/><path d="M85-194c31 0 48 13 60 33l-1-100h32l1 261h-30c-2-10 0-23-3-31C134-8 116 4 85 4 32 4 16-35 15-94c0-66 23-100 70-100zm9 24c-40 0-46 34-46 75 0 40 6 74 45 74 42 0 51-32 51-76 0-42-9-74-50-73" id="U"/><path d="M24-231v-30h32v30H24zM24 0v-190h32V0H24" id="V"/><path d="M135-143c-3-34-86-38-87 0 15 53 115 12 119 90S17 21 10-45l28-5c4 36 97 45 98 0-10-56-113-15-118-90-4-57 82-63 122-42 12 7 21 19 24 35" id="W"/><g id="b"><use transform="matrix(0.07081680749554521,0,0,0.07081680749554521,0,0)" xlink:href="#T"/><use transform="matrix(0.07081680749554521,0,0,0.07081680749554521,14.163361499109042,0)" xlink:href="#U"/><use transform="matrix(0.07081680749554521,0,0,0.07081680749554521,28.326722998218084,0)" xlink:href="#V"/><use transform="matrix(0.07081680749554521,0,0,0.07081680749554521,33.92125079036615,0)" xlink:href="#P"/><use transform="matrix(0.07081680749554521,0,0,0.07081680749554521,41.00293153992068,0)" xlink:href="#W"/></g><path d="M96-169c-40 0-48 33-48 73s9 75 48 75c24 0 41-14 43-38l32 2c-6 37-31 61-74 61-59 0-76-41-82-99-10-93 101-131 147-64 4 7 5 14 7 22l-32 3c-4-21-16-35-41-35" id="X"/><g id="c"><use transform="matrix(0.07081680749554521,0,0,0.07081680749554521,0,0)" xlink:href="#X"/><use transform="matrix(0.07081680749554521,0,0,0.07081680749554521,12.747025349198138,0)" xlink:href="#R"/><use transform="matrix(0.07081680749554521,0,0,0.07081680749554521,26.91038684830718,0)" xlink:href="#U"/><use transform="matrix(0.07081680749554521,0,0,0.07081680749554521,41.07374834741622,0)" xlink:href="#T"/></g><path d="M140-251c81 0 123 46 123 126C263-46 219 4 140 4 59 4 17-45 17-125s42-126 123-126zm0 227c63 0 89-41 89-101s-29-99-89-99c-61 0-89 39-89 99S79-25 140-24" id="Y"/><path d="M115-194c55 1 70 41 70 98S169 2 115 4C84 4 66-9 55-30l1 105H24l-1-265h31l2 30c10-21 28-34 59-34zm-8 174c40 0 45-34 45-75s-6-73-45-74c-42 0-51 32-51 76 0 43 10 73 51 73" id="Z"/><path d="M117-194c89-4 53 116 60 194h-32v-121c0-31-8-49-39-48C34-167 62-67 57 0H25l-1-190h30c1 10-1 24 2 32 11-22 29-35 61-36" id="aa"/><g id="d"><use transform="matrix(0.06102937534056571,0,0,0.06102937534056571,0,0)" xlink:href="#Y"/><use transform="matrix(0.06102937534056571,0,0,0.06102937534056571,17.088225095358396,0)" xlink:href="#Z"/><use transform="matrix(0.06102937534056571,0,0,0.06102937534056571,29.29410016347154,0)" xlink:href="#T"/><use transform="matrix(0.06102937534056571,0,0,0.06102937534056571,41.49997523158468,0)" xlink:href="#aa"/></g><path d="M30-248c87 1 191-15 191 75 0 78-77 80-158 76V0H30v-248zm33 125c57 0 124 11 124-50 0-59-68-47-124-48v98" id="ab"/><path d="M233-177c-1 41-23 64-60 70L243 0h-38l-65-103H63V0H30v-248c88 3 205-21 203 71zM63-129c60-2 137 13 137-47 0-61-80-42-137-45v92" id="ac"/><g id="e"><use transform="matrix(0.06102937534056571,0,0,0.06102937534056571,0,0)" xlink:href="#ab"/><use transform="matrix(0.06102937534056571,0,0,0.06102937534056571,14.64705008173577,0)" xlink:href="#ac"/></g><g id="f"><use transform="matrix(0.06102937534056571,0,0,0.06102937534056571,0,0)" xlink:href="#R"/><use transform="matrix(0.06102937534056571,0,0,0.06102937534056571,12.20587506811314,0)" xlink:href="#aa"/></g><path d="M210-169c-67 3-38 105-44 169h-31v-121c0-29-5-50-35-48C34-165 62-65 56 0H25l-1-190h30c1 10-1 24 2 32 10-44 99-50 107 0 11-21 27-35 58-36 85-2 47 119 55 194h-31v-121c0-29-5-49-35-48" id="ad"/><path d="M141-36C126-15 110 5 73 4 37 3 15-17 15-53c-1-64 63-63 125-63 3-35-9-54-41-54-24 1-41 7-42 31l-33-3c5-37 33-52 76-52 45 0 72 20 72 64v82c-1 20 7 32 28 27v20c-31 9-61-2-59-35zM48-53c0 20 12 33 32 33 41-3 63-29 60-74-43 2-92-5-92 41" id="ae"/><g id="g"><use transform="matrix(0.06102937534056571,0,0,0.06102937534056571,0,0)" xlink:href="#ad"/><use transform="matrix(0.06102937534056571,0,0,0.06102937534056571,18.247783226829146,0)" xlink:href="#ae"/><use transform="matrix(0.06102937534056571,0,0,0.06102937534056571,30.45365829494229,0)" xlink:href="#V"/><use transform="matrix(0.06102937534056571,0,0,0.06102937534056571,35.27497894684698,0)" xlink:href="#aa"/></g><path d="M16-82v-28h88v28H16" id="af"/><path d="M101-234c-31-9-42 10-38 44h38v23H63V0H32v-167H5v-23h27c-7-52 17-82 69-68v24" id="ag"/><path d="M33 0v-38h34V0H33" id="ah"/><path d="M179-190L93 31C79 59 56 82 12 73V49c39 6 53-20 64-50L1-190h34L92-34l54-156h33" id="ai"/><path d="M24 0v-261h32V0H24" id="aj"/><g id="h"><use transform="matrix(0.06102937534056571,0,0,0.06102937534056571,0,0)" xlink:href="#U"/><use transform="matrix(0.06102937534056571,0,0,0.06102937534056571,12.20587506811314,0)" xlink:href="#R"/><use transform="matrix(0.06102937534056571,0,0,0.06102937534056571,24.41175013622628,0)" xlink:href="#X"/><use transform="matrix(0.06102937534056571,0,0,0.06102937534056571,35.39703769752811,0)" xlink:href="#af"/><use transform="matrix(0.06102937534056571,0,0,0.06102937534056571,42.65953336305543,0)" xlink:href="#U"/><use transform="matrix(0.06102937534056571,0,0,0.06102937534056571,54.865408431168575,0)" xlink:href="#S"/><use transform="matrix(0.06102937534056571,0,0,0.06102937534056571,62.12790409669589,0)" xlink:href="#ae"/><use transform="matrix(0.06102937534056571,0,0,0.06102937534056571,74.33377916480903,0)" xlink:href="#ag"/><use transform="matrix(0.06102937534056571,0,0,0.06102937534056571,80.43671669886561,0)" xlink:href="#P"/><use transform="matrix(0.06102937534056571,0,0,0.06102937534056571,86.53965423292217,0)" xlink:href="#ah"/><use transform="matrix(0.06102937534056571,0,0,0.06102937534056571,92.64259176697875,0)" xlink:href="#ai"/><use transform="matrix(0.06102937534056571,0,0,0.06102937534056571,103.62787932828057,0)" xlink:href="#ad"/><use transform="matrix(0.06102937534056571,0,0,0.06102937534056571,121.87566255510973,0)" xlink:href="#aj"/></g><g id="i"><use transform="matrix(0.06102937534056571,0,0,0.06102937534056571,0,0)" xlink:href="#ag"/><use transform="matrix(0.06102937534056571,0,0,0.06102937534056571,6.10293753405657,0)" xlink:href="#V"/><use transform="matrix(0.06102937534056571,0,0,0.06102937534056571,10.92425818596126,0)" xlink:href="#S"/><use transform="matrix(0.06102937534056571,0,0,0.06102937534056571,18.18675385148858,0)" xlink:href="#T"/><use transform="matrix(0.06102937534056571,0,0,0.06102937534056571,30.39262891960172,0)" xlink:href="#W"/></g><path d="M212-179c-10-28-35-45-73-45-59 0-87 40-87 99 0 60 29 101 89 101 43 0 62-24 78-52l27 14C228-24 195 4 139 4 59 4 22-46 18-125c-6-104 99-153 187-111 19 9 31 26 39 46" id="ak"/><g id="j"><use transform="matrix(0.038789710651427854,0,0,0.038789710651427854,0,0)" xlink:href="#ak"/><use transform="matrix(0.038789710651427854,0,0,0.038789710651427854,10.046535058719813,0)" xlink:href="#aj"/><use transform="matrix(0.038789710651427854,0,0,0.038789710651427854,13.110922200182618,0)" xlink:href="#ae"/><use transform="matrix(0.038789710651427854,0,0,0.038789710651427854,20.86886433046819,0)" xlink:href="#O"/><use transform="matrix(0.038789710651427854,0,0,0.038789710651427854,28.626806460753762,0)" xlink:href="#U"/><use transform="matrix(0.038789710651427854,0,0,0.038789710651427854,36.38474859103933,0)" xlink:href="#T"/></g><g id="k"><use transform="matrix(0.038789710651427854,0,0,0.038789710651427854,0,0)" xlink:href="#S"/><use transform="matrix(0.038789710651427854,0,0,0.038789710651427854,4.615975567519915,0)" xlink:href="#T"/><use transform="matrix(0.038789710651427854,0,0,0.038789710651427854,12.373917697805485,0)" xlink:href="#ae"/><use transform="matrix(0.038789710651427854,0,0,0.038789710651427854,20.131859828091056,0)" xlink:href="#U"/><use transform="matrix(0.038789710651427854,0,0,0.038789710651427854,27.88980195837663,0)" xlink:href="#W"/></g><path d="M30 0v-248h33v221h125V0H30" id="al"/><path d="M232-93c-1 65-40 97-104 97C67 4 28-28 28-90v-158h33c8 89-33 224 67 224 102 0 64-133 71-224h33v155" id="am"/><path d="M30-248c118-7 216 8 213 122C240-48 200 0 122 0H30v-248zM63-27c89 8 146-16 146-99s-60-101-146-95v194" id="an"/><path d="M30 0v-248h187v28H63v79h144v27H63v87h162V0H30" id="ao"/><g id="l"><use transform="matrix(0.038789710651427854,0,0,0.038789710651427854,0,0)" xlink:href="#ak"/><use transform="matrix(0.038789710651427854,0,0,0.038789710651427854,10.046535058719813,0)" xlink:href="#al"/><use transform="matrix(0.038789710651427854,0,0,0.038789710651427854,17.80447718900539,0)" xlink:href="#N"/><use transform="matrix(0.038789710651427854,0,0,0.038789710651427854,27.11400774534807,0)" xlink:href="#am"/><use transform="matrix(0.038789710651427854,0,0,0.038789710651427854,37.16054280406789,0)" xlink:href="#an"/><use transform="matrix(0.038789710651427854,0,0,0.038789710651427854,47.207077862787706,0)" xlink:href="#ao"/><use transform="matrix(0.038789710651427854,0,0,0.038789710651427854,56.51660841913039,0)" xlink:href="#ah"/><use transform="matrix(0.038789710651427854,0,0,0.038789710651427854,60.39557948427318,0)" xlink:href="#ad"/><use transform="matrix(0.038789710651427854,0,0,0.038789710651427854,71.9937029690501,0)" xlink:href="#U"/></g><g id="m"><use transform="matrix(0.038789710651427854,0,0,0.038789710651427854,0,0)" xlink:href="#ae"/><use transform="matrix(0.038789710651427854,0,0,0.038789710651427854,7.757942130285571,0)" xlink:href="#aa"/><use transform="matrix(0.038789710651427854,0,0,0.038789710651427854,15.515884260571141,0)" xlink:href="#U"/></g><g id="n"><use transform="matrix(0.038789710651427854,0,0,0.038789710651427854,0,0)" xlink:href="#ab"/><use transform="matrix(0.038789710651427854,0,0,0.038789710651427854,9.309530556342686,0)" xlink:href="#ac"/></g><g id="o"><use transform="matrix(0.038789710651427854,0,0,0.038789710651427854,0,0)" xlink:href="#U"/><use transform="matrix(0.038789710651427854,0,0,0.038789710651427854,7.757942130285571,0)" xlink:href="#V"/><use transform="matrix(0.038789710651427854,0,0,0.038789710651427854,10.822329271748371,0)" xlink:href="#ag"/><use transform="matrix(0.038789710651427854,0,0,0.038789710651427854,14.429772362331164,0)" xlink:href="#ag"/></g><path d="M140-251c81 0 123 46 123 126C263-53 228-8 163 1c7 30 30 48 69 40v23c-55 16-95-15-103-61C56-3 17-48 17-125c0-80 42-126 123-126zm0 227c63 0 89-41 89-101s-29-99-89-99c-61 0-89 39-89 99S79-25 140-24" id="ap"/><g id="p"><use transform="matrix(0.06368002105124664,0,0,0.06368002105124664,0,0)" xlink:href="#ap"/><use transform="matrix(0.06368002105124664,0,0,0.06368002105124664,17.83040589434906,0)" xlink:href="#O"/><use transform="matrix(0.06368002105124664,0,0,0.06368002105124664,30.566410104598386,0)" xlink:href="#ae"/><use transform="matrix(0.06368002105124664,0,0,0.06368002105124664,43.30241431484772,0)" xlink:href="#aj"/><use transform="matrix(0.06368002105124664,0,0,0.06368002105124664,48.333135977896205,0)" xlink:href="#V"/><use transform="matrix(0.06368002105124664,0,0,0.06368002105124664,53.36385764094469,0)" xlink:href="#ag"/><use transform="matrix(0.06368002105124664,0,0,0.06368002105124664,59.731859746069354,0)" xlink:href="#V"/><use transform="matrix(0.06368002105124664,0,0,0.06368002105124664,64.76258140911784,0)" xlink:href="#T"/><use transform="matrix(0.06368002105124664,0,0,0.06368002105124664,77.49858561936715,0)" xlink:href="#W"/></g><g id="q"><use transform="matrix(0.06368002105124664,0,0,0.06368002105124664,0,0)" xlink:href="#O"/><use transform="matrix(0.06368002105124664,0,0,0.06368002105124664,12.736004210249327,0)" xlink:href="#aa"/><use transform="matrix(0.06368002105124664,0,0,0.06368002105124664,25.472008420498653,0)" xlink:href="#U"/><use transform="matrix(0.06368002105124664,0,0,0.06368002105124664,38.20801263074798,0)" xlink:href="#T"/><use transform="matrix(0.06368002105124664,0,0,0.06368002105124664,50.94401684099731,0)" xlink:href="#S"/></g><path d="M31-209c-2-70 138-68 145-6l-28 3c-3-36-88-36-89 0 12 56 121 17 121 91 0 27-17 41-38 48 19 10 37 21 37 48 2 76-153 72-159 7l29-5c2 42 101 43 102 0-13-58-124-24-124-95 0-26 18-41 40-47-20-7-36-18-36-44zm24 89c4 42 95 53 97 3-4-43-95-54-97-3" id="aq"/><path d="M27 0v-27h64v-190l-56 39v-29l58-41h29v221h61V0H27" id="ar"/><path d="M103-251c84 0 111 97 45 133-19 10-37 24-39 52H78c0-63 77-55 77-114 0-30-21-42-52-43-32 0-53 17-56 46l-32-2c7-45 34-72 88-72zM77 0v-35h34V0H77" id="as"/><g id="r"><use transform="matrix(0.06368002105124664,0,0,0.06368002105124664,0,0)" xlink:href="#aq"/><use transform="matrix(0.06368002105124664,0,0,0.06368002105124664,12.736004210249327,0)" xlink:href="#ar"/><use transform="matrix(0.06368002105124664,0,0,0.06368002105124664,25.472008420498653,0)" xlink:href="#as"/></g><g id="s"><use transform="matrix(0.04743204743204744,0,0,0.04743204743204744,0,0)" xlink:href="#ak"/><use transform="matrix(0.04743204743204744,0,0,0.04743204743204744,12.284900284900287,0)" xlink:href="#aj"/><use transform="matrix(0.04743204743204744,0,0,0.04743204743204744,16.032032032032035,0)" xlink:href="#ae"/><use transform="matrix(0.04743204743204744,0,0,0.04743204743204744,25.51844151844152,0)" xlink:href="#O"/><use transform="matrix(0.04743204743204744,0,0,0.04743204743204744,35.00485100485101,0)" xlink:href="#U"/><use transform="matrix(0.04743204743204744,0,0,0.04743204743204744,44.4912604912605,0)" xlink:href="#T"/></g><g id="t"><use transform="matrix(0.04743204743204744,0,0,0.04743204743204744,0,0)" xlink:href="#X"/><use transform="matrix(0.04743204743204744,0,0,0.04743204743204744,8.537768537768539,0)" xlink:href="#R"/><use transform="matrix(0.04743204743204744,0,0,0.04743204743204744,18.024178024178024,0)" xlink:href="#ad"/><use transform="matrix(0.04743204743204744,0,0,0.04743204743204744,32.20636020636021,0)" xlink:href="#ad"/><use transform="matrix(0.04743204743204744,0,0,0.04743204743204744,46.3885423885424,0)" xlink:href="#V"/><use transform="matrix(0.04743204743204744,0,0,0.04743204743204744,50.13567413567415,0)" xlink:href="#P"/><use transform="matrix(0.04743204743204744,0,0,0.04743204743204744,54.87887887887889,0)" xlink:href="#W"/></g><g id="u"><use transform="matrix(0.04743204743204744,0,0,0.04743204743204744,0,0)" xlink:href="#U"/><use transform="matrix(0.04743204743204744,0,0,0.04743204743204744,9.486409486409487,0)" xlink:href="#S"/><use transform="matrix(0.04743204743204744,0,0,0.04743204743204744,15.130823130823133,0)" xlink:href="#ae"/><use transform="matrix(0.04743204743204744,0,0,0.04743204743204744,24.61723261723262,0)" xlink:href="#ag"/><use transform="matrix(0.04743204743204744,0,0,0.04743204743204744,29.360437360437363,0)" xlink:href="#P"/><use transform="matrix(0.04743204743204744,0,0,0.04743204743204744,34.10364210364211,0)" xlink:href="#W"/></g><g id="v"><use transform="matrix(0.04743204743204744,0,0,0.04743204743204744,0,0)" xlink:href="#P"/><use transform="matrix(0.04743204743204744,0,0,0.04743204743204744,4.7432047432047435,0)" xlink:href="#R"/></g><g id="w"><use transform="matrix(0.04743204743204744,0,0,0.04743204743204744,0,0)" xlink:href="#ab"/><use transform="matrix(0.04743204743204744,0,0,0.04743204743204744,11.383691383691385,0)" xlink:href="#ac"/></g><path d="M115-194c53 0 69 39 70 98 0 66-23 100-70 100C84 3 66-7 56-30L54 0H23l1-261h32v101c10-23 28-34 59-34zm-8 174c40 0 45-34 45-75 0-40-5-75-45-74-42 0-51 32-51 76 0 43 10 73 51 73" id="at"/><g id="x"><use transform="matrix(0.04743204743204744,0,0,0.04743204743204744,0,0)" xlink:href="#at"/><use transform="matrix(0.04743204743204744,0,0,0.04743204743204744,9.486409486409487,0)" xlink:href="#S"/><use transform="matrix(0.04743204743204744,0,0,0.04743204743204744,15.130823130823133,0)" xlink:href="#ae"/><use transform="matrix(0.04743204743204744,0,0,0.04743204743204744,24.61723261723262,0)" xlink:href="#aa"/><use transform="matrix(0.04743204743204744,0,0,0.04743204743204744,34.10364210364211,0)" xlink:href="#X"/><use transform="matrix(0.04743204743204744,0,0,0.04743204743204744,42.64141064141065,0)" xlink:href="#Q"/></g><g id="y"><use transform="matrix(0.04743204743204744,0,0,0.04743204743204744,0,0)" xlink:href="#X"/><use transform="matrix(0.04743204743204744,0,0,0.04743204743204744,8.537768537768539,0)" xlink:href="#R"/><use transform="matrix(0.04743204743204744,0,0,0.04743204743204744,18.024178024178024,0)" xlink:href="#ad"/><use transform="matrix(0.04743204743204744,0,0,0.04743204743204744,32.20636020636021,0)" xlink:href="#ad"/><use transform="matrix(0.04743204743204744,0,0,0.04743204743204744,46.3885423885424,0)" xlink:href="#T"/><use transform="matrix(0.04743204743204744,0,0,0.04743204743204744,55.87495187495188,0)" xlink:href="#aa"/><use transform="matrix(0.04743204743204744,0,0,0.04743204743204744,65.36136136136138,0)" xlink:href="#P"/><use transform="matrix(0.04743204743204744,0,0,0.04743204743204744,70.10456610456612,0)" xlink:href="#W"/></g><path d="M206 0h-36l-40-164L89 0H53L-1-190h32L70-26l43-164h34l41 164 42-164h31" id="au"/><g id="z"><use transform="matrix(0.04743204743204744,0,0,0.04743204743204744,0,0)" xlink:href="#au"/><use transform="matrix(0.04743204743204744,0,0,0.04743204743204744,12.284900284900287,0)" xlink:href="#Q"/><use transform="matrix(0.04743204743204744,0,0,0.04743204743204744,21.771309771309777,0)" xlink:href="#ai"/></g><g id="A"><use transform="matrix(0.04743204743204744,0,0,0.04743204743204744,0,0)" xlink:href="#V"/><use transform="matrix(0.04743204743204744,0,0,0.04743204743204744,3.7471317471317476,0)" xlink:href="#P"/></g><path d="M143 0L79-87 56-68V0H24v-261h32v163l83-92h37l-77 82L181 0h-38" id="av"/><g id="B"><use transform="matrix(0.04743204743204744,0,0,0.04743204743204744,0,0)" xlink:href="#W"/><use transform="matrix(0.04743204743204744,0,0,0.04743204743204744,8.537768537768539,0)" xlink:href="#av"/><use transform="matrix(0.04743204743204744,0,0,0.04743204743204744,17.075537075537078,0)" xlink:href="#V"/><use transform="matrix(0.04743204743204744,0,0,0.04743204743204744,20.822668822668824,0)" xlink:href="#Z"/><use transform="matrix(0.04743204743204744,0,0,0.04743204743204744,30.309078309078313,0)" xlink:href="#Z"/><use transform="matrix(0.04743204743204744,0,0,0.04743204743204744,39.7954877954878,0)" xlink:href="#T"/><use transform="matrix(0.04743204743204744,0,0,0.04743204743204744,49.28189728189729,0)" xlink:href="#U"/></g><path d="M108 0H70L1-190h34L89-25l56-165h34" id="aw"/><g id="C"><use transform="matrix(0.04743204743204744,0,0,0.04743204743204744,0,0)" xlink:href="#ac"/><use transform="matrix(0.04743204743204744,0,0,0.04743204743204744,12.284900284900287,0)" xlink:href="#T"/><use transform="matrix(0.04743204743204744,0,0,0.04743204743204744,21.771309771309777,0)" xlink:href="#aw"/><use transform="matrix(0.04743204743204744,0,0,0.04743204743204744,30.309078309078313,0)" xlink:href="#V"/><use transform="matrix(0.04743204743204744,0,0,0.04743204743204744,34.05621005621006,0)" xlink:href="#T"/><use transform="matrix(0.04743204743204744,0,0,0.04743204743204744,43.542619542619555,0)" xlink:href="#au"/><use transform="matrix(0.04743204743204744,0,0,0.04743204743204744,55.82751982751984,0)" xlink:href="#T"/><use transform="matrix(0.04743204743204744,0,0,0.04743204743204744,65.31392931392932,0)" xlink:href="#S"/></g><g id="D"><use transform="matrix(0.04743204743204744,0,0,0.04743204743204744,0,0)" xlink:href="#ae"/><use transform="matrix(0.04743204743204744,0,0,0.04743204743204744,9.486409486409487,0)" xlink:href="#Z"/><use transform="matrix(0.04743204743204744,0,0,0.04743204743204744,18.972818972818974,0)" xlink:href="#Z"/><use transform="matrix(0.04743204743204744,0,0,0.04743204743204744,28.459228459228463,0)" xlink:href="#S"/><use transform="matrix(0.04743204743204744,0,0,0.04743204743204744,34.10364210364211,0)" xlink:href="#R"/><use transform="matrix(0.04743204743204744,0,0,0.04743204743204744,43.590051590051594,0)" xlink:href="#aw"/><use transform="matrix(0.04743204743204744,0,0,0.04743204743204744,52.12782012782014,0)" xlink:href="#T"/><use transform="matrix(0.04743204743204744,0,0,0.04743204743204744,61.61422961422962,0)" xlink:href="#W"/></g><g id="E"><use transform="matrix(0.04743204743204744,0,0,0.04743204743204744,0,0)" xlink:href="#X"/><use transform="matrix(0.04743204743204744,0,0,0.04743204743204744,8.537768537768539,0)" xlink:href="#R"/><use transform="matrix(0.04743204743204744,0,0,0.04743204743204744,18.024178024178024,0)" xlink:href="#U"/><use transform="matrix(0.04743204743204744,0,0,0.04743204743204744,27.510587510587513,0)" xlink:href="#T"/></g><g id="F"><use transform="matrix(0.04743204743204744,0,0,0.04743204743204744,0,0)" xlink:href="#ae"/><use transform="matrix(0.04743204743204744,0,0,0.04743204743204744,9.486409486409487,0)" xlink:href="#aa"/><use transform="matrix(0.04743204743204744,0,0,0.04743204743204744,18.972818972818974,0)" xlink:href="#U"/></g><g id="G"><use transform="matrix(0.04743204743204744,0,0,0.04743204743204744,0,0)" xlink:href="#U"/><use transform="matrix(0.04743204743204744,0,0,0.04743204743204744,9.486409486409487,0)" xlink:href="#R"/><use transform="matrix(0.04743204743204744,0,0,0.04743204743204744,18.972818972818974,0)" xlink:href="#X"/><use transform="matrix(0.04743204743204744,0,0,0.04743204743204744,27.510587510587513,0)" xlink:href="#W"/></g><path d="M240 0l2-218c-23 76-54 145-80 218h-23L58-218 59 0H30v-248h44l77 211c21-75 51-140 76-211h43V0h-30" id="ax"/><path d="M177-190C167-65 218 103 67 71c-23-6-38-20-44-43l32-5c15 47 100 32 89-28v-30C133-14 115 1 83 1 29 1 15-40 15-95c0-56 16-97 71-98 29-1 48 16 59 35 1-10 0-23 2-32h30zM94-22c36 0 50-32 50-73 0-42-14-75-50-75-39 0-46 34-46 75s6 73 46 73" id="ay"/><g id="H"><use transform="matrix(0.07081680749554521,0,0,0.07081680749554521,0,0)" xlink:href="#ax"/><use transform="matrix(0.07081680749554521,0,0,0.07081680749554521,21.17422544116802,0)" xlink:href="#T"/><use transform="matrix(0.07081680749554521,0,0,0.07081680749554521,35.33758694027706,0)" xlink:href="#S"/><use transform="matrix(0.07081680749554521,0,0,0.07081680749554521,43.76478703224694,0)" xlink:href="#ay"/><use transform="matrix(0.07081680749554521,0,0,0.07081680749554521,57.92814853135598,0)" xlink:href="#T"/></g><g id="I"><use transform="matrix(0.07081680749554521,0,0,0.07081680749554521,0,0)" xlink:href="#P"/><use transform="matrix(0.07081680749554521,0,0,0.07081680749554521,7.081680749554521,0)" xlink:href="#R"/></g><g id="J"><use transform="matrix(0.07081680749554521,0,0,0.07081680749554521,0,0)" xlink:href="#ad"/><use transform="matrix(0.07081680749554521,0,0,0.07081680749554521,21.17422544116802,0)" xlink:href="#ae"/><use transform="matrix(0.07081680749554521,0,0,0.07081680749554521,35.33758694027706,0)" xlink:href="#V"/><use transform="matrix(0.07081680749554521,0,0,0.07081680749554521,40.932114732425134,0)" xlink:href="#aa"/></g><g id="K"><use transform="matrix(0.04743204743204744,0,0,0.04743204743204744,0,0)" xlink:href="#U"/><use transform="matrix(0.04743204743204744,0,0,0.04743204743204744,9.486409486409487,0)" xlink:href="#R"/><use transform="matrix(0.04743204743204744,0,0,0.04743204743204744,18.972818972818974,0)" xlink:href="#X"/><use transform="matrix(0.04743204743204744,0,0,0.04743204743204744,27.510587510587513,0)" xlink:href="#W"/><use transform="matrix(0.04743204743204744,0,0,0.04743204743204744,36.04835604835605,0)" xlink:href="#ah"/><use transform="matrix(0.04743204743204744,0,0,0.04743204743204744,40.7915607915608,0)" xlink:href="#aw"/><use transform="matrix(0.04743204743204744,0,0,0.04743204743204744,49.32932932932933,0)" xlink:href="#V"/><use transform="matrix(0.04743204743204744,0,0,0.04743204743204744,53.07646107646108,0)" xlink:href="#W"/><use transform="matrix(0.04743204743204744,0,0,0.04743204743204744,61.61422961422962,0)" xlink:href="#V"/><use transform="matrix(0.04743204743204744,0,0,0.04743204743204744,65.36136136136138,0)" xlink:href="#R"/><use transform="matrix(0.04743204743204744,0,0,0.04743204743204744,74.84777084777086,0)" xlink:href="#aa"/><use transform="matrix(0.04743204743204744,0,0,0.04743204743204744,84.33418033418035,0)" xlink:href="#ae"/><use transform="matrix(0.04743204743204744,0,0,0.04743204743204744,93.82058982058983,0)" xlink:href="#S"/><use transform="matrix(0.04743204743204744,0,0,0.04743204743204744,99.46500346500348,0)" xlink:href="#ai"/><use transform="matrix(0.04743204743204744,0,0,0.04743204743204744,108.00277200277202,0)" xlink:href="#ae"/><use transform="matrix(0.04743204743204744,0,0,0.04743204743204744,117.4891814891815,0)" xlink:href="#O"/><use transform="matrix(0.04743204743204744,0,0,0.04743204743204744,126.97559097559102,0)" xlink:href="#P"/><use transform="matrix(0.04743204743204744,0,0,0.04743204743204744,131.71879571879575,0)" xlink:href="#R"/><use transform="matrix(0.04743204743204744,0,0,0.04743204743204744,141.20520520520523,0)" xlink:href="#ah"/><use transform="matrix(0.04743204743204744,0,0,0.04743204743204744,145.94840994841,0)" xlink:href="#ae"/><use transform="matrix(0.04743204743204744,0,0,0.04743204743204744,155.43481943481947,0)" xlink:href="#V"/></g><path d="M137-103V0h-34v-103L8-248h37l75 118 75-118h37" id="az"/><g id="L"><use transform="matrix(0.05,0,0,0.05,0,0)" xlink:href="#az"/><use transform="matrix(0.05,0,0,0.05,10.35,0)" xlink:href="#T"/><use transform="matrix(0.05,0,0,0.05,20.35,0)" xlink:href="#W"/></g><path d="M190 0L58-211 59 0H30v-248h39L202-35l-2-213h31V0h-41" id="aA"/><g id="M"><use transform="matrix(0.05,0,0,0.05,0,0)" xlink:href="#aA"/><use transform="matrix(0.05,0,0,0.05,12.950000000000001,0)" xlink:href="#R"/></g></defs></g></svg>