<svg xmlns="http://www.w3.org/2000/svg" xmlns:xlink="http://www.w3.org/1999/xlink" xmlns:lucid="lucid" width="1962" height="462"><g transform="translate(-39 -29)" lucid:page-tab-id="page1"><path d="M40 60h360v30H40z" fill="none"/><use xlink:href="#a" transform="matrix(1,0,0,1,45,65) translate(118.9752158173211 11.811751601225287)"/><use xlink:href="#b" transform="matrix(1,0,0,1,45,65) translate(155.66026176552495 11.811751601225287)"/><use xlink:href="#c" transform="matrix(1,0,0,1,45,65) translate(209.91590086326931 11.811751601225287)"/><path d="M145 120c19.33 0 35 15.67 35 35s-15.67 35-35 35H75c-19.33 0-35-15.67-35-35s15.67-35 35-35z" stroke="#000" stroke-width="2" fill="#fff"/><use xlink:href="#d" transform="matrix(1,0,0,1,45,125) translate(31.130716103235187 20.774445656125046)"/><use xlink:href="#e" transform="matrix(1,0,0,1,45,125) translate(12.577462740821522 48.412395492548164)"/><use xlink:href="#f" transform="matrix(1,0,0,1,45,125) translate(67.53347873500546 48.412395492548164)"/><path d="M220 126a6 6 0 0 1 6-6h168a6 6 0 0 1 6 6v58a6 6 0 0 1-6 6H226a6 6 0 0 1-6-6z" stroke="#000" stroke-width="2" fill="#fff"/><use xlink:href="#g" transform="matrix(1,0,0,1,232,132) translate(26.025244779992928 15.645655564730713)"/><use xlink:href="#h" transform="matrix(1,0,0,1,232,132) translate(78.02267573696149 15.645655564730713)"/><use xlink:href="#i" transform="matrix(1,0,0,1,232,132) translate(109.80477894433307 15.645655564730713)"/><use xlink:href="#j" transform="matrix(1,0,0,1,232,132) translate(26.608889413183388 38.566972068210724)"/><use xlink:href="#k" transform="matrix(1,0,0,1,232,132) translate(92.29543994861916 38.566972068210724)"/><path d="M440 126a6 6 0 0 1 6-6h148a6 6 0 0 1 6 6v58a6 6 0 0 1-6 6H446a6 6 0 0 1-6-6z" stroke="#000" stroke-width="2" fill="#fff"/><use xlink:href="#l" transform="matrix(1,0,0,1,452,132) translate(13.370767960363334 15.645655564730713)"/><use xlink:href="#m" transform="matrix(1,0,0,1,452,132) translate(50.458731469466414 38.566972068210724)"/><path d="M640 126a6 6 0 0 1 6-6h188a6 6 0 0 1 6 6v58a6 6 0 0 1-6 6H646a6 6 0 0 1-6-6z" stroke="#000" stroke-width="2" fill="#fff"/><use xlink:href="#n" transform="matrix(1,0,0,1,652,132) translate(42.68073189733225 16.948171309456136)"/><use xlink:href="#o" transform="matrix(1,0,0,1,652,132) translate(95.44033857621126 16.948171309456136)"/><use xlink:href="#p" transform="matrix(1,0,0,1,652,132) translate(12.848967216221345 35.3586317983703)"/><use xlink:href="#q" transform="matrix(1,0,0,1,652,132) translate(104.73080243404296 35.3586317983703)"/><use xlink:href="#r" transform="matrix(1,0,0,1,652,132) translate(117.94201250710636 35.3586317983703)"/><use xlink:href="#s" transform="matrix(1,0,0,1,652,132) translate(143.46947971279982 35.3586317983703)"/><path d="M964.75 107.9a10.8 10.8 0 0 1 10.5 0l79.5 44.2a3.33 3.33 0 0 1 0 5.8l-79.5 44.2a10.8 10.8 0 0 1-10.5 0l-79.5-44.2a3.33 3.33 0 0 1 0-5.8z" stroke="#000" stroke-width="2" fill="#fff"/><use xlink:href="#t" transform="matrix(1,0,0,1,885,110) translate(48.9271019809244 37.95685986793837)"/><use xlink:href="#u" transform="matrix(1,0,0,1,885,110) translate(43.193866471019774 60.269992663242846)"/><use xlink:href="#v" transform="matrix(1,0,0,1,885,110) translate(95.8260014673514 60.269992663242846)"/><path d="M1100 36a6 6 0 0 1 6-6h208a6 6 0 0 1 6 6v48a6 6 0 0 1-6 6h-208a6 6 0 0 1-6-6z" stroke="#000" stroke-width="2" fill="#fff"/><use xlink:href="#w" transform="matrix(1,0,0,1,1112,42) translate(14.114596403178597 12.854035968214138)"/><use xlink:href="#x" transform="matrix(1,0,0,1,1112,42) translate(59.6787954830615 12.854035968214138)"/><use xlink:href="#y" transform="matrix(1,0,0,1,1112,42) translate(112.5671267252196 12.854035968214138)"/><use xlink:href="#z" transform="matrix(1,0,0,1,1112,42) translate(149.33500627352575 12.854035968214138)"/><use xlink:href="#A" transform="matrix(1,0,0,1,1112,42) translate(164.05687996654123 12.854035968214138)"/><use xlink:href="#B" transform="matrix(1,0,0,1,1112,42) translate(78.0443329150983 28.753659556670854)"/><path d="M1100 226a6 6 0 0 1 6-6h208a6 6 0 0 1 6 6v48a6 6 0 0 1-6 6h-208a6 6 0 0 1-6-6z" stroke="#000" stroke-width="2" fill="#fff"/><use xlink:href="#w" transform="matrix(1,0,0,1,1112,232) translate(1.6010037641154415 20.744040150564622)"/><use xlink:href="#C" transform="matrix(1,0,0,1,1112,232) translate(47.165202843998344 20.744040150564622)"/><use xlink:href="#D" transform="matrix(1,0,0,1,1112,232) translate(111.86783772480138 20.744040150564622)"/><use xlink:href="#E" transform="matrix(1,0,0,1,1112,232) translate(139.06649937264746 20.744040150564622)"/><use xlink:href="#F" transform="matrix(1,0,0,1,1112,232) translate(149.33500627352575 20.744040150564622)"/><path d="M1360 126a6 6 0 0 1 6-6h188a6 6 0 0 1 6 6v58a6 6 0 0 1-6 6h-188a6 6 0 0 1-6-6z" stroke="#000" stroke-width="2" fill="#fff"/><use xlink:href="#G" transform="matrix(1,0,0,1,1372,132) translate(6.499678869621068 15.645655564730713)"/><use xlink:href="#H" transform="matrix(1,0,0,1,1372,132) translate(91.18120928525556 15.645655564730713)"/><use xlink:href="#I" transform="matrix(1,0,0,1,1372,132) translate(36.345143066860665 38.566972068210724)"/><use xlink:href="#J" transform="matrix(1,0,0,1,1372,132) translate(83.03671372209773 38.566972068210724)"/><use xlink:href="#K" transform="matrix(1,0,0,1,1372,132) translate(99.48488065746533 38.566972068210724)"/><path d="M1705 120c19.33 0 35 15.67 35 35s-15.67 35-35 35h-70c-19.33 0-35-15.67-35-35s15.67-35 35-35z" stroke="#000" stroke-width="2" fill="#fff"/><use xlink:href="#L" transform="matrix(1,0,0,1,1605,125) translate(19.64689203925845 20.774445656125046)"/><use xlink:href="#M" transform="matrix(1,0,0,1,1605,125) translate(91.17288258814978 20.774445656125046)"/><use xlink:href="#N" transform="matrix(1,0,0,1,1605,125) translate(40.11944747364595 48.412395492548164)"/><path d="M1780 126a6 6 0 0 1 6-6h208a6 6 0 0 1 6 6v58a6 6 0 0 1-6 6h-208a6 6 0 0 1-6-6z" stroke="#000" stroke-width="2" fill="#fff"/><use xlink:href="#O" transform="matrix(1,0,0,1,1792,132) translate(1.4856408844848217 15.645655564730713)"/><use xlink:href="#P" transform="matrix(1,0,0,1,1792,132) translate(70.35570760095949 15.645655564730713)"/><use xlink:href="#Q" transform="matrix(1,0,0,1,1792,132) translate(126.96923702043442 15.645655564730713)"/><use xlink:href="#R" transform="matrix(1,0,0,1,1792,132) translate(72.69028613372133 38.566972068210724)"/><path d="M40 360h360v30H40z" fill="none"/><use xlink:href="#S" transform="matrix(1,0,0,1,45,365) translate(127.98106377053747 11.811751601225287)"/><use xlink:href="#T" transform="matrix(1,0,0,1,45,365) translate(158.78473962684492 11.811751601225287)"/><use xlink:href="#U" transform="matrix(1,0,0,1,45,365) translate(203.3361180729602 11.811751601225287)"/><path d="M220 426a6 6 0 0 1 6-6h248a6 6 0 0 1 6 6v58a6 6 0 0 1-6 6H226a6 6 0 0 1-6-6z" stroke="#000" stroke-width="2" fill="#fff"/><use xlink:href="#V" transform="matrix(1,0,0,1,232,432) translate(55.48708230686629 16.948171309456136)"/><use xlink:href="#r" transform="matrix(1,0,0,1,232,432) translate(138.0358368601689 16.948171309456136)"/><use xlink:href="#W" transform="matrix(1,0,0,1,232,432) translate(163.5633040658624 16.948171309456136)"/><use xlink:href="#X" transform="matrix(1,0,0,1,232,432) translate(0.31962605015475976 35.3586317983703)"/><path d="M520 426a6 6 0 0 1 6-6h168a6 6 0 0 1 6 6v58a6 6 0 0 1-6 6H526a6 6 0 0 1-6-6z" stroke="#000" stroke-width="2" fill="#fff"/><use xlink:href="#Y" transform="matrix(1,0,0,1,532,432) translate(38.838897408674455 15.645655564730713)"/><use xlink:href="#Z" transform="matrix(1,0,0,1,532,432) translate(39.28989553432164 38.566972068210724)"/><path d="M845 420c19.33 0 35 15.67 35 35s-15.67 35-35 35h-70c-19.33 0-35-15.67-35-35s15.67-35 35-35z" stroke="#000" stroke-width="2" fill="#fff"/><use xlink:href="#L" transform="matrix(1,0,0,1,745,425) translate(19.64689203925845 20.774445656125046)"/><use xlink:href="#M" transform="matrix(1,0,0,1,745,425) translate(91.17288258814978 20.774445656125046)"/><use xlink:href="#N" transform="matrix(1,0,0,1,745,425) translate(40.11944747364595 48.412395492548164)"/><path d="M920 426a6 6 0 0 1 6-6h168a6 6 0 0 1 6 6v58a6 6 0 0 1-6 6H926a6 6 0 0 1-6-6z" stroke="#000" stroke-width="2" fill="#fff"/><use xlink:href="#aa" transform="matrix(1,0,0,1,932,432) translate(15.440053478038616 27.31854822853998)"/><use xlink:href="#ab" transform="matrix(1,0,0,1,932,432) translate(92.79949667728366 27.31854822853998)"/><path d="M1140 426a6 6 0 0 1 6-6h208a6 6 0 0 1 6 6v58a6 6 0 0 1-6 6h-208a6 6 0 0 1-6-6z" stroke="#000" stroke-width="2" fill="#e0e7ff"/><use xlink:href="#ac" transform="matrix(1,0,0,1,1152,432) translate(9.126079718978147 27.31854822853998)"/><path d="M182 155h18.5" stroke="#000" stroke-width="2" fill="none"/><path d="M182.03 155.97h-1.1l.07-.97-.07-.97h1.1z" stroke="#000" stroke-width=".05"/><path d="M215.76 155l-14.26 4.63v-9.26z" stroke="#000" stroke-width="2"/><path d="M402 155h18.5" stroke="#000" stroke-width="2" fill="none"/><path d="M402.03 155.97H401v-1.94h1.03z" stroke="#000" stroke-width=".05"/><path d="M435.76 155l-14.26 4.63v-9.26z" stroke="#000" stroke-width="2"/><path d="M602 155h18.5" stroke="#000" stroke-width="2" fill="none"/><path d="M602.03 155.97H601v-1.94h1.03z" stroke="#000" stroke-width=".05"/><path d="M635.76 155l-14.26 4.63v-9.26z" stroke="#000" stroke-width="2"/><path d="M842 155h22.02" stroke="#000" stroke-width="2" fill="none"/><path d="M842.03 155.97H841v-1.94h1.03z" stroke="#000" stroke-width=".05"/><path d="M879.3 155L865 159.63v-9.26z" stroke="#000" stroke-width="2"/><path d="M1079.2 150.04l-.06.9-.22.9-.36.87-.5.8-.6.73-.7.6-.8.5-.88.35-.9.22-.9.07h-14.8v-1.94h14.72l.67-.06.6-.15.6-.24.53-.33.48-.4.4-.5.34-.52.24-.6.15-.6.06-.67V118.3h1.95zm1.38-89.07l-.28.02-.2.04-.18.08-.18.1-.15.13-.14.16-.1.18-.08.18-.05.2-.02.24v34.4h-1.94V62.22l.04-.47.12-.5.2-.46.26-.44.33-.4.4-.32.43-.27.47-.2.5-.1.42-.04z" stroke="#000" stroke-width=".05"/><path d="M1058.5 155.97h-1.14l.12-.97-.1-.92 1.12-.06z"/><path stroke="#000" stroke-width=".05"/><path d="M1095.76 60l-14.26 4.64v-9.27z"/><path d="M1098.92 60l-18.4 5.98V54.02zm-16.45 3.3l10.14-3.3-10.13-3.3z" stroke="#000" stroke-width=".05"/><g><use xlink:href="#ad" transform="matrix(1,0,0,1,1063.5626043318198,96.7) translate(0 14.4)"/></g><path d="M1079.2 247.7l.03.24.05.2.08.18.1.17.13.15.14.13.18.1.18.08.2.05.28.03-.16 1.94-.43-.03-.5-.12-.47-.2-.43-.26-.4-.33-.32-.4-.27-.42-.18-.46-.12-.5-.04-.46V213.3h1.95zm-5.03-93.6l.9.22.88.35.8.5.7.6.62.72.5.8.35.85.22.9.07.9v31.75h-1.94v-31.66l-.05-.67-.14-.6-.24-.6-.33-.53-.42-.48-.48-.4-.54-.34-.58-.24-.6-.15-.68-.06h-14.73v-1.94h14.8z" stroke="#000" stroke-width=".05"/><path d="M1058.5 155.97h-1.14l.12-.97-.1-.92 1.12-.06z"/><path stroke="#000" stroke-width=".05"/><path d="M1095.76 250l-14.26 4.63v-9.26z"/><path d="M1098.92 250l-18.4 5.98v-11.96zm-16.45 3.3l10.14-3.3-10.13-3.3z" stroke="#000" stroke-width=".05"/><g><use xlink:href="#ae" transform="matrix(1,0,0,1,1066.7626043318198,191.7) translate(0 14.4)"/></g><path d="M1322 60h13a5 5 0 0 1 5 5v89.5a.5.5 0 0 0 .5.5" stroke="#000" stroke-width="2" fill="none"/><path d="M1322.03 60.98H1321v-1.95h1.03z" stroke="#000" stroke-width=".05"/><path d="M1355.76 155l-14.26 4.63v-9.26z" stroke="#000" stroke-width="2"/><path d="M1322 250h13a5 5 0 0 0 5-5v-89.5a.5.5 0 0 1 .5-.5" stroke="#000" stroke-width="2" fill="none"/><path d="M1322.03 250.97H1321v-1.94h1.03z" stroke="#000" stroke-width=".05"/><path d="M1355.76 155l-14.26 4.63v-9.26z" stroke="#000" stroke-width="2"/><path d="M1562 155h18.5" stroke="#000" stroke-width="2" fill="none"/><path d="M1562.03 155.97H1561v-1.94h1.03z" stroke="#000" stroke-width=".05"/><path d="M1595.76 155l-14.26 4.63v-9.26z" stroke="#000" stroke-width="2"/><path d="M1742 155h18.5" stroke="#000" stroke-width="2" fill="none"/><path d="M1742.03 155.97h-1.1l.07-.97-.07-.97h1.1z" stroke="#000" stroke-width=".05"/><path d="M1775.76 155l-14.26 4.63v-9.26z" stroke="#000" stroke-width="2"/><path d="M482 455h18.5" stroke="#000" stroke-width="2" fill="none"/><path d="M482.03 455.98H481v-1.96h1.03z" stroke="#000" stroke-width=".05"/><path d="M515.76 455l-14.26 4.63v-9.26z" stroke="#000" stroke-width="2"/><path d="M702 455h18.5" stroke="#000" stroke-width="2" fill="none"/><path d="M702.03 455.98H701v-1.96h1.03z" stroke="#000" stroke-width=".05"/><path d="M735.76 455l-14.26 4.63v-9.26z" stroke="#000" stroke-width="2"/><path d="M882 455h18.5" stroke="#000" stroke-width="2" fill="none"/><path d="M882.03 455.98h-1.1l.07-.98-.07-.98h1.1z" stroke="#000" stroke-width=".05"/><path d="M915.76 455l-14.26 4.63v-9.26z" stroke="#000" stroke-width="2"/><path d="M1102 455h18.5" stroke="#000" stroke-width="2" fill="none"/><path d="M1102.03 455.98H1101v-1.96h1.03z" stroke="#000" stroke-width=".05"/><path d="M1135.76 455l-14.26 4.63v-9.26z" stroke="#000" stroke-width="2"/><path d="M350.48 402.62h-.96v-5.15h.96zm0-10.3h-.96v-10.28h.96zm0-15.43h-.96v-10.3h.96zm0-15.45h-.96v-10.3h.96zm0-15.43h-.96v-10.3h.96zm0-15.44h-.96v-10.3h.96zm-40-40.9h-.96v-10.35h.96zm0-15.5h-.96v-10.35h.96zm0-15.5h-.96v-10.35h.96zm0-15.5h-.96v-10.35h.96zm0-15.5h-.96v-10.35h.96zm0-15.5h-.96v-10.35h.96zm0-15.5h-.96v-5.18h.96z" stroke="#94a3b8" stroke-width=".05" fill="#94a3b8"/><path d="M310.48 191.5h-.96v-.5h.96z" fill="#94a3b8"/><path stroke="#94a3b8" stroke-width=".05" fill="#94a3b8"/><path d="M350 417.38l-4.63-14.26h9.26z" fill="#94a3b8"/><path d="M350 418.92l-5.3-16.28h10.6zm-3.98-15.33l3.98 12.25 3.98-12.26z" stroke="#94a3b8" stroke-width=".05" fill="#94a3b8"/><g><use xlink:href="#af" transform="matrix(1,0,0,1,272.1,294.2) translate(0 14.4)"/><use xlink:href="#ag" transform="matrix(1,0,0,1,272.1,294.2) translate(13.95 14.4)"/></g><defs><path d="M30-248c87 1 191-15 191 75 0 78-77 80-158 76V0H30v-248zm33 125c57 0 124 11 124-50 0-59-68-47-124-48v98" id="ah"/><path d="M100-194c63 0 86 42 84 106H49c0 40 14 67 53 68 26 1 43-12 49-29l28 8c-11 28-37 45-77 45C44 4 14-33 15-96c1-61 26-98 85-98zm52 81c6-60-76-77-97-28-3 7-6 17-6 28h103" id="ai"/><path d="M114-163C36-179 61-72 57 0H25l-1-190h30c1 12-1 29 2 39 6-27 23-49 58-41v29" id="aj"/><path d="M16-82v-28h88v28H16" id="ak"/><path d="M115-194c55 1 70 41 70 98S169 2 115 4C84 4 66-9 55-30l1 105H24l-1-265h31l2 30c10-21 28-34 59-34zm-8 174c40 0 45-34 45-75s-6-73-45-74c-42 0-51 32-51 76 0 43 10 73 51 73" id="al"/><path d="M100-194c62-1 85 37 85 99 1 63-27 99-86 99S16-35 15-95c0-66 28-99 85-99zM99-20c44 1 53-31 53-75 0-43-8-75-51-75s-53 32-53 75 10 74 51 75" id="am"/><g id="a"><use transform="matrix(0.024505708716235034,0,0,0.024505708716235034,0,0)" xlink:href="#ah"/><use transform="matrix(0.024505708716235034,0,0,0.024505708716235034,5.881370091896409,0)" xlink:href="#ai"/><use transform="matrix(0.024505708716235034,0,0,0.024505708716235034,10.782511835143415,0)" xlink:href="#aj"/><use transform="matrix(0.024505708716235034,0,0,0.024505708716235034,13.698691172375383,0)" xlink:href="#ak"/><use transform="matrix(0.024505708716235034,0,0,0.024505708716235034,16.614870509607353,0)" xlink:href="#aj"/><use transform="matrix(0.024505708716235034,0,0,0.024505708716235034,19.531049846839323,0)" xlink:href="#ai"/><use transform="matrix(0.024505708716235034,0,0,0.024505708716235034,24.432191590086333,0)" xlink:href="#al"/><use transform="matrix(0.024505708716235034,0,0,0.024505708716235034,29.333333333333343,0)" xlink:href="#am"/></g><path d="M87 75C49 33 22-17 22-94c0-76 28-126 65-167h31c-38 41-64 92-64 168S80 34 118 75H87" id="an"/><path d="M135-143c-3-34-86-38-87 0 15 53 115 12 119 90S17 21 10-45l28-5c4 36 97 45 98 0-10-56-113-15-118-90-4-57 82-63 122-42 12 7 21 19 24 35" id="ao"/><path d="M108 0H70L1-190h34L89-25l56-165h34" id="ap"/><path d="M24-231v-30h32v30H24zM24 0v-190h32V0H24" id="aq"/><path d="M96-169c-40 0-48 33-48 73s9 75 48 75c24 0 41-14 43-38l32 2c-6 37-31 61-74 61-59 0-76-41-82-99-10-93 101-131 147-64 4 7 5 14 7 22l-32 3c-4-21-16-35-41-35" id="ar"/><path d="M24 0v-261h32V0H24" id="as"/><path d="M141-36C126-15 110 5 73 4 37 3 15-17 15-53c-1-64 63-63 125-63 3-35-9-54-41-54-24 1-41 7-42 31l-33-3c5-37 33-52 76-52 45 0 72 20 72 64v82c-1 20 7 32 28 27v20c-31 9-61-2-59-35zM48-53c0 20 12 33 32 33 41-3 63-29 60-74-43 2-92-5-92 41" id="at"/><g id="b"><use transform="matrix(0.024505708716235034,0,0,0.024505708716235034,0,0)" xlink:href="#an"/><use transform="matrix(0.024505708716235034,0,0,0.024505708716235034,2.9161793372319695,0)" xlink:href="#ao"/><use transform="matrix(0.024505708716235034,0,0,0.024505708716235034,7.3272069061542755,0)" xlink:href="#ai"/><use transform="matrix(0.024505708716235034,0,0,0.024505708716235034,12.228348649401283,0)" xlink:href="#aj"/><use transform="matrix(0.024505708716235034,0,0,0.024505708716235034,15.144527986633252,0)" xlink:href="#ap"/><use transform="matrix(0.024505708716235034,0,0,0.024505708716235034,19.555555555555557,0)" xlink:href="#aq"/><use transform="matrix(0.024505708716235034,0,0,0.024505708716235034,21.491506544138126,0)" xlink:href="#ar"/><use transform="matrix(0.024505708716235034,0,0,0.024505708716235034,25.90253411306043,0)" xlink:href="#ai"/><use transform="matrix(0.024505708716235034,0,0,0.024505708716235034,30.803675856307443,0)" xlink:href="#ak"/><use transform="matrix(0.024505708716235034,0,0,0.024505708716235034,33.71985519353941,0)" xlink:href="#as"/><use transform="matrix(0.024505708716235034,0,0,0.024505708716235034,35.65580618212198,0)" xlink:href="#am"/><use transform="matrix(0.024505708716235034,0,0,0.024505708716235034,40.55694792536899,0)" xlink:href="#ar"/><use transform="matrix(0.024505708716235034,0,0,0.024505708716235034,44.96797549429129,0)" xlink:href="#at"/><use transform="matrix(0.024505708716235034,0,0,0.024505708716235034,49.8691172375383,0)" xlink:href="#as"/></g><path d="M85-194c31 0 48 13 60 33l-1-100h32l1 261h-30c-2-10 0-23-3-31C134-8 116 4 85 4 32 4 16-35 15-94c0-66 23-100 70-100zm9 24c-40 0-46 34-46 75 0 40 6 74 45 74 42 0 51-32 51-76 0-42-9-74-50-73" id="au"/><path d="M33-261c38 41 65 92 65 168S71 34 33 75H2C39 34 66-17 66-93S39-220 2-261h31" id="av"/><g id="c"><use transform="matrix(0.024505708716235034,0,0,0.024505708716235034,0,0)" xlink:href="#au"/><use transform="matrix(0.024505708716235034,0,0,0.024505708716235034,4.901141743247007,0)" xlink:href="#am"/><use transform="matrix(0.024505708716235034,0,0,0.024505708716235034,9.802283486494014,0)" xlink:href="#ar"/><use transform="matrix(0.024505708716235034,0,0,0.024505708716235034,14.213311055416323,0)" xlink:href="#ao"/><use transform="matrix(0.024505708716235034,0,0,0.024505708716235034,18.624338624338627,0)" xlink:href="#av"/></g><path d="M205 0l-28-72H64L36 0H1l101-248h38L239 0h-34zm-38-99l-47-123c-12 45-31 82-46 123h93" id="aw"/><path d="M84 4C-5 8 30-112 23-190h32v120c0 31 7 50 39 49 72-2 45-101 50-169h31l1 190h-30c-1-10 1-25-2-33-11 22-28 36-60 37" id="ax"/><path d="M59-47c-2 24 18 29 38 22v24C64 9 27 4 27-40v-127H5v-23h24l9-43h21v43h35v23H59v120" id="ay"/><path d="M106-169C34-169 62-67 57 0H25v-261h32l-1 103c12-21 28-36 61-36 89 0 53 116 60 194h-32v-121c2-32-8-49-39-48" id="az"/><g id="d"><use transform="matrix(0.06397673573246092,0,0,0.06397673573246092,0,0)" xlink:href="#aw"/><use transform="matrix(0.06397673573246092,0,0,0.06397673573246092,15.354416575790621,0)" xlink:href="#ax"/><use transform="matrix(0.06397673573246092,0,0,0.06397673573246092,28.149763722282806,0)" xlink:href="#ay"/><use transform="matrix(0.06397673573246092,0,0,0.06397673573246092,34.547437295528894,0)" xlink:href="#az"/><use transform="matrix(0.06397673573246092,0,0,0.06397673573246092,47.342784442021085,0)" xlink:href="#am"/><use transform="matrix(0.06397673573246092,0,0,0.06397673573246092,60.13813158851327,0)" xlink:href="#aj"/></g><g id="e"><use transform="matrix(0.06397673573246092,0,0,0.06397673573246092,0,0)" xlink:href="#ai"/><use transform="matrix(0.06397673573246092,0,0,0.06397673573246092,12.795347146492183,0)" xlink:href="#au"/><use transform="matrix(0.06397673573246092,0,0,0.06397673573246092,25.590694292984367,0)" xlink:href="#aq"/><use transform="matrix(0.06397673573246092,0,0,0.06397673573246092,30.644856415848782,0)" xlink:href="#ay"/><use transform="matrix(0.06397673573246092,0,0,0.06397673573246092,37.042529989094874,0)" xlink:href="#ao"/></g><g id="f"><use transform="matrix(0.06397673573246092,0,0,0.06397673573246092,0,0)" xlink:href="#ar"/><use transform="matrix(0.06397673573246092,0,0,0.06397673573246092,11.515812431842965,0)" xlink:href="#am"/><use transform="matrix(0.06397673573246092,0,0,0.06397673573246092,24.31115957833515,0)" xlink:href="#au"/><use transform="matrix(0.06397673573246092,0,0,0.06397673573246092,37.106506724827334,0)" xlink:href="#ai"/></g><path d="M140-251c81 0 123 46 123 126C263-46 219 4 140 4 59 4 17-45 17-125s42-126 123-126zm0 227c63 0 89-41 89-101s-29-99-89-99c-61 0-89 39-89 99S79-25 140-24" id="aA"/><path d="M117-194c89-4 53 116 60 194h-32v-121c0-31-8-49-39-48C34-167 62-67 57 0H25l-1-190h30c1 10-1 24 2 32 11-22 29-35 61-36" id="aB"/><g id="g"><use transform="matrix(0.05305860301731485,0,0,0.05305860301731485,0,0)" xlink:href="#aA"/><use transform="matrix(0.05305860301731485,0,0,0.05305860301731485,14.856408844848158,0)" xlink:href="#al"/><use transform="matrix(0.05305860301731485,0,0,0.05305860301731485,25.468129448311124,0)" xlink:href="#ai"/><use transform="matrix(0.05305860301731485,0,0,0.05305860301731485,36.079850051774095,0)" xlink:href="#aB"/></g><path d="M233-177c-1 41-23 64-60 70L243 0h-38l-65-103H63V0H30v-248c88 3 205-21 203 71zM63-129c60-2 137 13 137-47 0-61-80-42-137-45v92" id="aC"/><g id="h"><use transform="matrix(0.05305860301731485,0,0,0.05305860301731485,0,0)" xlink:href="#ah"/><use transform="matrix(0.05305860301731485,0,0,0.05305860301731485,12.734064724155562,0)" xlink:href="#aC"/></g><g id="i"><use transform="matrix(0.05305860301731485,0,0,0.05305860301731485,0,0)" xlink:href="#am"/><use transform="matrix(0.05305860301731485,0,0,0.05305860301731485,10.611720603462969,0)" xlink:href="#aB"/></g><g id="j"><use transform="matrix(0.05305860301731485,0,0,0.05305860301731485,0,0)" xlink:href="#ao"/><use transform="matrix(0.05305860301731485,0,0,0.05305860301731485,9.550548543116673,0)" xlink:href="#ai"/><use transform="matrix(0.05305860301731485,0,0,0.05305860301731485,20.16226914657964,0)" xlink:href="#aj"/><use transform="matrix(0.05305860301731485,0,0,0.05305860301731485,26.476242905640106,0)" xlink:href="#ap"/><use transform="matrix(0.05305860301731485,0,0,0.05305860301731485,36.02679144875678,0)" xlink:href="#aq"/><use transform="matrix(0.05305860301731485,0,0,0.05305860301731485,40.21842108712465,0)" xlink:href="#ar"/><use transform="matrix(0.05305860301731485,0,0,0.05305860301731485,49.76896963024133,0)" xlink:href="#ai"/></g><g id="k"><use transform="matrix(0.05305860301731485,0,0,0.05305860301731485,0,0)" xlink:href="#aj"/><use transform="matrix(0.05305860301731485,0,0,0.05305860301731485,6.313973759060467,0)" xlink:href="#ai"/><use transform="matrix(0.05305860301731485,0,0,0.05305860301731485,16.925694362523434,0)" xlink:href="#al"/><use transform="matrix(0.05305860301731485,0,0,0.05305860301731485,27.537414965986404,0)" xlink:href="#am"/></g><path d="M101-234c-31-9-42 10-38 44h38v23H63V0H32v-167H5v-23h27c-7-52 17-82 69-68v24" id="aD"/><path d="M33 0v-38h34V0H33" id="aE"/><path d="M179-190L93 31C79 59 56 82 12 73V49c39 6 53-20 64-50L1-190h34L92-34l54-156h33" id="aF"/><path d="M210-169c-67 3-38 105-44 169h-31v-121c0-29-5-50-35-48C34-165 62-65 56 0H25l-1-190h30c1 10-1 24 2 32 10-44 99-50 107 0 11-21 27-35 58-36 85-2 47 119 55 194h-31v-121c0-29-5-49-35-48" id="aG"/><g id="l"><use transform="matrix(0.05305860301731485,0,0,0.05305860301731485,0,0)" xlink:href="#au"/><use transform="matrix(0.05305860301731485,0,0,0.05305860301731485,10.611720603462969,0)" xlink:href="#am"/><use transform="matrix(0.05305860301731485,0,0,0.05305860301731485,21.223441206925937,0)" xlink:href="#ar"/><use transform="matrix(0.05305860301731485,0,0,0.05305860301731485,30.77398975004261,0)" xlink:href="#ak"/><use transform="matrix(0.05305860301731485,0,0,0.05305860301731485,37.087963509103076,0)" xlink:href="#au"/><use transform="matrix(0.05305860301731485,0,0,0.05305860301731485,47.69968411256605,0)" xlink:href="#aj"/><use transform="matrix(0.05305860301731485,0,0,0.05305860301731485,54.01365787162651,0)" xlink:href="#at"/><use transform="matrix(0.05305860301731485,0,0,0.05305860301731485,64.62537847508949,0)" xlink:href="#aD"/><use transform="matrix(0.05305860301731485,0,0,0.05305860301731485,69.93123877682096,0)" xlink:href="#ay"/><use transform="matrix(0.05305860301731485,0,0,0.05305860301731485,75.23709907855245,0)" xlink:href="#aE"/><use transform="matrix(0.05305860301731485,0,0,0.05305860301731485,80.54295938028393,0)" xlink:href="#aF"/><use transform="matrix(0.05305860301731485,0,0,0.05305860301731485,90.09350792340061,0)" xlink:href="#aG"/><use transform="matrix(0.05305860301731485,0,0,0.05305860301731485,105.95803022557774,0)" xlink:href="#as"/></g><g id="m"><use transform="matrix(0.05305860301731485,0,0,0.05305860301731485,0,0)" xlink:href="#aD"/><use transform="matrix(0.05305860301731485,0,0,0.05305860301731485,5.305860301731484,0)" xlink:href="#aq"/><use transform="matrix(0.05305860301731485,0,0,0.05305860301731485,9.497489940099356,0)" xlink:href="#aj"/><use transform="matrix(0.05305860301731485,0,0,0.05305860301731485,15.811463699159821,0)" xlink:href="#ai"/><use transform="matrix(0.05305860301731485,0,0,0.05305860301731485,26.42318430262279,0)" xlink:href="#ao"/></g><path d="M212-179c-10-28-35-45-73-45-59 0-87 40-87 99 0 60 29 101 89 101 43 0 62-24 78-52l27 14C228-24 195 4 139 4 59 4 22-46 18-125c-6-104 99-153 187-111 19 9 31 26 39 46" id="aH"/><g id="n"><use transform="matrix(0.0426168066873013,0,0,0.0426168066873013,0,0)" xlink:href="#aH"/><use transform="matrix(0.0426168066873013,0,0,0.0426168066873013,11.037752932011038,0)" xlink:href="#as"/><use transform="matrix(0.0426168066873013,0,0,0.0426168066873013,14.404480660307842,0)" xlink:href="#at"/><use transform="matrix(0.0426168066873013,0,0,0.0426168066873013,22.927841997768105,0)" xlink:href="#ax"/><use transform="matrix(0.0426168066873013,0,0,0.0426168066873013,31.451203335228364,0)" xlink:href="#au"/><use transform="matrix(0.0426168066873013,0,0,0.0426168066873013,39.97456467268862,0)" xlink:href="#ai"/></g><g id="o"><use transform="matrix(0.0426168066873013,0,0,0.0426168066873013,0,0)" xlink:href="#aj"/><use transform="matrix(0.0426168066873013,0,0,0.0426168066873013,5.071399995788855,0)" xlink:href="#ai"/><use transform="matrix(0.0426168066873013,0,0,0.0426168066873013,13.594761333249114,0)" xlink:href="#at"/><use transform="matrix(0.0426168066873013,0,0,0.0426168066873013,22.118122670709376,0)" xlink:href="#au"/><use transform="matrix(0.0426168066873013,0,0,0.0426168066873013,30.641484008169638,0)" xlink:href="#ao"/></g><path d="M30 0v-248h33v221h125V0H30" id="aI"/><path d="M232-93c-1 65-40 97-104 97C67 4 28-28 28-90v-158h33c8 89-33 224 67 224 102 0 64-133 71-224h33v155" id="aJ"/><path d="M30-248c118-7 216 8 213 122C240-48 200 0 122 0H30v-248zM63-27c89 8 146-16 146-99s-60-101-146-95v194" id="aK"/><path d="M30 0v-248h187v28H63v79h144v27H63v87h162V0H30" id="aL"/><g id="p"><use transform="matrix(0.0426168066873013,0,0,0.0426168066873013,0,0)" xlink:href="#aH"/><use transform="matrix(0.0426168066873013,0,0,0.0426168066873013,11.037752932011038,0)" xlink:href="#aI"/><use transform="matrix(0.0426168066873013,0,0,0.0426168066873013,19.5611142694713,0)" xlink:href="#aw"/><use transform="matrix(0.0426168066873013,0,0,0.0426168066873013,29.789147874423612,0)" xlink:href="#aJ"/><use transform="matrix(0.0426168066873013,0,0,0.0426168066873013,40.82690080643465,0)" xlink:href="#aK"/><use transform="matrix(0.0426168066873013,0,0,0.0426168066873013,51.86465373844569,0)" xlink:href="#aL"/><use transform="matrix(0.0426168066873013,0,0,0.0426168066873013,62.092687343398005,0)" xlink:href="#aE"/><use transform="matrix(0.0426168066873013,0,0,0.0426168066873013,66.35436801212813,0)" xlink:href="#aG"/><use transform="matrix(0.0426168066873013,0,0,0.0426168066873013,79.09679321163122,0)" xlink:href="#au"/></g><path d="M118-107v75H92v-75H18v-26h74v-75h26v75h74v26h-74" id="aM"/><use transform="matrix(0.0426168066873013,0,0,0.0426168066873013,0,0)" xlink:href="#aM" id="q"/><g id="r"><use transform="matrix(0.0426168066873013,0,0,0.0426168066873013,0,0)" xlink:href="#ah"/><use transform="matrix(0.0426168066873013,0,0,0.0426168066873013,10.228033604952312,0)" xlink:href="#aC"/></g><g id="s"><use transform="matrix(0.0426168066873013,0,0,0.0426168066873013,0,0)" xlink:href="#au"/><use transform="matrix(0.0426168066873013,0,0,0.0426168066873013,8.52336133746026,0)" xlink:href="#aq"/><use transform="matrix(0.0426168066873013,0,0,0.0426168066873013,11.890089065757062,0)" xlink:href="#aD"/><use transform="matrix(0.0426168066873013,0,0,0.0426168066873013,15.853452087676086,0)" xlink:href="#aD"/></g><path d="M140-251c81 0 123 46 123 126C263-53 228-8 163 1c7 30 30 48 69 40v23c-55 16-95-15-103-61C56-3 17-48 17-125c0-80 42-126 123-126zm0 227c63 0 89-41 89-101s-29-99-89-99c-61 0-89 39-89 99S79-25 140-24" id="aN"/><g id="t"><use transform="matrix(0.051650770359501094,0,0,0.051650770359501094,0,0)" xlink:href="#aN"/><use transform="matrix(0.051650770359501094,0,0,0.051650770359501094,14.462215700660307,0)" xlink:href="#ax"/><use transform="matrix(0.051650770359501094,0,0,0.051650770359501094,24.792369772560527,0)" xlink:href="#at"/><use transform="matrix(0.051650770359501094,0,0,0.051650770359501094,35.122523844460744,0)" xlink:href="#as"/><use transform="matrix(0.051650770359501094,0,0,0.051650770359501094,39.202934702861334,0)" xlink:href="#aq"/><use transform="matrix(0.051650770359501094,0,0,0.051650770359501094,43.283345561261925,0)" xlink:href="#aD"/><use transform="matrix(0.051650770359501094,0,0,0.051650770359501094,48.44842259721204,0)" xlink:href="#aq"/><use transform="matrix(0.051650770359501094,0,0,0.051650770359501094,52.52883345561263,0)" xlink:href="#ai"/><use transform="matrix(0.051650770359501094,0,0,0.051650770359501094,62.858987527512845,0)" xlink:href="#ao"/></g><g id="u"><use transform="matrix(0.051650770359501094,0,0,0.051650770359501094,0,0)" xlink:href="#ax"/><use transform="matrix(0.051650770359501094,0,0,0.051650770359501094,10.33015407190022,0)" xlink:href="#aB"/><use transform="matrix(0.051650770359501094,0,0,0.051650770359501094,20.66030814380044,0)" xlink:href="#au"/><use transform="matrix(0.051650770359501094,0,0,0.051650770359501094,30.990462215700664,0)" xlink:href="#ai"/><use transform="matrix(0.051650770359501094,0,0,0.051650770359501094,41.32061628760088,0)" xlink:href="#aj"/></g><path d="M31-209c-2-70 138-68 145-6l-28 3c-3-36-88-36-89 0 12 56 121 17 121 91 0 27-17 41-38 48 19 10 37 21 37 48 2 76-153 72-159 7l29-5c2 42 101 43 102 0-13-58-124-24-124-95 0-26 18-41 40-47-20-7-36-18-36-44zm24 89c4 42 95 53 97 3-4-43-95-54-97-3" id="aO"/><path d="M27 0v-27h64v-190l-56 39v-29l58-41h29v221h61V0H27" id="aP"/><path d="M103-251c84 0 111 97 45 133-19 10-37 24-39 52H78c0-63 77-55 77-114 0-30-21-42-52-43-32 0-53 17-56 46l-32-2c7-45 34-72 88-72zM77 0v-35h34V0H77" id="aQ"/><g id="v"><use transform="matrix(0.051650770359501094,0,0,0.051650770359501094,0,0)" xlink:href="#aO"/><use transform="matrix(0.051650770359501094,0,0,0.051650770359501094,10.33015407190022,0)" xlink:href="#aP"/><use transform="matrix(0.051650770359501094,0,0,0.051650770359501094,20.66030814380044,0)" xlink:href="#aQ"/></g><g id="w"><use transform="matrix(0.036804684232538694,0,0,0.036804684232538694,0,0)" xlink:href="#aH"/><use transform="matrix(0.036804684232538694,0,0,0.036804684232538694,9.532413216227523,0)" xlink:href="#as"/><use transform="matrix(0.036804684232538694,0,0,0.036804684232538694,12.439983270598079,0)" xlink:href="#at"/><use transform="matrix(0.036804684232538694,0,0,0.036804684232538694,19.800920117105818,0)" xlink:href="#ax"/><use transform="matrix(0.036804684232538694,0,0,0.036804684232538694,27.16185696361356,0)" xlink:href="#au"/><use transform="matrix(0.036804684232538694,0,0,0.036804684232538694,34.5227938101213,0)" xlink:href="#ai"/></g><g id="x"><use transform="matrix(0.036804684232538694,0,0,0.036804684232538694,0,0)" xlink:href="#ar"/><use transform="matrix(0.036804684232538694,0,0,0.036804684232538694,6.6248431618569645,0)" xlink:href="#am"/><use transform="matrix(0.036804684232538694,0,0,0.036804684232538694,13.985780008364703,0)" xlink:href="#aG"/><use transform="matrix(0.036804684232538694,0,0,0.036804684232538694,24.99038059389377,0)" xlink:href="#aG"/><use transform="matrix(0.036804684232538694,0,0,0.036804684232538694,35.994981179422844,0)" xlink:href="#aq"/><use transform="matrix(0.036804684232538694,0,0,0.036804684232538694,38.902551233793396,0)" xlink:href="#ay"/><use transform="matrix(0.036804684232538694,0,0,0.036804684232538694,42.583019657047274,0)" xlink:href="#ao"/></g><g id="y"><use transform="matrix(0.036804684232538694,0,0,0.036804684232538694,0,0)" xlink:href="#au"/><use transform="matrix(0.036804684232538694,0,0,0.036804684232538694,7.360936846507739,0)" xlink:href="#aj"/><use transform="matrix(0.036804684232538694,0,0,0.036804684232538694,11.740694270179842,0)" xlink:href="#at"/><use transform="matrix(0.036804684232538694,0,0,0.036804684232538694,19.10163111668758,0)" xlink:href="#aD"/><use transform="matrix(0.036804684232538694,0,0,0.036804684232538694,22.78209953994145,0)" xlink:href="#ay"/><use transform="matrix(0.036804684232538694,0,0,0.036804684232538694,26.462567963195323,0)" xlink:href="#ao"/></g><g id="z"><use transform="matrix(0.036804684232538694,0,0,0.036804684232538694,0,0)" xlink:href="#ay"/><use transform="matrix(0.036804684232538694,0,0,0.036804684232538694,3.6804684232538696,0)" xlink:href="#am"/></g><g id="A"><use transform="matrix(0.036804684232538694,0,0,0.036804684232538694,0,0)" xlink:href="#ah"/><use transform="matrix(0.036804684232538694,0,0,0.036804684232538694,8.833124215809287,0)" xlink:href="#aC"/></g><path d="M115-194c53 0 69 39 70 98 0 66-23 100-70 100C84 3 66-7 56-30L54 0H23l1-261h32v101c10-23 28-34 59-34zm-8 174c40 0 45-34 45-75 0-40-5-75-45-74-42 0-51 32-51 76 0 43 10 73 51 73" id="aR"/><g id="B"><use transform="matrix(0.036804684232538694,0,0,0.036804684232538694,0,0)" xlink:href="#aR"/><use transform="matrix(0.036804684232538694,0,0,0.036804684232538694,7.360936846507739,0)" xlink:href="#aj"/><use transform="matrix(0.036804684232538694,0,0,0.036804684232538694,11.740694270179842,0)" xlink:href="#at"/><use transform="matrix(0.036804684232538694,0,0,0.036804684232538694,19.10163111668758,0)" xlink:href="#aB"/><use transform="matrix(0.036804684232538694,0,0,0.036804684232538694,26.462567963195323,0)" xlink:href="#ar"/><use transform="matrix(0.036804684232538694,0,0,0.036804684232538694,33.087411125052284,0)" xlink:href="#az"/></g><g id="C"><use transform="matrix(0.036804684232538694,0,0,0.036804684232538694,0,0)" xlink:href="#ar"/><use transform="matrix(0.036804684232538694,0,0,0.036804684232538694,6.6248431618569645,0)" xlink:href="#am"/><use transform="matrix(0.036804684232538694,0,0,0.036804684232538694,13.985780008364703,0)" xlink:href="#aG"/><use transform="matrix(0.036804684232538694,0,0,0.036804684232538694,24.99038059389377,0)" xlink:href="#aG"/><use transform="matrix(0.036804684232538694,0,0,0.036804684232538694,35.994981179422844,0)" xlink:href="#ai"/><use transform="matrix(0.036804684232538694,0,0,0.036804684232538694,43.355918025930585,0)" xlink:href="#aB"/><use transform="matrix(0.036804684232538694,0,0,0.036804684232538694,50.716854872438326,0)" xlink:href="#ay"/><use transform="matrix(0.036804684232538694,0,0,0.036804684232538694,54.39732329569219,0)" xlink:href="#ao"/></g><path d="M206 0h-36l-40-164L89 0H53L-1-190h32L70-26l43-164h34l41 164 42-164h31" id="aS"/><g id="D"><use transform="matrix(0.036804684232538694,0,0,0.036804684232538694,0,0)" xlink:href="#aS"/><use transform="matrix(0.036804684232538694,0,0,0.036804684232538694,9.532413216227523,0)" xlink:href="#az"/><use transform="matrix(0.036804684232538694,0,0,0.036804684232538694,16.893350062735262,0)" xlink:href="#aF"/></g><g id="E"><use transform="matrix(0.036804684232538694,0,0,0.036804684232538694,0,0)" xlink:href="#aq"/><use transform="matrix(0.036804684232538694,0,0,0.036804684232538694,2.9075700543705567,0)" xlink:href="#ay"/></g><path d="M143 0L79-87 56-68V0H24v-261h32v163l83-92h37l-77 82L181 0h-38" id="aT"/><g id="F"><use transform="matrix(0.036804684232538694,0,0,0.036804684232538694,0,0)" xlink:href="#ao"/><use transform="matrix(0.036804684232538694,0,0,0.036804684232538694,6.6248431618569645,0)" xlink:href="#aT"/><use transform="matrix(0.036804684232538694,0,0,0.036804684232538694,13.249686323713929,0)" xlink:href="#aq"/><use transform="matrix(0.036804684232538694,0,0,0.036804684232538694,16.157256378084487,0)" xlink:href="#al"/><use transform="matrix(0.036804684232538694,0,0,0.036804684232538694,23.518193224592224,0)" xlink:href="#al"/><use transform="matrix(0.036804684232538694,0,0,0.036804684232538694,30.879130071099965,0)" xlink:href="#ai"/><use transform="matrix(0.036804684232538694,0,0,0.036804684232538694,38.240066917607706,0)" xlink:href="#au"/></g><g id="G"><use transform="matrix(0.05305860301731485,0,0,0.05305860301731485,0,0)" xlink:href="#aC"/><use transform="matrix(0.05305860301731485,0,0,0.05305860301731485,13.742178181484546,0)" xlink:href="#ai"/><use transform="matrix(0.05305860301731485,0,0,0.05305860301731485,24.353898784947514,0)" xlink:href="#ap"/><use transform="matrix(0.05305860301731485,0,0,0.05305860301731485,33.90444732806419,0)" xlink:href="#aq"/><use transform="matrix(0.05305860301731485,0,0,0.05305860301731485,38.096076966432065,0)" xlink:href="#ai"/><use transform="matrix(0.05305860301731485,0,0,0.05305860301731485,48.70779756989503,0)" xlink:href="#aS"/><use transform="matrix(0.05305860301731485,0,0,0.05305860301731485,62.449975751379576,0)" xlink:href="#ai"/><use transform="matrix(0.05305860301731485,0,0,0.05305860301731485,73.06169635484255,0)" xlink:href="#aj"/></g><g id="H"><use transform="matrix(0.05305860301731485,0,0,0.05305860301731485,0,0)" xlink:href="#at"/><use transform="matrix(0.05305860301731485,0,0,0.05305860301731485,10.611720603462969,0)" xlink:href="#al"/><use transform="matrix(0.05305860301731485,0,0,0.05305860301731485,21.223441206925937,0)" xlink:href="#al"/><use transform="matrix(0.05305860301731485,0,0,0.05305860301731485,31.835161810388904,0)" xlink:href="#aj"/><use transform="matrix(0.05305860301731485,0,0,0.05305860301731485,38.14913556944938,0)" xlink:href="#am"/><use transform="matrix(0.05305860301731485,0,0,0.05305860301731485,48.76085617291234,0)" xlink:href="#ap"/><use transform="matrix(0.05305860301731485,0,0,0.05305860301731485,58.31140471602902,0)" xlink:href="#ai"/><use transform="matrix(0.05305860301731485,0,0,0.05305860301731485,68.92312531949199,0)" xlink:href="#ao"/></g><g id="I"><use transform="matrix(0.05305860301731485,0,0,0.05305860301731485,0,0)" xlink:href="#ar"/><use transform="matrix(0.05305860301731485,0,0,0.05305860301731485,9.550548543116673,0)" xlink:href="#am"/><use transform="matrix(0.05305860301731485,0,0,0.05305860301731485,20.16226914657964,0)" xlink:href="#au"/><use transform="matrix(0.05305860301731485,0,0,0.05305860301731485,30.77398975004261,0)" xlink:href="#ai"/></g><use transform="matrix(0.05305860301731485,0,0,0.05305860301731485,0,0)" xlink:href="#aM" id="J"/><g id="K"><use transform="matrix(0.05305860301731485,0,0,0.05305860301731485,0,0)" xlink:href="#au"/><use transform="matrix(0.05305860301731485,0,0,0.05305860301731485,10.611720603462969,0)" xlink:href="#am"/><use transform="matrix(0.05305860301731485,0,0,0.05305860301731485,21.223441206925937,0)" xlink:href="#ar"/><use transform="matrix(0.05305860301731485,0,0,0.05305860301731485,30.77398975004261,0)" xlink:href="#ao"/></g><path d="M240 0l2-218c-23 76-54 145-80 218h-23L58-218 59 0H30v-248h44l77 211c21-75 51-140 76-211h43V0h-30" id="aU"/><path d="M177-190C167-65 218 103 67 71c-23-6-38-20-44-43l32-5c15 47 100 32 89-28v-30C133-14 115 1 83 1 29 1 15-40 15-95c0-56 16-97 71-98 29-1 48 16 59 35 1-10 0-23 2-32h30zM94-22c36 0 50-32 50-73 0-42-14-75-50-75-39 0-46 34-46 75s6 73 46 73" id="aV"/><g id="L"><use transform="matrix(0.06397673573246092,0,0,0.06397673573246092,0,0)" xlink:href="#aU"/><use transform="matrix(0.06397673573246092,0,0,0.06397673573246092,19.12904398400582,0)" xlink:href="#ai"/><use transform="matrix(0.06397673573246092,0,0,0.06397673573246092,31.924391130498,0)" xlink:href="#aj"/><use transform="matrix(0.06397673573246092,0,0,0.06397673573246092,39.53762268266085,0)" xlink:href="#aV"/><use transform="matrix(0.06397673573246092,0,0,0.06397673573246092,52.33296982915304,0)" xlink:href="#ai"/></g><g id="M"><use transform="matrix(0.06397673573246092,0,0,0.06397673573246092,0,0)" xlink:href="#ay"/><use transform="matrix(0.06397673573246092,0,0,0.06397673573246092,6.397673573246092,0)" xlink:href="#am"/></g><g id="N"><use transform="matrix(0.06397673573246092,0,0,0.06397673573246092,0,0)" xlink:href="#aG"/><use transform="matrix(0.06397673573246092,0,0,0.06397673573246092,19.12904398400582,0)" xlink:href="#at"/><use transform="matrix(0.06397673573246092,0,0,0.06397673573246092,31.924391130498,0)" xlink:href="#aq"/><use transform="matrix(0.06397673573246092,0,0,0.06397673573246092,36.97855325336241,0)" xlink:href="#aB"/></g><path d="M185-189c-5-48-123-54-124 2 14 75 158 14 163 119 3 78-121 87-175 55-17-10-28-26-33-46l33-7c5 56 141 63 141-1 0-78-155-14-162-118-5-82 145-84 179-34 5 7 8 16 11 25" id="aW"/><g id="O"><use transform="matrix(0.05305860301731485,0,0,0.05305860301731485,0,0)" xlink:href="#aW"/><use transform="matrix(0.05305860301731485,0,0,0.05305860301731485,12.734064724155562,0)" xlink:href="#ai"/><use transform="matrix(0.05305860301731485,0,0,0.05305860301731485,23.34578532761853,0)" xlink:href="#aj"/><use transform="matrix(0.05305860301731485,0,0,0.05305860301731485,29.659759086678992,0)" xlink:href="#ap"/><use transform="matrix(0.05305860301731485,0,0,0.05305860301731485,39.21030762979567,0)" xlink:href="#aq"/><use transform="matrix(0.05305860301731485,0,0,0.05305860301731485,43.40193726816355,0)" xlink:href="#ar"/><use transform="matrix(0.05305860301731485,0,0,0.05305860301731485,52.95248581128022,0)" xlink:href="#ai"/></g><path d="M47-170H22l-4-78h33" id="aX"/><g id="P"><use transform="matrix(0.05305860301731485,0,0,0.05305860301731485,0,0)" xlink:href="#aj"/><use transform="matrix(0.05305860301731485,0,0,0.05305860301731485,6.313973759060467,0)" xlink:href="#ai"/><use transform="matrix(0.05305860301731485,0,0,0.05305860301731485,16.925694362523434,0)" xlink:href="#al"/><use transform="matrix(0.05305860301731485,0,0,0.05305860301731485,27.537414965986404,0)" xlink:href="#am"/><use transform="matrix(0.05305860301731485,0,0,0.05305860301731485,38.14913556944938,0)" xlink:href="#aX"/><use transform="matrix(0.05305860301731485,0,0,0.05305860301731485,41.75712057462678,0)" xlink:href="#ao"/></g><path d="M143 4C61 4 22-44 18-125c-5-107 100-154 193-111 17 8 29 25 37 43l-32 9c-13-25-37-40-76-40-61 0-88 39-88 99 0 61 29 100 91 101 35 0 62-11 79-27v-45h-74v-28h105v86C228-13 192 4 143 4" id="aY"/><path d="M160-131c35 5 61 23 61 61C221 17 115-2 30 0v-248c76 3 177-17 177 60 0 33-19 50-47 57zm-97-11c50-1 110 9 110-42 0-47-63-36-110-37v79zm0 115c55-2 124 14 124-45 0-56-70-42-124-44v89" id="aZ"/><g id="Q"><use transform="matrix(0.05305860301731485,0,0,0.05305860301731485,0,0)" xlink:href="#aY"/><use transform="matrix(0.05305860301731485,0,0,0.05305860301731485,14.856408844848158,0)" xlink:href="#aq"/><use transform="matrix(0.05305860301731485,0,0,0.05305860301731485,19.04803848321603,0)" xlink:href="#ay"/><use transform="matrix(0.05305860301731485,0,0,0.05305860301731485,24.35389878494751,0)" xlink:href="#aZ"/><use transform="matrix(0.05305860301731485,0,0,0.05305860301731485,37.087963509103076,0)" xlink:href="#am"/><use transform="matrix(0.05305860301731485,0,0,0.05305860301731485,47.69968411256605,0)" xlink:href="#am"/><use transform="matrix(0.05305860301731485,0,0,0.05305860301731485,58.31140471602902,0)" xlink:href="#aT"/></g><g id="R"><use transform="matrix(0.05305860301731485,0,0,0.05305860301731485,0,0)" xlink:href="#ao"/><use transform="matrix(0.05305860301731485,0,0,0.05305860301731485,9.550548543116673,0)" xlink:href="#al"/><use transform="matrix(0.05305860301731485,0,0,0.05305860301731485,20.16226914657964,0)" xlink:href="#at"/><use transform="matrix(0.05305860301731485,0,0,0.05305860301731485,30.77398975004261,0)" xlink:href="#ar"/><use transform="matrix(0.05305860301731485,0,0,0.05305860301731485,40.32453829315928,0)" xlink:href="#ai"/></g><g id="S"><use transform="matrix(0.024505708716235034,0,0,0.024505708716235034,0,0)" xlink:href="#aH"/><use transform="matrix(0.024505708716235034,0,0,0.024505708716235034,6.346978557504875,0)" xlink:href="#ai"/><use transform="matrix(0.024505708716235034,0,0,0.024505708716235034,11.248120300751882,0)" xlink:href="#aB"/><use transform="matrix(0.024505708716235034,0,0,0.024505708716235034,16.149262043998892,0)" xlink:href="#ay"/><use transform="matrix(0.024505708716235034,0,0,0.024505708716235034,18.599832915622393,0)" xlink:href="#aj"/><use transform="matrix(0.024505708716235034,0,0,0.024505708716235034,21.516012252854363,0)" xlink:href="#at"/><use transform="matrix(0.024505708716235034,0,0,0.024505708716235034,26.417153996101373,0)" xlink:href="#as"/></g><g id="T"><use transform="matrix(0.024505708716235034,0,0,0.024505708716235034,0,0)" xlink:href="#aT"/><use transform="matrix(0.024505708716235034,0,0,0.024505708716235034,4.411027568922306,0)" xlink:href="#aB"/><use transform="matrix(0.024505708716235034,0,0,0.024505708716235034,9.312169312169313,0)" xlink:href="#am"/><use transform="matrix(0.024505708716235034,0,0,0.024505708716235034,14.213311055416323,0)" xlink:href="#aS"/><use transform="matrix(0.024505708716235034,0,0,0.024505708716235034,20.560289612921196,0)" xlink:href="#as"/><use transform="matrix(0.024505708716235034,0,0,0.024505708716235034,22.496240601503764,0)" xlink:href="#ai"/><use transform="matrix(0.024505708716235034,0,0,0.024505708716235034,27.397382344750774,0)" xlink:href="#au"/><use transform="matrix(0.024505708716235034,0,0,0.024505708716235034,32.298524087997784,0)" xlink:href="#aV"/><use transform="matrix(0.024505708716235034,0,0,0.024505708716235034,37.199665831244786,0)" xlink:href="#ai"/></g><g id="U"><use transform="matrix(0.024505708716235034,0,0,0.024505708716235034,0,0)" xlink:href="#aR"/><use transform="matrix(0.024505708716235034,0,0,0.024505708716235034,4.901141743247007,0)" xlink:href="#at"/><use transform="matrix(0.024505708716235034,0,0,0.024505708716235034,9.802283486494014,0)" xlink:href="#ao"/><use transform="matrix(0.024505708716235034,0,0,0.024505708716235034,14.213311055416323,0)" xlink:href="#ai"/></g><g id="V"><use transform="matrix(0.0426168066873013,0,0,0.0426168066873013,0,0)" xlink:href="#aH"/><use transform="matrix(0.0426168066873013,0,0,0.0426168066873013,11.037752932011038,0)" xlink:href="#am"/><use transform="matrix(0.0426168066873013,0,0,0.0426168066873013,19.5611142694713,0)" xlink:href="#aG"/><use transform="matrix(0.0426168066873013,0,0,0.0426168066873013,32.30353946897439,0)" xlink:href="#al"/><use transform="matrix(0.0426168066873013,0,0,0.0426168066873013,40.82690080643465,0)" xlink:href="#at"/><use transform="matrix(0.0426168066873013,0,0,0.0426168066873013,49.3502621438949,0)" xlink:href="#aB"/><use transform="matrix(0.0426168066873013,0,0,0.0426168066873013,57.873623481355175,0)" xlink:href="#aq"/><use transform="matrix(0.0426168066873013,0,0,0.0426168066873013,61.240351209651976,0)" xlink:href="#am"/><use transform="matrix(0.0426168066873013,0,0,0.0426168066873013,69.76371254711223,0)" xlink:href="#aB"/></g><g id="W"><use transform="matrix(0.0426168066873013,0,0,0.0426168066873013,0,0)" xlink:href="#am"/><use transform="matrix(0.0426168066873013,0,0,0.0426168066873013,8.52336133746026,0)" xlink:href="#aB"/></g><path d="M137 0h-34L2-248h35l83 218 83-218h36" id="ba"/><path d="M0 4l72-265h28L28 4H0" id="bb"/><g id="X"><use transform="matrix(0.0426168066873013,0,0,0.0426168066873013,0,0)" xlink:href="#ba"/><use transform="matrix(0.0426168066873013,0,0,0.0426168066873013,9.929715958141204,0)" xlink:href="#aq"/><use transform="matrix(0.0426168066873013,0,0,0.0426168066873013,13.296443686438009,0)" xlink:href="#ao"/><use transform="matrix(0.0426168066873013,0,0,0.0426168066873013,20.96746889015224,0)" xlink:href="#aq"/><use transform="matrix(0.0426168066873013,0,0,0.0426168066873013,24.33419661844904,0)" xlink:href="#am"/><use transform="matrix(0.0426168066873013,0,0,0.0426168066873013,32.8575579559093,0)" xlink:href="#aB"/><use transform="matrix(0.0426168066873013,0,0,0.0426168066873013,41.38091929336956,0)" xlink:href="#at"/><use transform="matrix(0.0426168066873013,0,0,0.0426168066873013,49.904280630829824,0)" xlink:href="#aj"/><use transform="matrix(0.0426168066873013,0,0,0.0426168066873013,54.975680626618676,0)" xlink:href="#aF"/><use transform="matrix(0.0426168066873013,0,0,0.0426168066873013,62.64670583033291,0)" xlink:href="#ak"/><use transform="matrix(0.0426168066873013,0,0,0.0426168066873013,67.71810582612177,0)" xlink:href="#aW"/><use transform="matrix(0.0426168066873013,0,0,0.0426168066873013,77.94613943107409,0)" xlink:href="#am"/><use transform="matrix(0.0426168066873013,0,0,0.0426168066873013,86.46950076853435,0)" xlink:href="#as"/><use transform="matrix(0.0426168066873013,0,0,0.0426168066873013,89.83622849683114,0)" xlink:href="#ax"/><use transform="matrix(0.0426168066873013,0,0,0.0426168066873013,98.35958983429141,0)" xlink:href="#ay"/><use transform="matrix(0.0426168066873013,0,0,0.0426168066873013,102.62127050302153,0)" xlink:href="#aq"/><use transform="matrix(0.0426168066873013,0,0,0.0426168066873013,105.98799823131836,0)" xlink:href="#am"/><use transform="matrix(0.0426168066873013,0,0,0.0426168066873013,114.51135956877862,0)" xlink:href="#aB"/><use transform="matrix(0.0426168066873013,0,0,0.0426168066873013,123.03472090623887,0)" xlink:href="#ao"/><use transform="matrix(0.0426168066873013,0,0,0.0426168066873013,130.7057461099531,0)" xlink:href="#bb"/><use transform="matrix(0.0426168066873013,0,0,0.0426168066873013,134.96742677868323,0)" xlink:href="#au"/><use transform="matrix(0.0426168066873013,0,0,0.0426168066873013,143.4907881161435,0)" xlink:href="#am"/><use transform="matrix(0.0426168066873013,0,0,0.0426168066873013,152.01414945360375,0)" xlink:href="#ar"/><use transform="matrix(0.0426168066873013,0,0,0.0426168066873013,159.685174657318,0)" xlink:href="#ax"/><use transform="matrix(0.0426168066873013,0,0,0.0426168066873013,168.20853599477826,0)" xlink:href="#aG"/><use transform="matrix(0.0426168066873013,0,0,0.0426168066873013,180.95096119428132,0)" xlink:href="#ai"/><use transform="matrix(0.0426168066873013,0,0,0.0426168066873013,189.47432253174156,0)" xlink:href="#aB"/><use transform="matrix(0.0426168066873013,0,0,0.0426168066873013,197.99768386920186,0)" xlink:href="#ay"/><use transform="matrix(0.0426168066873013,0,0,0.0426168066873013,202.25936453793202,0)" xlink:href="#at"/><use transform="matrix(0.0426168066873013,0,0,0.0426168066873013,210.78272587539223,0)" xlink:href="#ay"/><use transform="matrix(0.0426168066873013,0,0,0.0426168066873013,215.04440654412238,0)" xlink:href="#aq"/><use transform="matrix(0.0426168066873013,0,0,0.0426168066873013,218.41113427241916,0)" xlink:href="#am"/><use transform="matrix(0.0426168066873013,0,0,0.0426168066873013,226.9344956098794,0)" xlink:href="#aB"/></g><g id="Y"><use transform="matrix(0.05305860301731485,0,0,0.05305860301731485,0,0)" xlink:href="#aC"/><use transform="matrix(0.05305860301731485,0,0,0.05305860301731485,13.742178181484546,0)" xlink:href="#ai"/><use transform="matrix(0.05305860301731485,0,0,0.05305860301731485,24.353898784947514,0)" xlink:href="#ap"/><use transform="matrix(0.05305860301731485,0,0,0.05305860301731485,33.90444732806419,0)" xlink:href="#aq"/><use transform="matrix(0.05305860301731485,0,0,0.05305860301731485,38.096076966432065,0)" xlink:href="#ai"/><use transform="matrix(0.05305860301731485,0,0,0.05305860301731485,48.70779756989503,0)" xlink:href="#aS"/><use transform="matrix(0.05305860301731485,0,0,0.05305860301731485,62.449975751379576,0)" xlink:href="#ai"/><use transform="matrix(0.05305860301731485,0,0,0.05305860301731485,73.06169635484255,0)" xlink:href="#aj"/></g><g id="Z"><use transform="matrix(0.05305860301731485,0,0,0.05305860301731485,0,0)" xlink:href="#at"/><use transform="matrix(0.05305860301731485,0,0,0.05305860301731485,10.611720603462969,0)" xlink:href="#al"/><use transform="matrix(0.05305860301731485,0,0,0.05305860301731485,21.223441206925937,0)" xlink:href="#al"/><use transform="matrix(0.05305860301731485,0,0,0.05305860301731485,31.835161810388904,0)" xlink:href="#aj"/><use transform="matrix(0.05305860301731485,0,0,0.05305860301731485,38.14913556944938,0)" xlink:href="#am"/><use transform="matrix(0.05305860301731485,0,0,0.05305860301731485,48.76085617291234,0)" xlink:href="#ap"/><use transform="matrix(0.05305860301731485,0,0,0.05305860301731485,58.31140471602902,0)" xlink:href="#ai"/><use transform="matrix(0.05305860301731485,0,0,0.05305860301731485,68.92312531949199,0)" xlink:href="#ao"/></g><g id="aa"><use transform="matrix(0.05305860301731485,0,0,0.05305860301731485,0,0)" xlink:href="#ap"/><use transform="matrix(0.05305860301731485,0,0,0.05305860301731485,9.550548543116673,0)" xlink:href="#ao"/><use transform="matrix(0.05305860301731485,0,0,0.05305860301731485,19.101097086233345,0)" xlink:href="#ak"/><use transform="matrix(0.05305860301731485,0,0,0.05305860301731485,25.41507084529381,0)" xlink:href="#ax"/><use transform="matrix(0.05305860301731485,0,0,0.05305860301731485,36.02679144875678,0)" xlink:href="#ao"/><use transform="matrix(0.05305860301731485,0,0,0.05305860301731485,45.57733999187345,0)" xlink:href="#ai"/><use transform="matrix(0.05305860301731485,0,0,0.05305860301731485,56.18906059533642,0)" xlink:href="#aj"/><use transform="matrix(0.05305860301731485,0,0,0.05305860301731485,62.50303435439689,0)" xlink:href="#ao"/></g><g id="ab"><use transform="matrix(0.05305860301731485,0,0,0.05305860301731485,0,0)" xlink:href="#ao"/><use transform="matrix(0.05305860301731485,0,0,0.05305860301731485,9.550548543116673,0)" xlink:href="#aF"/><use transform="matrix(0.05305860301731485,0,0,0.05305860301731485,19.101097086233345,0)" xlink:href="#aB"/><use transform="matrix(0.05305860301731485,0,0,0.05305860301731485,29.712817689696315,0)" xlink:href="#ar"/><use transform="matrix(0.05305860301731485,0,0,0.05305860301731485,39.263366232812984,0)" xlink:href="#ao"/></g><g id="ac"><use transform="matrix(0.05305860301731485,0,0,0.05305860301731485,0,0)" xlink:href="#au"/><use transform="matrix(0.05305860301731485,0,0,0.05305860301731485,10.611720603462969,0)" xlink:href="#am"/><use transform="matrix(0.05305860301731485,0,0,0.05305860301731485,21.223441206925937,0)" xlink:href="#ar"/><use transform="matrix(0.05305860301731485,0,0,0.05305860301731485,30.77398975004261,0)" xlink:href="#ao"/><use transform="matrix(0.05305860301731485,0,0,0.05305860301731485,40.32453829315928,0)" xlink:href="#aE"/><use transform="matrix(0.05305860301731485,0,0,0.05305860301731485,45.630398594890764,0)" xlink:href="#ap"/><use transform="matrix(0.05305860301731485,0,0,0.05305860301731485,55.18094713800744,0)" xlink:href="#aq"/><use transform="matrix(0.05305860301731485,0,0,0.05305860301731485,59.37257677637531,0)" xlink:href="#ao"/><use transform="matrix(0.05305860301731485,0,0,0.05305860301731485,68.92312531949199,0)" xlink:href="#aq"/><use transform="matrix(0.05305860301731485,0,0,0.05305860301731485,73.11475495785986,0)" xlink:href="#am"/><use transform="matrix(0.05305860301731485,0,0,0.05305860301731485,83.72647556132283,0)" xlink:href="#aB"/><use transform="matrix(0.05305860301731485,0,0,0.05305860301731485,94.3381961647858,0)" xlink:href="#at"/><use transform="matrix(0.05305860301731485,0,0,0.05305860301731485,104.94991676824877,0)" xlink:href="#aj"/><use transform="matrix(0.05305860301731485,0,0,0.05305860301731485,111.26389052730923,0)" xlink:href="#aF"/><use transform="matrix(0.05305860301731485,0,0,0.05305860301731485,120.8144390704259,0)" xlink:href="#at"/><use transform="matrix(0.05305860301731485,0,0,0.05305860301731485,131.42615967388886,0)" xlink:href="#ax"/><use transform="matrix(0.05305860301731485,0,0,0.05305860301731485,142.03788027735186,0)" xlink:href="#ay"/><use transform="matrix(0.05305860301731485,0,0,0.05305860301731485,147.34374057908335,0)" xlink:href="#am"/><use transform="matrix(0.05305860301731485,0,0,0.05305860301731485,157.95546118254632,0)" xlink:href="#aE"/><use transform="matrix(0.05305860301731485,0,0,0.05305860301731485,163.2613214842778,0)" xlink:href="#at"/><use transform="matrix(0.05305860301731485,0,0,0.05305860301731485,173.87304208774077,0)" xlink:href="#aq"/></g><path d="M137-103V0h-34v-103L8-248h37l75 118 75-118h37" id="bc"/><g id="ad"><use transform="matrix(0.05,0,0,0.05,0,0)" xlink:href="#bc"/><use transform="matrix(0.05,0,0,0.05,10.35,0)" xlink:href="#ai"/><use transform="matrix(0.05,0,0,0.05,20.35,0)" xlink:href="#ao"/></g><path d="M190 0L58-211 59 0H30v-248h39L202-35l-2-213h31V0h-41" id="bd"/><g id="ae"><use transform="matrix(0.05,0,0,0.05,0,0)" xlink:href="#bd"/><use transform="matrix(0.05,0,0,0.05,12.950000000000001,0)" xlink:href="#am"/></g><g id="af"><use transform="matrix(0.05,0,0,0.05,0,0)" xlink:href="#aq"/><use transform="matrix(0.05,0,0,0.05,3.95,0)" xlink:href="#aD"/></g><g id="ag"><use transform="matrix(0.05,0,0,0.05,0,0)" xlink:href="#ar"/><use transform="matrix(0.05,0,0,0.05,9,0)" xlink:href="#aj"/><use transform="matrix(0.05,0,0,0.05,14.949999999999998,0)" xlink:href="#am"/><use transform="matrix(0.05,0,0,0.05,24.95,0)" xlink:href="#ao"/><use transform="matrix(0.05,0,0,0.05,33.95,0)" xlink:href="#ao"/><use transform="matrix(0.05,0,0,0.05,42.95,0)" xlink:href="#ak"/><use transform="matrix(0.05,0,0,0.05,48.900000000000006,0)" xlink:href="#ar"/><use transform="matrix(0.05,0,0,0.05,57.900000000000006,0)" xlink:href="#ax"/><use transform="matrix(0.05,0,0,0.05,67.9,0)" xlink:href="#ay"/><use transform="matrix(0.05,0,0,0.05,72.9,0)" xlink:href="#ay"/><use transform="matrix(0.05,0,0,0.05,77.9,0)" xlink:href="#aq"/><use transform="matrix(0.05,0,0,0.05,81.85000000000001,0)" xlink:href="#aB"/><use transform="matrix(0.05,0,0,0.05,91.85000000000001,0)" xlink:href="#aV"/></g></defs></g></svg>