<svg xmlns="http://www.w3.org/2000/svg" xmlns:xlink="http://www.w3.org/1999/xlink" xmlns:lucid="lucid" width="1972" height="371"><g transform="translate(-39 -40)" lucid:page-tab-id="page1"><path d="M40 40h320v25H40z" fill="none"/><use xlink:href="#a" transform="matrix(1,0,0,1,45,45) translate(80.29012345679013 12.444444444444445)"/><use xlink:href="#b" transform="matrix(1,0,0,1,45,45) translate(139.87654320987656 12.444444444444445)"/><use xlink:href="#c" transform="matrix(1,0,0,1,45,45) translate(157.1604938271605 12.444444444444445)"/><use xlink:href="#d" transform="matrix(1,0,0,1,45,45) translate(198.64197530864197 12.444444444444445)"/><path d="M210 80c16.57 0 30 13.43 30 30s-13.43 30-30 30H70c-16.57 0-30-13.43-30-30s13.43-30 30-30z" stroke="#000" stroke-width="2" fill="#fff"/><use xlink:href="#e" transform="matrix(1,0,0,1,45,85) translate(38.73410182516809 17.419308357348708)"/><use xlink:href="#f" transform="matrix(1,0,0,1,45,85) translate(133.29958373358951 17.419308357348708)"/><use xlink:href="#g" transform="matrix(1,0,0,1,45,85) translate(54.513800832532816 41.76512968299713)"/><path d="M270 86a6 6 0 0 1 6-6h228a6 6 0 0 1 6 6v48a6 6 0 0 1-6 6H276a6 6 0 0 1-6-6z" stroke="#000" stroke-width="2" fill="#fff"/><use xlink:href="#h" transform="matrix(1,0,0,1,282,92) translate(5.465495608531984 12.854035968214138)"/><use xlink:href="#i" transform="matrix(1,0,0,1,282,92) translate(49.55750731911334 12.854035968214138)"/><use xlink:href="#j" transform="matrix(1,0,0,1,282,92) translate(84.11710581346718 12.854035968214138)"/><use xlink:href="#k" transform="matrix(1,0,0,1,282,92) translate(95.52655792555416 12.854035968214138)"/><use xlink:href="#l" transform="matrix(1,0,0,1,282,92) translate(113.8184859891259 12.854035968214138)"/><use xlink:href="#m" transform="matrix(1,0,0,1,282,92) translate(173.44207444583859 12.854035968214138)"/><use xlink:href="#n" transform="matrix(1,0,0,1,282,92) translate(65.91718946047679 28.753659556670854)"/><use xlink:href="#o" transform="matrix(1,0,0,1,282,92) translate(82.84734420744459 28.753659556670854)"/><use xlink:href="#p" transform="matrix(1,0,0,1,282,92) translate(97.56921790046009 28.753659556670854)"/><path d="M540 86a6 6 0 0 1 6-6h228a6 6 0 0 1 6 6v48a6 6 0 0 1-6 6H546a6 6 0 0 1-6-6z" stroke="#000" stroke-width="2" fill="#fff"/><use xlink:href="#q" transform="matrix(1,0,0,1,552,92) translate(57.81408168378852 21.175895765472312)"/><use xlink:href="#r" transform="matrix(1,0,0,1,552,92) translate(100.14933600601353 21.175895765472312)"/><path d="M810 86a6 6 0 0 1 6-6h208a6 6 0 0 1 6 6v48a6 6 0 0 1-6 6H816a6 6 0 0 1-6-6z" stroke="#000" stroke-width="2" fill="#fff"/><use xlink:href="#s" transform="matrix(1,0,0,1,822,92) translate(34.30196570472606 12.854035968214138)"/><use xlink:href="#t" transform="matrix(1,0,0,1,822,92) translate(69.59765788373066 12.854035968214138)"/><use xlink:href="#u" transform="matrix(1,0,0,1,822,92) translate(123.33249686323717 12.854035968214138)"/><use xlink:href="#v" transform="matrix(1,0,0,1,822,92) translate(56.03513174404016 28.753659556670854)"/><path d="M1060 86a6 6 0 0 1 6-6h188a6 6 0 0 1 6 6v48a6 6 0 0 1-6 6h-188a6 6 0 0 1-6-6z" stroke="#000" stroke-width="2" fill="#fff"/><use xlink:href="#w" transform="matrix(1,0,0,1,1072,92) translate(5.79904785767977 21.175895765472312)"/><use xlink:href="#x" transform="matrix(1,0,0,1,1072,92) translate(75.47582059634176 21.175895765472312)"/><use xlink:href="#y" transform="matrix(1,0,0,1,1072,92) translate(132.71661237785017 21.175895765472312)"/><path d="M1500 80c16.57 0 30 13.43 30 30s-13.43 30-30 30h-180c-16.57 0-30-13.43-30-30s13.43-30 30-30z" stroke="#000" stroke-width="2" fill="#fee2e2"/><use xlink:href="#z" transform="matrix(1,0,0,1,1295,85) translate(35.81428113992957 29.306916426512977)"/><use xlink:href="#A" transform="matrix(1,0,0,1,1295,85) translate(101.86359269932758 29.306916426512977)"/><use xlink:href="#B" transform="matrix(1,0,0,1,1295,85) translate(130.0416266410503 29.306916426512977)"/><path d="M270 170h400v24H270z" fill="none"/><use xlink:href="#C" transform="matrix(1,0,0,1,275,175) translate(84.51234567901236 12.444444444444445)"/><use xlink:href="#D" transform="matrix(1,0,0,1,275,175) translate(162.1604938271605 12.444444444444445)"/><use xlink:href="#E" transform="matrix(1,0,0,1,275,175) translate(208.82716049382717 12.444444444444445)"/><use xlink:href="#F" transform="matrix(1,0,0,1,275,175) translate(247.67283950617283 12.444444444444445)"/><path d="M40 200h360v25H40z" fill="none"/><use xlink:href="#a" transform="matrix(1,0,0,1,45,205) translate(58.1820987654321 12.444444444444445)"/><use xlink:href="#G" transform="matrix(1,0,0,1,45,205) translate(117.76851851851852 12.444444444444445)"/><use xlink:href="#c" transform="matrix(1,0,0,1,45,205) translate(135.05246913580248 12.444444444444445)"/><use xlink:href="#H" transform="matrix(1,0,0,1,45,205) translate(176.53395061728395 12.444444444444445)"/><use xlink:href="#I" transform="matrix(1,0,0,1,45,205) translate(189.929012345679 12.444444444444445)"/><path d="M150 240c16.57 0 30 13.43 30 30s-13.43 30-30 30H70c-16.57 0-30-13.43-30-30s13.43-30 30-30z" stroke="#000" stroke-width="2" fill="#fff"/><use xlink:href="#J" transform="matrix(1,0,0,1,45,245) translate(29.953250080051234 29.306916426512977)"/><path d="M210 246a6 6 0 0 1 6-6h228a6 6 0 0 1 6 6v48a6 6 0 0 1-6 6H216a6 6 0 0 1-6-6z" stroke="#000" stroke-width="2" fill="#fff"/><use xlink:href="#K" transform="matrix(1,0,0,1,222,252) translate(18.899205353408608 12.854035968214138)"/><use xlink:href="#L" transform="matrix(1,0,0,1,222,252) translate(42.12296110414052 12.854035968214138)"/><use xlink:href="#M" transform="matrix(1,0,0,1,222,252) translate(83.96988707653702 12.854035968214138)"/><use xlink:href="#N" transform="matrix(1,0,0,1,222,252) translate(130.30698452530325 12.854035968214138)"/><use xlink:href="#O" transform="matrix(1,0,0,1,222,252) translate(76.2409033877039 28.753659556670854)"/><path d="M564.88 218.13a9.82 9.82 0 0 1 10.24 0l79.76 48.74a3.67 3.67 0 0 1 0 6.26l-79.76 48.74a9.82 9.82 0 0 1-10.24 0l-79.76-48.74a3.67 3.67 0 0 1 0-6.26z" stroke="#000" stroke-width="2" fill="#fff"/><use xlink:href="#P" transform="matrix(1,0,0,1,485,220) translate(20.346283629730962 49.41972944216447)"/><use xlink:href="#Q" transform="matrix(1,0,0,1,485,220) translate(51.3516035871713 72.53327253381974)"/><path d="M700 156a6 6 0 0 1 6-6h268a6 6 0 0 1 6 6v38a6 6 0 0 1-6 6H706a6 6 0 0 1-6-6z" stroke="#000" stroke-width="2" fill="#fff"/><use xlink:href="#R" transform="matrix(1,0,0,1,712,162) translate(59.36002902832854 15.266231241738591)"/><use xlink:href="#S" transform="matrix(1,0,0,1,712,162) translate(132.2406241090636 15.266231241738591)"/><use xlink:href="#T" transform="matrix(1,0,0,1,712,162) translate(167.7914107249307 15.266231241738591)"/><path d="M1010 156a6 6 0 0 1 6-6h228a6 6 0 0 1 6 6v38a6 6 0 0 1-6 6h-228a6 6 0 0 1-6-6z" stroke="#000" stroke-width="2" fill="#fff"/><use xlink:href="#U" transform="matrix(1,0,0,1,1022,162) translate(38.21931938936837 15.266231241738591)"/><use xlink:href="#V" transform="matrix(1,0,0,1,1022,162) translate(60.13093849622891 15.266231241738591)"/><use xlink:href="#W" transform="matrix(1,0,0,1,1022,162) translate(85.60060130109116 15.266231241738591)"/><use xlink:href="#X" transform="matrix(1,0,0,1,1022,162) translate(119.90607262265765 15.266231241738591)"/><use xlink:href="#Y" transform="matrix(1,0,0,1,1022,162) translate(129.09768550916206 15.266231241738591)"/><path d="M1290 246a6 6 0 0 1 6-6h148a6 6 0 0 1 6 6v48a6 6 0 0 1-6 6h-148a6 6 0 0 1-6-6z" stroke="#000" stroke-width="2" fill="#fff"/><use xlink:href="#q" transform="matrix(1,0,0,1,1302,252) translate(21.674768228514154 21.175895765472312)"/><use xlink:href="#Z" transform="matrix(1,0,0,1,1302,252) translate(64.01002255073915 21.175895765472312)"/><path d="M1480 246a6 6 0 0 1 6-6h208a6 6 0 0 1 6 6v48a6 6 0 0 1-6 6h-208a6 6 0 0 1-6-6z" stroke="#000" stroke-width="2" fill="#fff"/><use xlink:href="#aa" transform="matrix(1,0,0,1,1492,252) translate(8.511150087697299 21.175895765472312)"/><use xlink:href="#ab" transform="matrix(1,0,0,1,1492,252) translate(56.93209721874216 21.175895765472312)"/><use xlink:href="#ac" transform="matrix(1,0,0,1,1492,252) translate(98.3412678526685 21.175895765472312)"/><use xlink:href="#ad" transform="matrix(1,0,0,1,1492,252) translate(118.62691054873466 21.175895765472312)"/><use xlink:href="#ae" transform="matrix(1,0,0,1,1492,252) translate(136.26659984966173 21.175895765472312)"/><path d="M1980 240c16.57 0 30 13.43 30 30s-13.43 30-30 30h-220c-16.57 0-30-13.43-30-30s13.43-30 30-30z" stroke="#000" stroke-width="2" fill="#fee2e2"/><use xlink:href="#z" transform="matrix(1,0,0,1,1735,245) translate(9.275248158821622 17.419308357348708)"/><use xlink:href="#af" transform="matrix(1,0,0,1,1735,245) translate(75.32455971821966 17.419308357348708)"/><use xlink:href="#ag" transform="matrix(1,0,0,1,1735,245) translate(124.91789945565162 17.419308357348708)"/><use xlink:href="#ah" transform="matrix(1,0,0,1,1735,245) translate(215.65116874799872 17.419308357348708)"/><use xlink:href="#ai" transform="matrix(1,0,0,1,1735,245) translate(115.87275056035863 41.76512968299713)"/><path d="M1730 346a6 6 0 0 1 6-6h268a6 6 0 0 1 6 6v58a6 6 0 0 1-6 6h-268a6 6 0 0 1-6-6z" stroke="#000" stroke-width="2" fill="#e0e7ff"/><use xlink:href="#aj" transform="matrix(1,0,0,1,1742,352) translate(45.683457197908076 15.645655564730713)"/><use xlink:href="#ak" transform="matrix(1,0,0,1,1742,352) translate(118.85127075878525 15.645655564730713)"/><use xlink:href="#al" transform="matrix(1,0,0,1,1742,352) translate(20.268386352614264 38.566972068210724)"/><use xlink:href="#am" transform="matrix(1,0,0,1,1742,352) translate(155.99229287090563 38.566972068210724)"/><use xlink:href="#an" transform="matrix(1,0,0,1,1742,352) translate(182.52159437956306 38.566972068210724)"/><path d="M242 110h8.5" stroke="#000" stroke-width="2" fill="none"/><path d="M242.03 110.97h-1.1l.07-.95-.03-1h1.06z" stroke="#000" stroke-width=".05"/><path d="M265.76 110l-14.26 4.64v-9.28z" stroke="#000" stroke-width="2"/><path d="M512 110h8.5" stroke="#000" stroke-width="2" fill="none"/><path d="M512.03 110.97H511v-1.94h1.03z" stroke="#000" stroke-width=".05"/><path d="M535.76 110l-14.26 4.64v-9.28z" stroke="#000" stroke-width="2"/><path d="M782 110h8.5" stroke="#000" stroke-width="2" fill="none"/><path d="M782.03 110.97H781v-1.94h1.03z" stroke="#000" stroke-width=".05"/><path d="M805.76 110l-14.26 4.64v-9.28z" stroke="#000" stroke-width="2"/><path d="M1032 110h8.5" stroke="#000" stroke-width="2" fill="none"/><path d="M1032.03 110.97H1031v-1.94h1.03z" stroke="#000" stroke-width=".05"/><path d="M1055.76 110l-14.26 4.64v-9.28z" stroke="#000" stroke-width="2"/><path d="M1262 110h8.5" stroke="#000" stroke-width="2" fill="none"/><path d="M1262.03 110.97H1261v-1.94h1.03z" stroke="#000" stroke-width=".05"/><path d="M1285.76 110l-14.26 4.64v-9.28z" stroke="#000" stroke-width="2"/><path d="M182 270h8.5" stroke="#000" stroke-width="2" fill="none"/><path d="M182.03 270.98h-1.1l.07-.96-.03-1h1.06z" stroke="#000" stroke-width=".05"/><path d="M205.76 270l-14.26 4.63v-9.26z" stroke="#000" stroke-width="2"/><path d="M452 270h11.86" stroke="#000" stroke-width="2" fill="none"/><path d="M452.03 270.98H451v-1.96h1.03z" stroke="#000" stroke-width=".05"/><path d="M479.12 270l-14.26 4.63v-9.26z" stroke="#000" stroke-width="2"/><path d="M679.3 265.04l-.07.9-.22.9-.35.87-.5.8-.6.73-.72.6-.8.5-.86.36-.9.2-.9.08h-14.73v-1.96h14.64l.67-.05.6-.15.6-.24.53-.33.48-.4.4-.5.34-.52.25-.6.14-.6.05-.67V233.3h1.94zm1.28-89.07l-.27.02-.17.04-.18.07-.16.1-.15.13-.12.14-.1.16-.07.18-.05.2V211.7h-1.95v-34.56l.03-.46.12-.48.2-.45.25-.43.32-.37.37-.32.43-.26.45-.2.48-.1.42-.04z" stroke="#000" stroke-width=".05"/><path d="M658.67 270.98h-1.14l.1-.98-.1-.95 1.14-.03z"/><path stroke="#000" stroke-width=".05"/><path d="M695.76 175l-14.26 4.63v-9.26z"/><path d="M698.92 175l-18.4 5.98v-11.96zm-16.45 3.3l10.14-3.3-10.13-3.3z" stroke="#000" stroke-width=".05"/><g><use xlink:href="#ao" transform="matrix(1,0,0,1,664.3200944297179,211.7) translate(0 14.4)"/></g><path d="M982 175h8.5" stroke="#000" stroke-width="2" fill="none"/><path d="M982.03 175.97H981v-1.94h1.03z" stroke="#000" stroke-width=".05"/><path d="M1005.76 175l-14.26 4.63v-9.26z" stroke="#000" stroke-width="2"/><path d="M1252 175h13a5 5 0 0 1 5 5v89.5a.5.5 0 0 0 .5.5" stroke="#000" stroke-width="2" fill="none"/><path d="M1252.03 175.97H1251v-1.94h1.03z" stroke="#000" stroke-width=".05"/><path d="M1285.76 270l-14.26 4.63v-9.26z" stroke="#000" stroke-width="2"/><path d="M963.32 270.98H658.64v-1.96h304.68zm307.18 0H983.32v-1.96h287.18z" stroke="#000" stroke-width=".05"/><path d="M658.67 270.98h-1.14l.1-.98-.1-.95 1.14-.03z"/><path stroke="#000" stroke-width=".05"/><path d="M1285.76 270l-14.26 4.63v-9.26z"/><path d="M1288.92 270l-18.4 5.98v-11.96zm-16.45 3.3l10.14-3.3-10.13-3.3z" stroke="#000" stroke-width=".05"/><g><use xlink:href="#ap" transform="matrix(1,0,0,1,963.3200944297179,259.2) translate(0 14.4)"/></g><path d="M1452 270h8.5" stroke="#000" stroke-width="2" fill="none"/><path d="M1452.03 270.98H1451v-1.96h1.03z" stroke="#000" stroke-width=".05"/><path d="M1475.76 270l-14.26 4.63v-9.26z" stroke="#000" stroke-width="2"/><path d="M1702 270h8.5" stroke="#000" stroke-width="2" fill="none"/><path d="M1702.03 270.98H1701v-1.96h1.03z" stroke="#000" stroke-width=".05"/><path d="M1725.76 270l-14.26 4.63v-9.26z" stroke="#000" stroke-width="2"/><path d="M1870 302v18.5" stroke="#000" stroke-width="2" fill="none"/><path d="M1870.97 302.03h-1.94V301h1.94z" stroke="#000" stroke-width=".05"/><path d="M1870 335.76l-4.63-14.26h9.27z" stroke="#000" stroke-width="2"/><defs><path d="M185-189c-5-48-123-54-124 2 14 75 158 14 163 119 3 78-121 87-175 55-17-10-28-26-33-46l33-7c5 56 141 63 141-1 0-78-155-14-162-118-5-82 145-84 179-34 5 7 8 16 11 25" id="aq"/><path d="M100-194c63 0 86 42 84 106H49c0 40 14 67 53 68 26 1 43-12 49-29l28 8c-11 28-37 45-77 45C44 4 14-33 15-96c1-61 26-98 85-98zm52 81c6-60-76-77-97-28-3 7-6 17-6 28h103" id="ar"/><path d="M135-143c-3-34-86-38-87 0 15 53 115 12 119 90S17 21 10-45l28-5c4 36 97 45 98 0-10-56-113-15-118-90-4-57 82-63 122-42 12 7 21 19 24 35" id="as"/><path d="M24-231v-30h32v30H24zM24 0v-190h32V0H24" id="at"/><path d="M100-194c62-1 85 37 85 99 1 63-27 99-86 99S16-35 15-95c0-66 28-99 85-99zM99-20c44 1 53-31 53-75 0-43-8-75-51-75s-53 32-53 75 10 74 51 75" id="au"/><path d="M117-194c89-4 53 116 60 194h-32v-121c0-31-8-49-39-48C34-167 62-67 57 0H25l-1-190h30c1 10-1 24 2 32 11-22 29-35 61-36" id="av"/><g id="a"><use transform="matrix(0.043209876543209874,0,0,0.043209876543209874,0,0)" xlink:href="#aq"/><use transform="matrix(0.043209876543209874,0,0,0.043209876543209874,10.37037037037037,0)" xlink:href="#ar"/><use transform="matrix(0.043209876543209874,0,0,0.043209876543209874,19.012345679012345,0)" xlink:href="#as"/><use transform="matrix(0.043209876543209874,0,0,0.043209876543209874,26.790123456790123,0)" xlink:href="#as"/><use transform="matrix(0.043209876543209874,0,0,0.043209876543209874,34.5679012345679,0)" xlink:href="#at"/><use transform="matrix(0.043209876543209874,0,0,0.043209876543209874,37.98148148148148,0)" xlink:href="#au"/><use transform="matrix(0.043209876543209874,0,0,0.043209876543209874,46.623456790123456,0)" xlink:href="#av"/></g><path d="M27 0v-27h64v-190l-56 39v-29l58-41h29v221h61V0H27" id="aw"/><path d="M33-154v-36h34v36H33zM33 0v-36h34V0H33" id="ax"/><g id="b"><use transform="matrix(0.043209876543209874,0,0,0.043209876543209874,0,0)" xlink:href="#aw"/><use transform="matrix(0.043209876543209874,0,0,0.043209876543209874,8.641975308641975,0)" xlink:href="#ax"/></g><path d="M96-169c-40 0-48 33-48 73s9 75 48 75c24 0 41-14 43-38l32 2c-6 37-31 61-74 61-59 0-76-41-82-99-10-93 101-131 147-64 4 7 5 14 7 22l-32 3c-4-21-16-35-41-35" id="ay"/><path d="M84 4C-5 8 30-112 23-190h32v120c0 31 7 50 39 49 72-2 45-101 50-169h31l1 190h-30c-1-10 1-25-2-33-11 22-28 36-60 37" id="az"/><path d="M59-47c-2 24 18 29 38 22v24C64 9 27 4 27-40v-127H5v-23h24l9-43h21v43h35v23H59v120" id="aA"/><g id="c"><use transform="matrix(0.043209876543209874,0,0,0.043209876543209874,0,0)" xlink:href="#as"/><use transform="matrix(0.043209876543209874,0,0,0.043209876543209874,7.777777777777778,0)" xlink:href="#ay"/><use transform="matrix(0.043209876543209874,0,0,0.043209876543209874,15.555555555555555,0)" xlink:href="#au"/><use transform="matrix(0.043209876543209874,0,0,0.043209876543209874,24.197530864197528,0)" xlink:href="#az"/><use transform="matrix(0.043209876543209874,0,0,0.043209876543209874,32.839506172839506,0)" xlink:href="#aA"/></g><path d="M114-163C36-179 61-72 57 0H25l-1-190h30c1 12-1 29 2 39 6-27 23-49 58-41v29" id="aB"/><path d="M115-194c55 1 70 41 70 98S169 2 115 4C84 4 66-9 55-30l1 105H24l-1-265h31l2 30c10-21 28-34 59-34zm-8 174c40 0 45-34 45-75s-6-73-45-74c-42 0-51 32-51 76 0 43 10 73 51 73" id="aC"/><g id="d"><use transform="matrix(0.043209876543209874,0,0,0.043209876543209874,0,0)" xlink:href="#aB"/><use transform="matrix(0.043209876543209874,0,0,0.043209876543209874,5.141975308641975,0)" xlink:href="#ar"/><use transform="matrix(0.043209876543209874,0,0,0.043209876543209874,13.78395061728395,0)" xlink:href="#aC"/><use transform="matrix(0.043209876543209874,0,0,0.043209876543209874,22.425925925925924,0)" xlink:href="#au"/></g><path d="M0 4l72-265h28L28 4H0" id="aD"/><path d="M141-36C126-15 110 5 73 4 37 3 15-17 15-53c-1-64 63-63 125-63 3-35-9-54-41-54-24 1-41 7-42 31l-33-3c5-37 33-52 76-52 45 0 72 20 72 64v82c-1 20 7 32 28 27v20c-31 9-61-2-59-35zM48-53c0 20 12 33 32 33 41-3 63-29 60-74-43 2-92-5-92 41" id="aE"/><path d="M16-82v-28h88v28H16" id="aF"/><path d="M143 0L79-87 56-68V0H24v-261h32v163l83-92h37l-77 82L181 0h-38" id="aG"/><g id="e"><use transform="matrix(0.05635606788344542,0,0,0.05635606788344542,0,0)" xlink:href="#aD"/><use transform="matrix(0.05635606788344542,0,0,0.05635606788344542,5.635606788344542,0)" xlink:href="#as"/><use transform="matrix(0.05635606788344542,0,0,0.05635606788344542,15.779699007364716,0)" xlink:href="#aA"/><use transform="matrix(0.05635606788344542,0,0,0.05635606788344542,21.41530579570926,0)" xlink:href="#aE"/><use transform="matrix(0.05635606788344542,0,0,0.05635606788344542,32.686519372398344,0)" xlink:href="#aB"/><use transform="matrix(0.05635606788344542,0,0,0.05635606788344542,39.392891450528346,0)" xlink:href="#aA"/><use transform="matrix(0.05635606788344542,0,0,0.05635606788344542,45.02849823887289,0)" xlink:href="#aF"/><use transform="matrix(0.05635606788344542,0,0,0.05635606788344542,51.7348703170029,0)" xlink:href="#aA"/><use transform="matrix(0.05635606788344542,0,0,0.05635606788344542,57.37047710534744,0)" xlink:href="#aE"/><use transform="matrix(0.05635606788344542,0,0,0.05635606788344542,68.64169068203653,0)" xlink:href="#as"/><use transform="matrix(0.05635606788344542,0,0,0.05635606788344542,78.78578290105669,0)" xlink:href="#aG"/></g><g id="f"><use transform="matrix(0.05635606788344542,0,0,0.05635606788344542,0,0)" xlink:href="#au"/><use transform="matrix(0.05635606788344542,0,0,0.05635606788344542,11.271213576689084,0)" xlink:href="#aB"/></g><path d="M24 0v-261h32V0H24" id="aH"/><g id="g"><use transform="matrix(0.05635606788344542,0,0,0.05635606788344542,0,0)" xlink:href="#aD"/><use transform="matrix(0.05635606788344542,0,0,0.05635606788344542,5.635606788344542,0)" xlink:href="#aC"/><use transform="matrix(0.05635606788344542,0,0,0.05635606788344542,16.906820365033624,0)" xlink:href="#az"/><use transform="matrix(0.05635606788344542,0,0,0.05635606788344542,28.178033941722706,0)" xlink:href="#aH"/><use transform="matrix(0.05635606788344542,0,0,0.05635606788344542,32.630163304514895,0)" xlink:href="#aH"/><use transform="matrix(0.05635606788344542,0,0,0.05635606788344542,37.08229266730708,0)" xlink:href="#aF"/><use transform="matrix(0.05635606788344542,0,0,0.05635606788344542,43.78866474543709,0)" xlink:href="#aA"/><use transform="matrix(0.05635606788344542,0,0,0.05635606788344542,49.42427153378163,0)" xlink:href="#aE"/><use transform="matrix(0.05635606788344542,0,0,0.05635606788344542,60.69548511047071,0)" xlink:href="#as"/><use transform="matrix(0.05635606788344542,0,0,0.05635606788344542,70.8395773294909,0)" xlink:href="#aG"/></g><path d="M30 0v-248h33v221h125V0H30" id="aI"/><g id="h"><use transform="matrix(0.036804684232538694,0,0,0.036804684232538694,0,0)" xlink:href="#aI"/><use transform="matrix(0.036804684232538694,0,0,0.036804684232538694,7.360936846507739,0)" xlink:href="#at"/><use transform="matrix(0.036804684232538694,0,0,0.036804684232538694,10.268506900878295,0)" xlink:href="#av"/><use transform="matrix(0.036804684232538694,0,0,0.036804684232538694,17.629443747386034,0)" xlink:href="#ar"/><use transform="matrix(0.036804684232538694,0,0,0.036804684232538694,24.99038059389377,0)" xlink:href="#aE"/><use transform="matrix(0.036804684232538694,0,0,0.036804684232538694,32.351317440401516,0)" xlink:href="#aB"/><use transform="matrix(0.036804684232538694,0,0,0.036804684232538694,36.73107486407362,0)" xlink:href="#ax"/></g><g id="i"><use transform="matrix(0.036804684232538694,0,0,0.036804684232538694,0,0)" xlink:href="#at"/><use transform="matrix(0.036804684232538694,0,0,0.036804684232538694,2.9075700543705567,0)" xlink:href="#as"/><use transform="matrix(0.036804684232538694,0,0,0.036804684232538694,9.532413216227521,0)" xlink:href="#as"/><use transform="matrix(0.036804684232538694,0,0,0.036804684232538694,16.157256378084487,0)" xlink:href="#az"/><use transform="matrix(0.036804684232538694,0,0,0.036804684232538694,23.518193224592224,0)" xlink:href="#ar"/></g><path d="M118-107v75H92v-75H18v-26h74v-75h26v75h74v26h-74" id="aJ"/><use transform="matrix(0.036804684232538694,0,0,0.036804684232538694,0,0)" xlink:href="#aJ" id="j"/><path d="M11-111v-36l175-69v27L36-129l150 61v27zM11 0v-25h175V0H11" id="aK"/><path d="M54-142c48-35 137-8 131 61C196 18 31 33 14-55l32-4c7 23 22 37 52 37 35-1 51-22 54-58 4-55-73-65-99-34H22l8-134h141v27H59" id="aL"/><g id="k"><use transform="matrix(0.036804684232538694,0,0,0.036804684232538694,0,0)" xlink:href="#aK"/><use transform="matrix(0.036804684232538694,0,0,0.036804684232538694,7.2505227938101235,0)" xlink:href="#aL"/></g><path d="M115-194c53 0 69 39 70 98 0 66-23 100-70 100C84 3 66-7 56-30L54 0H23l1-261h32v101c10-23 28-34 59-34zm-8 174c40 0 45-34 45-75 0-40-5-75-45-74-42 0-51 32-51 76 0 43 10 73 51 73" id="aM"/><path d="M68-38c1 34 0 65-14 84H32c9-13 17-26 17-46H33v-38h35" id="aN"/><g id="l"><use transform="matrix(0.036804684232538694,0,0,0.036804684232538694,0,0)" xlink:href="#as"/><use transform="matrix(0.036804684232538694,0,0,0.036804684232538694,6.6248431618569645,0)" xlink:href="#az"/><use transform="matrix(0.036804684232538694,0,0,0.036804684232538694,13.985780008364703,0)" xlink:href="#aM"/><use transform="matrix(0.036804684232538694,0,0,0.036804684232538694,21.346716854872437,0)" xlink:href="#aA"/><use transform="matrix(0.036804684232538694,0,0,0.036804684232538694,25.02718527812631,0)" xlink:href="#aE"/><use transform="matrix(0.036804684232538694,0,0,0.036804684232538694,32.38812212463405,0)" xlink:href="#as"/><use transform="matrix(0.036804684232538694,0,0,0.036804684232538694,39.01296528649102,0)" xlink:href="#aG"/><use transform="matrix(0.036804684232538694,0,0,0.036804684232538694,45.637808448347975,0)" xlink:href="#as"/><use transform="matrix(0.036804684232538694,0,0,0.036804684232538694,52.262651610204934,0)" xlink:href="#aN"/></g><g id="m"><use transform="matrix(0.036804684232538694,0,0,0.036804684232538694,0,0)" xlink:href="#aC"/><use transform="matrix(0.036804684232538694,0,0,0.036804684232538694,7.360936846507739,0)" xlink:href="#aE"/><use transform="matrix(0.036804684232538694,0,0,0.036804684232538694,14.721873693015478,0)" xlink:href="#aB"/><use transform="matrix(0.036804684232538694,0,0,0.036804684232538694,19.10163111668758,0)" xlink:href="#ar"/><use transform="matrix(0.036804684232538694,0,0,0.036804684232538694,26.462567963195323,0)" xlink:href="#av"/><use transform="matrix(0.036804684232538694,0,0,0.036804684232538694,33.82350480970306,0)" xlink:href="#aA"/></g><path d="M287-57c-19 10-34 24-48 39h-13c7-13 13-24 21-34H73v-15h174c-8-10-14-22-21-35h13c14 15 28 30 48 39v6" id="aO"/><use transform="matrix(0.036804684232538694,0,0,0.036804684232538694,0,0)" xlink:href="#aO" id="n"/><path d="M33 0v-248h34V0H33" id="aP"/><g id="o"><use transform="matrix(0.036804684232538694,0,0,0.036804684232538694,0,0)" xlink:href="#aP"/><use transform="matrix(0.036804684232538694,0,0,0.036804684232538694,3.6804684232538696,0)" xlink:href="#av"/></g><path d="M30-248c87 1 191-15 191 75 0 78-77 80-158 76V0H30v-248zm33 125c57 0 124 11 124-50 0-59-68-47-124-48v98" id="aQ"/><path d="M177-190C167-65 218 103 67 71c-23-6-38-20-44-43l32-5c15 47 100 32 89-28v-30C133-14 115 1 83 1 29 1 15-40 15-95c0-56 16-97 71-98 29-1 48 16 59 35 1-10 0-23 2-32h30zM94-22c36 0 50-32 50-73 0-42-14-75-50-75-39 0-46 34-46 75s6 73 46 73" id="aR"/><g id="p"><use transform="matrix(0.036804684232538694,0,0,0.036804684232538694,0,0)" xlink:href="#aQ"/><use transform="matrix(0.036804684232538694,0,0,0.036804684232538694,8.833124215809287,0)" xlink:href="#aB"/><use transform="matrix(0.036804684232538694,0,0,0.036804684232538694,13.212881639481388,0)" xlink:href="#au"/><use transform="matrix(0.036804684232538694,0,0,0.036804684232538694,20.57381848598913,0)" xlink:href="#aR"/><use transform="matrix(0.036804684232538694,0,0,0.036804684232538694,27.93475533249687,0)" xlink:href="#aB"/><use transform="matrix(0.036804684232538694,0,0,0.036804684232538694,32.31451275616897,0)" xlink:href="#ar"/><use transform="matrix(0.036804684232538694,0,0,0.036804684232538694,39.675449602676714,0)" xlink:href="#as"/><use transform="matrix(0.036804684232538694,0,0,0.036804684232538694,46.30029276453368,0)" xlink:href="#as"/></g><g id="q"><use transform="matrix(0.044099223252317715,0,0,0.044099223252317715,0,0)" xlink:href="#as"/><use transform="matrix(0.044099223252317715,0,0,0.044099223252317715,7.937860185417189,0)" xlink:href="#ay"/><use transform="matrix(0.044099223252317715,0,0,0.044099223252317715,15.875720370834378,0)" xlink:href="#au"/><use transform="matrix(0.044099223252317715,0,0,0.044099223252317715,24.69556502129792,0)" xlink:href="#az"/><use transform="matrix(0.044099223252317715,0,0,0.044099223252317715,33.51540967176146,0)" xlink:href="#aA"/></g><path d="M106-169C34-169 62-67 57 0H25v-261h32l-1 103c12-21 28-36 61-36 89 0 53 116 60 194h-32v-121c2-32-8-49-39-48" id="aS"/><g id="r"><use transform="matrix(0.044099223252317715,0,0,0.044099223252317715,0,0)" xlink:href="#aM"/><use transform="matrix(0.044099223252317715,0,0,0.044099223252317715,8.819844650463542,0)" xlink:href="#aB"/><use transform="matrix(0.044099223252317715,0,0,0.044099223252317715,14.067652217489352,0)" xlink:href="#aE"/><use transform="matrix(0.044099223252317715,0,0,0.044099223252317715,22.887496867952894,0)" xlink:href="#av"/><use transform="matrix(0.044099223252317715,0,0,0.044099223252317715,31.707341518416438,0)" xlink:href="#ay"/><use transform="matrix(0.044099223252317715,0,0,0.044099223252317715,39.64520170383363,0)" xlink:href="#aS"/><use transform="matrix(0.044099223252317715,0,0,0.044099223252317715,48.46504635429717,0)" xlink:href="#aD"/><use transform="matrix(0.044099223252317715,0,0,0.044099223252317715,52.87496867952894,0)" xlink:href="#aF"/></g><path d="M212-179c-10-28-35-45-73-45-59 0-87 40-87 99 0 60 29 101 89 101 43 0 62-24 78-52l27 14C228-24 195 4 139 4 59 4 22-46 18-125c-6-104 99-153 187-111 19 9 31 26 39 46" id="aT"/><path d="M85-194c31 0 48 13 60 33l-1-100h32l1 261h-30c-2-10 0-23-3-31C134-8 116 4 85 4 32 4 16-35 15-94c0-66 23-100 70-100zm9 24c-40 0-46 34-46 75 0 40 6 74 45 74 42 0 51-32 51-76 0-42-9-74-50-73" id="aU"/><g id="s"><use transform="matrix(0.036804684232538694,0,0,0.036804684232538694,0,0)" xlink:href="#aT"/><use transform="matrix(0.036804684232538694,0,0,0.036804684232538694,9.532413216227523,0)" xlink:href="#au"/><use transform="matrix(0.036804684232538694,0,0,0.036804684232538694,16.893350062735262,0)" xlink:href="#aU"/><use transform="matrix(0.036804684232538694,0,0,0.036804684232538694,24.254286909243,0)" xlink:href="#ar"/></g><g id="t"><use transform="matrix(0.036804684232538694,0,0,0.036804684232538694,0,0)" xlink:href="#ay"/><use transform="matrix(0.036804684232538694,0,0,0.036804684232538694,6.6248431618569645,0)" xlink:href="#aS"/><use transform="matrix(0.036804684232538694,0,0,0.036804684232538694,13.985780008364703,0)" xlink:href="#aE"/><use transform="matrix(0.036804684232538694,0,0,0.036804684232538694,21.346716854872437,0)" xlink:href="#av"/><use transform="matrix(0.036804684232538694,0,0,0.036804684232538694,28.70765370138018,0)" xlink:href="#aR"/><use transform="matrix(0.036804684232538694,0,0,0.036804684232538694,36.06859054788792,0)" xlink:href="#ar"/><use transform="matrix(0.036804684232538694,0,0,0.036804684232538694,43.429527394395656,0)" xlink:href="#as"/></g><path d="M206 0h-36l-40-164L89 0H53L-1-190h32L70-26l43-164h34l41 164 42-164h31" id="aV"/><g id="u"><use transform="matrix(0.036804684232538694,0,0,0.036804684232538694,0,0)" xlink:href="#aV"/><use transform="matrix(0.036804684232538694,0,0,0.036804684232538694,9.532413216227523,0)" xlink:href="#aB"/><use transform="matrix(0.036804684232538694,0,0,0.036804684232538694,13.912170639899628,0)" xlink:href="#at"/><use transform="matrix(0.036804684232538694,0,0,0.036804684232538694,16.819740694270184,0)" xlink:href="#aA"/><use transform="matrix(0.036804684232538694,0,0,0.036804684232538694,20.50020911752405,0)" xlink:href="#aA"/><use transform="matrix(0.036804684232538694,0,0,0.036804684232538694,24.18067754077792,0)" xlink:href="#ar"/><use transform="matrix(0.036804684232538694,0,0,0.036804684232538694,31.541614387285662,0)" xlink:href="#av"/></g><path d="M87 75C49 33 22-17 22-94c0-76 28-126 65-167h31c-38 41-64 92-64 168S80 34 118 75H87" id="aW"/><path d="M210-169c-67 3-38 105-44 169h-31v-121c0-29-5-50-35-48C34-165 62-65 56 0H25l-1-190h30c1 10-1 24 2 32 10-44 99-50 107 0 11-21 27-35 58-36 85-2 47 119 55 194h-31v-121c0-29-5-49-35-48" id="aX"/><path d="M33-261c38 41 65 92 65 168S71 34 33 75H2C39 34 66-17 66-93S39-220 2-261h31" id="aY"/><g id="v"><use transform="matrix(0.036804684232538694,0,0,0.036804684232538694,0,0)" xlink:href="#aW"/><use transform="matrix(0.036804684232538694,0,0,0.036804684232538694,4.379757423672104,0)" xlink:href="#az"/><use transform="matrix(0.036804684232538694,0,0,0.036804684232538694,11.740694270179842,0)" xlink:href="#av"/><use transform="matrix(0.036804684232538694,0,0,0.036804684232538694,19.10163111668758,0)" xlink:href="#ay"/><use transform="matrix(0.036804684232538694,0,0,0.036804684232538694,25.726474278544547,0)" xlink:href="#au"/><use transform="matrix(0.036804684232538694,0,0,0.036804684232538694,33.087411125052284,0)" xlink:href="#aX"/><use transform="matrix(0.036804684232538694,0,0,0.036804684232538694,44.09201171058136,0)" xlink:href="#aX"/><use transform="matrix(0.036804684232538694,0,0,0.036804684232538694,55.096612296110436,0)" xlink:href="#at"/><use transform="matrix(0.036804684232538694,0,0,0.036804684232538694,58.00418235048099,0)" xlink:href="#aA"/><use transform="matrix(0.036804684232538694,0,0,0.036804684232538694,61.68465077373486,0)" xlink:href="#aA"/><use transform="matrix(0.036804684232538694,0,0,0.036804684232538694,65.36511919698873,0)" xlink:href="#ar"/><use transform="matrix(0.036804684232538694,0,0,0.036804684232538694,72.72605604349647,0)" xlink:href="#aU"/><use transform="matrix(0.036804684232538694,0,0,0.036804684232538694,80.0869928900042,0)" xlink:href="#aY"/></g><g id="w"><use transform="matrix(0.044099223252317715,0,0,0.044099223252317715,0,0)" xlink:href="#aq"/><use transform="matrix(0.044099223252317715,0,0,0.044099223252317715,10.583813580556251,0)" xlink:href="#az"/><use transform="matrix(0.044099223252317715,0,0,0.044099223252317715,19.403658231019794,0)" xlink:href="#aM"/><use transform="matrix(0.044099223252317715,0,0,0.044099223252317715,28.223502881483338,0)" xlink:href="#aA"/><use transform="matrix(0.044099223252317715,0,0,0.044099223252317715,32.63342520671511,0)" xlink:href="#aE"/><use transform="matrix(0.044099223252317715,0,0,0.044099223252317715,41.453269857178654,0)" xlink:href="#as"/><use transform="matrix(0.044099223252317715,0,0,0.044099223252317715,49.39113004259584,0)" xlink:href="#aG"/><use transform="matrix(0.044099223252317715,0,0,0.044099223252317715,57.328990228013026,0)" xlink:href="#as"/></g><g id="x"><use transform="matrix(0.044099223252317715,0,0,0.044099223252317715,0,0)" xlink:href="#aX"/><use transform="matrix(0.044099223252317715,0,0,0.044099223252317715,13.185667752442997,0)" xlink:href="#aE"/><use transform="matrix(0.044099223252317715,0,0,0.044099223252317715,22.005512402906543,0)" xlink:href="#aB"/><use transform="matrix(0.044099223252317715,0,0,0.044099223252317715,27.25331996993235,0)" xlink:href="#aG"/><use transform="matrix(0.044099223252317715,0,0,0.044099223252317715,35.19118015534954,0)" xlink:href="#ar"/><use transform="matrix(0.044099223252317715,0,0,0.044099223252317715,44.011024805813086,0)" xlink:href="#aU"/></g><path d="M30-248c118-7 216 8 213 122C240-48 200 0 122 0H30v-248zM63-27c89 8 146-16 146-99s-60-101-146-95v194" id="aZ"/><g id="y"><use transform="matrix(0.044099223252317715,0,0,0.044099223252317715,0,0)" xlink:href="#aZ"/><use transform="matrix(0.044099223252317715,0,0,0.044099223252317715,11.421698822350288,0)" xlink:href="#au"/><use transform="matrix(0.044099223252317715,0,0,0.044099223252317715,20.241543472813834,0)" xlink:href="#av"/><use transform="matrix(0.044099223252317715,0,0,0.044099223252317715,29.06138812327738,0)" xlink:href="#ar"/></g><path d="M127-220V0H93v-220H8v-28h204v28h-85" id="ba"/><path d="M140-251c81 0 123 46 123 126C263-46 219 4 140 4 59 4 17-45 17-125s42-126 123-126zm0 227c63 0 89-41 89-101s-29-99-89-99c-61 0-89 39-89 99S79-25 140-24" id="bb"/><g id="z"><use transform="matrix(0.05635606788344542,0,0,0.05635606788344542,0,0)" xlink:href="#aq"/><use transform="matrix(0.05635606788344542,0,0,0.05635606788344542,13.525456292026899,0)" xlink:href="#ba"/><use transform="matrix(0.05635606788344542,0,0,0.05635606788344542,25.472942683317328,0)" xlink:href="#bb"/><use transform="matrix(0.05635606788344542,0,0,0.05635606788344542,41.25264169068205,0)" xlink:href="#aQ"/><use transform="matrix(0.05635606788344542,0,0,0.05635606788344542,54.77809798270894,0)" xlink:href="#ax"/></g><g id="A"><use transform="matrix(0.05635606788344542,0,0,0.05635606788344542,0,0)" xlink:href="#av"/><use transform="matrix(0.05635606788344542,0,0,0.05635606788344542,11.271213576689084,0)" xlink:href="#au"/></g><g id="B"><use transform="matrix(0.05635606788344542,0,0,0.05635606788344542,0,0)" xlink:href="#ay"/><use transform="matrix(0.05635606788344542,0,0,0.05635606788344542,10.144092219020175,0)" xlink:href="#au"/><use transform="matrix(0.05635606788344542,0,0,0.05635606788344542,21.41530579570926,0)" xlink:href="#aX"/><use transform="matrix(0.05635606788344542,0,0,0.05635606788344542,38.26577009285944,0)" xlink:href="#aX"/><use transform="matrix(0.05635606788344542,0,0,0.05635606788344542,55.11623439000962,0)" xlink:href="#at"/><use transform="matrix(0.05635606788344542,0,0,0.05635606788344542,59.568363752801815,0)" xlink:href="#aA"/></g><path d="M108 0H70L1-190h34L89-25l56-165h34" id="bc"/><g id="C"><use transform="matrix(0.043209876543209874,0,0,0.043209876543209874,0,0)" xlink:href="#aW"/><use transform="matrix(0.043209876543209874,0,0,0.043209876543209874,5.141975308641975,0)" xlink:href="#aU"/><use transform="matrix(0.043209876543209874,0,0,0.043209876543209874,13.78395061728395,0)" xlink:href="#ar"/><use transform="matrix(0.043209876543209874,0,0,0.043209876543209874,22.425925925925924,0)" xlink:href="#bc"/><use transform="matrix(0.043209876543209874,0,0,0.043209876543209874,30.203703703703702,0)" xlink:href="#ar"/><use transform="matrix(0.043209876543209874,0,0,0.043209876543209874,38.84567901234568,0)" xlink:href="#aH"/><use transform="matrix(0.043209876543209874,0,0,0.043209876543209874,42.25925925925926,0)" xlink:href="#au"/><use transform="matrix(0.043209876543209874,0,0,0.043209876543209874,50.901234567901234,0)" xlink:href="#aC"/><use transform="matrix(0.043209876543209874,0,0,0.043209876543209874,59.54320987654321,0)" xlink:href="#ar"/><use transform="matrix(0.043209876543209874,0,0,0.043209876543209874,68.18518518518519,0)" xlink:href="#aB"/></g><g id="D"><use transform="matrix(0.043209876543209874,0,0,0.043209876543209874,0,0)" xlink:href="#au"/><use transform="matrix(0.043209876543209874,0,0,0.043209876543209874,8.641975308641975,0)" xlink:href="#aC"/><use transform="matrix(0.043209876543209874,0,0,0.043209876543209874,17.28395061728395,0)" xlink:href="#ar"/><use transform="matrix(0.043209876543209874,0,0,0.043209876543209874,25.925925925925924,0)" xlink:href="#av"/><use transform="matrix(0.043209876543209874,0,0,0.043209876543209874,34.5679012345679,0)" xlink:href="#as"/></g><path d="M101-234c-31-9-42 10-38 44h38v23H63V0H32v-167H5v-23h27c-7-52 17-82 69-68v24" id="bd"/><g id="E"><use transform="matrix(0.043209876543209874,0,0,0.043209876543209874,0,0)" xlink:href="#bd"/><use transform="matrix(0.043209876543209874,0,0,0.043209876543209874,4.320987654320987,0)" xlink:href="#aB"/><use transform="matrix(0.043209876543209874,0,0,0.043209876543209874,9.462962962962962,0)" xlink:href="#ar"/><use transform="matrix(0.043209876543209874,0,0,0.043209876543209874,18.104938271604937,0)" xlink:href="#as"/><use transform="matrix(0.043209876543209874,0,0,0.043209876543209874,25.882716049382715,0)" xlink:href="#aS"/></g><g id="F"><use transform="matrix(0.043209876543209874,0,0,0.043209876543209874,0,0)" xlink:href="#as"/><use transform="matrix(0.043209876543209874,0,0,0.043209876543209874,7.777777777777778,0)" xlink:href="#ar"/><use transform="matrix(0.043209876543209874,0,0,0.043209876543209874,16.419753086419753,0)" xlink:href="#as"/><use transform="matrix(0.043209876543209874,0,0,0.043209876543209874,24.197530864197528,0)" xlink:href="#as"/><use transform="matrix(0.043209876543209874,0,0,0.043209876543209874,31.97530864197531,0)" xlink:href="#at"/><use transform="matrix(0.043209876543209874,0,0,0.043209876543209874,35.38888888888889,0)" xlink:href="#au"/><use transform="matrix(0.043209876543209874,0,0,0.043209876543209874,44.03086419753087,0)" xlink:href="#av"/><use transform="matrix(0.043209876543209874,0,0,0.043209876543209874,52.67283950617285,0)" xlink:href="#aY"/></g><path d="M101-251c82-7 93 87 43 132L82-64C71-53 59-42 53-27h129V0H18c2-99 128-94 128-182 0-28-16-43-45-43s-46 15-49 41l-32-3c6-41 34-60 81-64" id="be"/><g id="G"><use transform="matrix(0.043209876543209874,0,0,0.043209876543209874,0,0)" xlink:href="#be"/><use transform="matrix(0.043209876543209874,0,0,0.043209876543209874,8.641975308641975,0)" xlink:href="#ax"/></g><use transform="matrix(0.043209876543209874,0,0,0.043209876543209874,0,0)" xlink:href="#aJ" id="H"/><g id="I"><use transform="matrix(0.043209876543209874,0,0,0.043209876543209874,0,0)" xlink:href="#aU"/><use transform="matrix(0.043209876543209874,0,0,0.043209876543209874,8.641975308641975,0)" xlink:href="#au"/><use transform="matrix(0.043209876543209874,0,0,0.043209876543209874,17.28395061728395,0)" xlink:href="#ay"/><use transform="matrix(0.043209876543209874,0,0,0.043209876543209874,25.061728395061728,0)" xlink:href="#az"/><use transform="matrix(0.043209876543209874,0,0,0.043209876543209874,33.7037037037037,0)" xlink:href="#aX"/><use transform="matrix(0.043209876543209874,0,0,0.043209876543209874,46.623456790123456,0)" xlink:href="#ar"/><use transform="matrix(0.043209876543209874,0,0,0.043209876543209874,55.26543209876543,0)" xlink:href="#av"/><use transform="matrix(0.043209876543209874,0,0,0.043209876543209874,63.907407407407405,0)" xlink:href="#aA"/><use transform="matrix(0.043209876543209874,0,0,0.043209876543209874,68.22839506172839,0)" xlink:href="#aE"/><use transform="matrix(0.043209876543209874,0,0,0.043209876543209874,76.87037037037037,0)" xlink:href="#aA"/><use transform="matrix(0.043209876543209874,0,0,0.043209876543209874,81.19135802469135,0)" xlink:href="#at"/><use transform="matrix(0.043209876543209874,0,0,0.043209876543209874,84.60493827160494,0)" xlink:href="#au"/><use transform="matrix(0.043209876543209874,0,0,0.043209876543209874,93.24691358024691,0)" xlink:href="#av"/></g><g id="J"><use transform="matrix(0.05635606788344542,0,0,0.05635606788344542,0,0)" xlink:href="#aD"/><use transform="matrix(0.05635606788344542,0,0,0.05635606788344542,5.635606788344542,0)" xlink:href="#ay"/><use transform="matrix(0.05635606788344542,0,0,0.05635606788344542,15.779699007364716,0)" xlink:href="#au"/><use transform="matrix(0.05635606788344542,0,0,0.05635606788344542,27.050912584053798,0)" xlink:href="#aX"/><use transform="matrix(0.05635606788344542,0,0,0.05635606788344542,43.90137688120398,0)" xlink:href="#aX"/><use transform="matrix(0.05635606788344542,0,0,0.05635606788344542,60.75184117835416,0)" xlink:href="#at"/><use transform="matrix(0.05635606788344542,0,0,0.05635606788344542,65.20397054114636,0)" xlink:href="#aA"/></g><g id="K"><use transform="matrix(0.036804684232538694,0,0,0.036804684232538694,0,0)" xlink:href="#aZ"/><use transform="matrix(0.036804684232538694,0,0,0.036804684232538694,9.532413216227523,0)" xlink:href="#at"/><use transform="matrix(0.036804684232538694,0,0,0.036804684232538694,12.439983270598079,0)" xlink:href="#bd"/><use transform="matrix(0.036804684232538694,0,0,0.036804684232538694,15.862818904224177,0)" xlink:href="#bd"/></g><g id="L"><use transform="matrix(0.036804684232538694,0,0,0.036804684232538694,0,0)" xlink:href="#aB"/><use transform="matrix(0.036804684232538694,0,0,0.036804684232538694,4.379757423672104,0)" xlink:href="#ar"/><use transform="matrix(0.036804684232538694,0,0,0.036804684232538694,11.740694270179842,0)" xlink:href="#bc"/><use transform="matrix(0.036804684232538694,0,0,0.036804684232538694,18.365537432036806,0)" xlink:href="#at"/><use transform="matrix(0.036804684232538694,0,0,0.036804684232538694,21.273107486407362,0)" xlink:href="#ar"/><use transform="matrix(0.036804684232538694,0,0,0.036804684232538694,28.634044332915103,0)" xlink:href="#aV"/></g><g id="M"><use transform="matrix(0.036804684232538694,0,0,0.036804684232538694,0,0)" xlink:href="#aE"/><use transform="matrix(0.036804684232538694,0,0,0.036804684232538694,7.360936846507739,0)" xlink:href="#aR"/><use transform="matrix(0.036804684232538694,0,0,0.036804684232538694,14.721873693015478,0)" xlink:href="#aE"/><use transform="matrix(0.036804684232538694,0,0,0.036804684232538694,22.082810539523216,0)" xlink:href="#at"/><use transform="matrix(0.036804684232538694,0,0,0.036804684232538694,24.99038059389377,0)" xlink:href="#av"/><use transform="matrix(0.036804684232538694,0,0,0.036804684232538694,32.351317440401516,0)" xlink:href="#as"/><use transform="matrix(0.036804684232538694,0,0,0.036804684232538694,38.976160602258474,0)" xlink:href="#aA"/></g><path d="M47-170H22l-4-78h33" id="bf"/><g id="N"><use transform="matrix(0.036804684232538694,0,0,0.036804684232538694,0,0)" xlink:href="#aU"/><use transform="matrix(0.036804684232538694,0,0,0.036804684232538694,7.360936846507739,0)" xlink:href="#ar"/><use transform="matrix(0.036804684232538694,0,0,0.036804684232538694,14.721873693015478,0)" xlink:href="#bc"/><use transform="matrix(0.036804684232538694,0,0,0.036804684232538694,21.346716854872437,0)" xlink:href="#ar"/><use transform="matrix(0.036804684232538694,0,0,0.036804684232538694,28.70765370138018,0)" xlink:href="#aH"/><use transform="matrix(0.036804684232538694,0,0,0.036804684232538694,31.61522375575074,0)" xlink:href="#au"/><use transform="matrix(0.036804684232538694,0,0,0.036804684232538694,38.976160602258474,0)" xlink:href="#aC"/><use transform="matrix(0.036804684232538694,0,0,0.036804684232538694,46.337097448766215,0)" xlink:href="#ar"/><use transform="matrix(0.036804684232538694,0,0,0.036804684232538694,53.698034295273956,0)" xlink:href="#aB"/><use transform="matrix(0.036804684232538694,0,0,0.036804684232538694,58.07779171894606,0)" xlink:href="#bf"/><use transform="matrix(0.036804684232538694,0,0,0.036804684232538694,60.5805102467587,0)" xlink:href="#as"/></g><g id="O"><use transform="matrix(0.036804684232538694,0,0,0.036804684232538694,0,0)" xlink:href="#aU"/><use transform="matrix(0.036804684232538694,0,0,0.036804684232538694,7.360936846507739,0)" xlink:href="#ar"/><use transform="matrix(0.036804684232538694,0,0,0.036804684232538694,14.721873693015478,0)" xlink:href="#as"/><use transform="matrix(0.036804684232538694,0,0,0.036804684232538694,21.346716854872437,0)" xlink:href="#ay"/><use transform="matrix(0.036804684232538694,0,0,0.036804684232538694,27.971560016729406,0)" xlink:href="#aB"/><use transform="matrix(0.036804684232538694,0,0,0.036804684232538694,32.351317440401516,0)" xlink:href="#at"/><use transform="matrix(0.036804684232538694,0,0,0.036804684232538694,35.25888749477207,0)" xlink:href="#aC"/><use transform="matrix(0.036804684232538694,0,0,0.036804684232538694,42.61982434127981,0)" xlink:href="#aA"/><use transform="matrix(0.036804684232538694,0,0,0.036804684232538694,46.30029276453368,0)" xlink:href="#at"/><use transform="matrix(0.036804684232538694,0,0,0.036804684232538694,49.20786281890424,0)" xlink:href="#au"/><use transform="matrix(0.036804684232538694,0,0,0.036804684232538694,56.56879966541198,0)" xlink:href="#av"/></g><g id="P"><use transform="matrix(0.05350357197142424,0,0,0.05350357197142424,0,0)" xlink:href="#aZ"/><use transform="matrix(0.05350357197142424,0,0,0.05350357197142424,13.857425140598878,0)" xlink:href="#au"/><use transform="matrix(0.05350357197142424,0,0,0.05350357197142424,24.558139534883725,0)" xlink:href="#ay"/><use transform="matrix(0.05350357197142424,0,0,0.05350357197142424,34.18878248974009,0)" xlink:href="#az"/><use transform="matrix(0.05350357197142424,0,0,0.05350357197142424,44.889496884024936,0)" xlink:href="#aX"/><use transform="matrix(0.05350357197142424,0,0,0.05350357197142424,60.887064903480784,0)" xlink:href="#ar"/><use transform="matrix(0.05350357197142424,0,0,0.05350357197142424,71.58777929776564,0)" xlink:href="#av"/><use transform="matrix(0.05350357197142424,0,0,0.05350357197142424,82.28849369205048,0)" xlink:href="#aA"/><use transform="matrix(0.05350357197142424,0,0,0.05350357197142424,87.63885088919291,0)" xlink:href="#aE"/><use transform="matrix(0.05350357197142424,0,0,0.05350357197142424,98.33956528347775,0)" xlink:href="#aA"/><use transform="matrix(0.05350357197142424,0,0,0.05350357197142424,103.68992248062017,0)" xlink:href="#at"/><use transform="matrix(0.05350357197142424,0,0,0.05350357197142424,107.91670466636269,0)" xlink:href="#au"/><use transform="matrix(0.05350357197142424,0,0,0.05350357197142424,118.61741906064753,0)" xlink:href="#av"/></g><path d="M103-251c84 0 111 97 45 133-19 10-37 24-39 52H78c0-63 77-55 77-114 0-30-21-42-52-43-32 0-53 17-56 46l-32-2c7-45 34-72 88-72zM77 0v-35h34V0H77" id="bg"/><g id="Q"><use transform="matrix(0.05350357197142424,0,0,0.05350357197142424,0,0)" xlink:href="#at"/><use transform="matrix(0.05350357197142424,0,0,0.05350357197142424,4.226782185742515,0)" xlink:href="#aX"/><use transform="matrix(0.05350357197142424,0,0,0.05350357197142424,20.224350205198363,0)" xlink:href="#aC"/><use transform="matrix(0.05350357197142424,0,0,0.05350357197142424,30.92506459948321,0)" xlink:href="#aE"/><use transform="matrix(0.05350357197142424,0,0,0.05350357197142424,41.62577899376806,0)" xlink:href="#ay"/><use transform="matrix(0.05350357197142424,0,0,0.05350357197142424,51.25642194862442,0)" xlink:href="#aA"/><use transform="matrix(0.05350357197142424,0,0,0.05350357197142424,56.60677914576684,0)" xlink:href="#bg"/></g><g id="R"><use transform="matrix(0.02965036415001426,0,0,0.02965036415001426,0,0)" xlink:href="#aU"/><use transform="matrix(0.02965036415001426,0,0,0.02965036415001426,5.930072830002851,0)" xlink:href="#au"/><use transform="matrix(0.02965036415001426,0,0,0.02965036415001426,11.860145660005703,0)" xlink:href="#ay"/><use transform="matrix(0.02965036415001426,0,0,0.02965036415001426,17.19721120700827,0)" xlink:href="#az"/><use transform="matrix(0.02965036415001426,0,0,0.02965036415001426,23.127284037011123,0)" xlink:href="#aX"/><use transform="matrix(0.02965036415001426,0,0,0.02965036415001426,31.992742917865385,0)" xlink:href="#ar"/><use transform="matrix(0.02965036415001426,0,0,0.02965036415001426,37.922815747868235,0)" xlink:href="#av"/><use transform="matrix(0.02965036415001426,0,0,0.02965036415001426,43.85288857787109,0)" xlink:href="#aA"/><use transform="matrix(0.02965036415001426,0,0,0.02965036415001426,46.81792499287251,0)" xlink:href="#aE"/><use transform="matrix(0.02965036415001426,0,0,0.02965036415001426,52.74799782287537,0)" xlink:href="#aA"/><use transform="matrix(0.02965036415001426,0,0,0.02965036415001426,55.71303423787679,0)" xlink:href="#at"/><use transform="matrix(0.02965036415001426,0,0,0.02965036415001426,58.05541300572792,0)" xlink:href="#au"/><use transform="matrix(0.02965036415001426,0,0,0.02965036415001426,63.98548583573077,0)" xlink:href="#av"/></g><g id="S"><use transform="matrix(0.02965036415001426,0,0,0.02965036415001426,0,0)" xlink:href="#aM"/><use transform="matrix(0.02965036415001426,0,0,0.02965036415001426,5.930072830002851,0)" xlink:href="#aB"/><use transform="matrix(0.02965036415001426,0,0,0.02965036415001426,9.458466163854547,0)" xlink:href="#aE"/><use transform="matrix(0.02965036415001426,0,0,0.02965036415001426,15.388538993857397,0)" xlink:href="#av"/><use transform="matrix(0.02965036415001426,0,0,0.02965036415001426,21.31861182386025,0)" xlink:href="#ay"/><use transform="matrix(0.02965036415001426,0,0,0.02965036415001426,26.65567737086282,0)" xlink:href="#aS"/></g><g id="T"><use transform="matrix(0.02965036415001426,0,0,0.02965036415001426,0,0)" xlink:href="#aU"/><use transform="matrix(0.02965036415001426,0,0,0.02965036415001426,5.930072830002851,0)" xlink:href="#au"/><use transform="matrix(0.02965036415001426,0,0,0.02965036415001426,11.860145660005703,0)" xlink:href="#ay"/><use transform="matrix(0.02965036415001426,0,0,0.02965036415001426,17.19721120700827,0)" xlink:href="#as"/><use transform="matrix(0.02965036415001426,0,0,0.02965036415001426,22.534276754010836,0)" xlink:href="#aD"/><use transform="matrix(0.02965036415001426,0,0,0.02965036415001426,25.49931316901226,0)" xlink:href="#aF"/></g><g id="U"><use transform="matrix(0.02965036415001426,0,0,0.02965036415001426,0,0)" xlink:href="#aZ"/><use transform="matrix(0.02965036415001426,0,0,0.02965036415001426,7.6794443148536935,0)" xlink:href="#au"/><use transform="matrix(0.02965036415001426,0,0,0.02965036415001426,13.609517144856547,0)" xlink:href="#ay"/></g><g id="V"><use transform="matrix(0.02965036415001426,0,0,0.02965036415001426,0,0)" xlink:href="#ar"/><use transform="matrix(0.02965036415001426,0,0,0.02965036415001426,5.930072830002851,0)" xlink:href="#aU"/><use transform="matrix(0.02965036415001426,0,0,0.02965036415001426,11.860145660005703,0)" xlink:href="#at"/><use transform="matrix(0.02965036415001426,0,0,0.02965036415001426,14.20252442785683,0)" xlink:href="#aA"/><use transform="matrix(0.02965036415001426,0,0,0.02965036415001426,17.167560842858254,0)" xlink:href="#as"/></g><g id="W"><use transform="matrix(0.02965036415001426,0,0,0.02965036415001426,0,0)" xlink:href="#aV"/><use transform="matrix(0.02965036415001426,0,0,0.02965036415001426,7.6794443148536935,0)" xlink:href="#aB"/><use transform="matrix(0.02965036415001426,0,0,0.02965036415001426,11.207837648705391,0)" xlink:href="#at"/><use transform="matrix(0.02965036415001426,0,0,0.02965036415001426,13.550216416556516,0)" xlink:href="#aA"/><use transform="matrix(0.02965036415001426,0,0,0.02965036415001426,16.51525283155794,0)" xlink:href="#aA"/><use transform="matrix(0.02965036415001426,0,0,0.02965036415001426,19.48028924655937,0)" xlink:href="#ar"/><use transform="matrix(0.02965036415001426,0,0,0.02965036415001426,25.41036207656222,0)" xlink:href="#av"/></g><use transform="matrix(0.02965036415001426,0,0,0.02965036415001426,0,0)" xlink:href="#aJ" id="X"/><g id="Y"><use transform="matrix(0.02965036415001426,0,0,0.02965036415001426,0,0)" xlink:href="#ay"/><use transform="matrix(0.02965036415001426,0,0,0.02965036415001426,5.337065547002567,0)" xlink:href="#au"/><use transform="matrix(0.02965036415001426,0,0,0.02965036415001426,11.267138377005418,0)" xlink:href="#aX"/><use transform="matrix(0.02965036415001426,0,0,0.02965036415001426,20.132597257859683,0)" xlink:href="#aX"/><use transform="matrix(0.02965036415001426,0,0,0.02965036415001426,28.99805613871395,0)" xlink:href="#at"/><use transform="matrix(0.02965036415001426,0,0,0.02965036415001426,31.340434906565072,0)" xlink:href="#aA"/><use transform="matrix(0.02965036415001426,0,0,0.02965036415001426,34.3054713215665,0)" xlink:href="#aA"/><use transform="matrix(0.02965036415001426,0,0,0.02965036415001426,37.27050773656793,0)" xlink:href="#ar"/><use transform="matrix(0.02965036415001426,0,0,0.02965036415001426,43.20058056657078,0)" xlink:href="#aU"/></g><g id="Z"><use transform="matrix(0.044099223252317715,0,0,0.044099223252317715,0,0)" xlink:href="#ay"/><use transform="matrix(0.044099223252317715,0,0,0.044099223252317715,7.937860185417189,0)" xlink:href="#au"/><use transform="matrix(0.044099223252317715,0,0,0.044099223252317715,16.75770483588073,0)" xlink:href="#aX"/><use transform="matrix(0.044099223252317715,0,0,0.044099223252317715,29.94337258832373,0)" xlink:href="#aX"/><use transform="matrix(0.044099223252317715,0,0,0.044099223252317715,43.12904034076673,0)" xlink:href="#at"/><use transform="matrix(0.044099223252317715,0,0,0.044099223252317715,46.612878977699836,0)" xlink:href="#aA"/></g><g id="aa"><use transform="matrix(0.044099223252317715,0,0,0.044099223252317715,0,0)" xlink:href="#aI"/><use transform="matrix(0.044099223252317715,0,0,0.044099223252317715,8.819844650463542,0)" xlink:href="#at"/><use transform="matrix(0.044099223252317715,0,0,0.044099223252317715,12.30368328739664,0)" xlink:href="#av"/><use transform="matrix(0.044099223252317715,0,0,0.044099223252317715,21.123527937860185,0)" xlink:href="#ar"/><use transform="matrix(0.044099223252317715,0,0,0.044099223252317715,29.94337258832373,0)" xlink:href="#aE"/><use transform="matrix(0.044099223252317715,0,0,0.044099223252317715,38.76321723878728,0)" xlink:href="#aB"/></g><g id="ab"><use transform="matrix(0.044099223252317715,0,0,0.044099223252317715,0,0)" xlink:href="#at"/><use transform="matrix(0.044099223252317715,0,0,0.044099223252317715,3.4838386369330996,0)" xlink:href="#as"/><use transform="matrix(0.044099223252317715,0,0,0.044099223252317715,11.421698822350288,0)" xlink:href="#as"/><use transform="matrix(0.044099223252317715,0,0,0.044099223252317715,19.359559007767476,0)" xlink:href="#az"/><use transform="matrix(0.044099223252317715,0,0,0.044099223252317715,28.17940365823102,0)" xlink:href="#ar"/></g><use transform="matrix(0.044099223252317715,0,0,0.044099223252317715,0,0)" xlink:href="#aO" id="ac"/><g id="ad"><use transform="matrix(0.044099223252317715,0,0,0.044099223252317715,0,0)" xlink:href="#aP"/><use transform="matrix(0.044099223252317715,0,0,0.044099223252317715,4.409922325231771,0)" xlink:href="#av"/></g><path d="M233-177c-1 41-23 64-60 70L243 0h-38l-65-103H63V0H30v-248c88 3 205-21 203 71zM63-129c60-2 137 13 137-47 0-61-80-42-137-45v92" id="bh"/><g id="ae"><use transform="matrix(0.044099223252317715,0,0,0.044099223252317715,0,0)" xlink:href="#bh"/><use transform="matrix(0.044099223252317715,0,0,0.044099223252317715,11.421698822350288,0)" xlink:href="#ar"/><use transform="matrix(0.044099223252317715,0,0,0.044099223252317715,20.241543472813834,0)" xlink:href="#bc"/><use transform="matrix(0.044099223252317715,0,0,0.044099223252317715,28.179403658231024,0)" xlink:href="#at"/><use transform="matrix(0.044099223252317715,0,0,0.044099223252317715,31.663242295164125,0)" xlink:href="#ar"/><use transform="matrix(0.044099223252317715,0,0,0.044099223252317715,40.48308694562767,0)" xlink:href="#aV"/></g><g id="af"><use transform="matrix(0.05635606788344542,0,0,0.05635606788344542,0,0)" xlink:href="#aC"/><use transform="matrix(0.05635606788344542,0,0,0.05635606788344542,11.271213576689084,0)" xlink:href="#az"/><use transform="matrix(0.05635606788344542,0,0,0.05635606788344542,22.542427153378167,0)" xlink:href="#as"/><use transform="matrix(0.05635606788344542,0,0,0.05635606788344542,32.686519372398344,0)" xlink:href="#aS"/></g><path d="M179-190L93 31C79 59 56 82 12 73V49c39 6 53-20 64-50L1-190h34L92-34l54-156h33" id="bi"/><g id="ag"><use transform="matrix(0.05635606788344542,0,0,0.05635606788344542,0,0)" xlink:href="#aX"/><use transform="matrix(0.05635606788344542,0,0,0.05635606788344542,16.85046429715018,0)" xlink:href="#aE"/><use transform="matrix(0.05635606788344542,0,0,0.05635606788344542,28.121677873839264,0)" xlink:href="#av"/><use transform="matrix(0.05635606788344542,0,0,0.05635606788344542,39.392891450528346,0)" xlink:href="#az"/><use transform="matrix(0.05635606788344542,0,0,0.05635606788344542,50.66410502721743,0)" xlink:href="#aE"/><use transform="matrix(0.05635606788344542,0,0,0.05635606788344542,61.935318603906516,0)" xlink:href="#aH"/><use transform="matrix(0.05635606788344542,0,0,0.05635606788344542,66.3874479666987,0)" xlink:href="#aH"/><use transform="matrix(0.05635606788344542,0,0,0.05635606788344542,70.8395773294909,0)" xlink:href="#bi"/><use transform="matrix(0.05635606788344542,0,0,0.05635606788344542,79.46205571565804,0)" xlink:href="#aN"/></g><g id="ah"><use transform="matrix(0.05635606788344542,0,0,0.05635606788344542,0,0)" xlink:href="#au"/><use transform="matrix(0.05635606788344542,0,0,0.05635606788344542,11.271213576689084,0)" xlink:href="#aC"/><use transform="matrix(0.05635606788344542,0,0,0.05635606788344542,22.542427153378167,0)" xlink:href="#ar"/><use transform="matrix(0.05635606788344542,0,0,0.05635606788344542,33.81364073006725,0)" xlink:href="#av"/></g><g id="ai"><use transform="matrix(0.05635606788344542,0,0,0.05635606788344542,0,0)" xlink:href="#aQ"/><use transform="matrix(0.05635606788344542,0,0,0.05635606788344542,13.525456292026899,0)" xlink:href="#bh"/><use transform="matrix(0.05635606788344542,0,0,0.05635606788344542,28.121677873839264,0)" xlink:href="#as"/></g><path d="M143 4C61 4 22-44 18-125c-5-107 100-154 193-111 17 8 29 25 37 43l-32 9c-13-25-37-40-76-40-61 0-88 39-88 99 0 61 29 100 91 101 35 0 62-11 79-27v-45h-74v-28h105v86C228-13 192 4 143 4" id="bj"/><path d="M160-131c35 5 61 23 61 61C221 17 115-2 30 0v-248c76 3 177-17 177 60 0 33-19 50-47 57zm-97-11c50-1 110 9 110-42 0-47-63-36-110-37v79zm0 115c55-2 124 14 124-45 0-56-70-42-124-44v89" id="bk"/><g id="aj"><use transform="matrix(0.05305860301731485,0,0,0.05305860301731485,0,0)" xlink:href="#bj"/><use transform="matrix(0.05305860301731485,0,0,0.05305860301731485,14.856408844848158,0)" xlink:href="#at"/><use transform="matrix(0.05305860301731485,0,0,0.05305860301731485,19.04803848321603,0)" xlink:href="#aA"/><use transform="matrix(0.05305860301731485,0,0,0.05305860301731485,24.35389878494751,0)" xlink:href="#bk"/><use transform="matrix(0.05305860301731485,0,0,0.05305860301731485,37.087963509103076,0)" xlink:href="#au"/><use transform="matrix(0.05305860301731485,0,0,0.05305860301731485,47.69968411256605,0)" xlink:href="#au"/><use transform="matrix(0.05305860301731485,0,0,0.05305860301731485,58.31140471602902,0)" xlink:href="#aG"/></g><g id="ak"><use transform="matrix(0.05305860301731485,0,0,0.05305860301731485,0,0)" xlink:href="#aE"/><use transform="matrix(0.05305860301731485,0,0,0.05305860301731485,10.611720603462969,0)" xlink:href="#az"/><use transform="matrix(0.05305860301731485,0,0,0.05305860301731485,21.223441206925937,0)" xlink:href="#aA"/><use transform="matrix(0.05305860301731485,0,0,0.05305860301731485,26.529301508657422,0)" xlink:href="#au"/><use transform="matrix(0.05305860301731485,0,0,0.05305860301731485,37.14102211212039,0)" xlink:href="#aF"/><use transform="matrix(0.05305860301731485,0,0,0.05305860301731485,43.454995871180856,0)" xlink:href="#as"/><use transform="matrix(0.05305860301731485,0,0,0.05305860301731485,53.00554441429753,0)" xlink:href="#bi"/><use transform="matrix(0.05305860301731485,0,0,0.05305860301731485,62.5560929574142,0)" xlink:href="#av"/><use transform="matrix(0.05305860301731485,0,0,0.05305860301731485,73.16781356087716,0)" xlink:href="#ay"/><use transform="matrix(0.05305860301731485,0,0,0.05305860301731485,82.71836210399384,0)" xlink:href="#as"/></g><g id="al"><use transform="matrix(0.05305860301731485,0,0,0.05305860301731485,0,0)" xlink:href="#aU"/><use transform="matrix(0.05305860301731485,0,0,0.05305860301731485,10.611720603462969,0)" xlink:href="#au"/><use transform="matrix(0.05305860301731485,0,0,0.05305860301731485,21.223441206925937,0)" xlink:href="#ay"/><use transform="matrix(0.05305860301731485,0,0,0.05305860301731485,30.77398975004261,0)" xlink:href="#az"/><use transform="matrix(0.05305860301731485,0,0,0.05305860301731485,41.38571035350558,0)" xlink:href="#aX"/><use transform="matrix(0.05305860301731485,0,0,0.05305860301731485,57.25023265568272,0)" xlink:href="#ar"/><use transform="matrix(0.05305860301731485,0,0,0.05305860301731485,67.8619532591457,0)" xlink:href="#av"/><use transform="matrix(0.05305860301731485,0,0,0.05305860301731485,78.47367386260865,0)" xlink:href="#aA"/><use transform="matrix(0.05305860301731485,0,0,0.05305860301731485,83.77953416434013,0)" xlink:href="#aE"/><use transform="matrix(0.05305860301731485,0,0,0.05305860301731485,94.3912547678031,0)" xlink:href="#aA"/><use transform="matrix(0.05305860301731485,0,0,0.05305860301731485,99.69711506953459,0)" xlink:href="#at"/><use transform="matrix(0.05305860301731485,0,0,0.05305860301731485,103.88874470790246,0)" xlink:href="#au"/><use transform="matrix(0.05305860301731485,0,0,0.05305860301731485,114.50046531136545,0)" xlink:href="#av"/><use transform="matrix(0.05305860301731485,0,0,0.05305860301731485,125.1121859148284,0)" xlink:href="#aD"/></g><g id="am"><use transform="matrix(0.05305860301731485,0,0,0.05305860301731485,0,0)" xlink:href="#au"/><use transform="matrix(0.05305860301731485,0,0,0.05305860301731485,10.611720603462969,0)" xlink:href="#av"/></g><g id="an"><use transform="matrix(0.05305860301731485,0,0,0.05305860301731485,0,0)" xlink:href="#aX"/><use transform="matrix(0.05305860301731485,0,0,0.05305860301731485,15.86452230217714,0)" xlink:href="#ar"/><use transform="matrix(0.05305860301731485,0,0,0.05305860301731485,26.47624290564011,0)" xlink:href="#aB"/><use transform="matrix(0.05305860301731485,0,0,0.05305860301731485,32.79021666470057,0)" xlink:href="#aR"/><use transform="matrix(0.05305860301731485,0,0,0.05305860301731485,43.40193726816355,0)" xlink:href="#ar"/></g><g id="ao"><use transform="matrix(0.05,0,0,0.05,0,0)" xlink:href="#bi"/><use transform="matrix(0.05,0,0,0.05,9,0)" xlink:href="#ar"/><use transform="matrix(0.05,0,0,0.05,19,0)" xlink:href="#as"/></g><g id="ap"><use transform="matrix(0.05,0,0,0.05,0,0)" xlink:href="#av"/><use transform="matrix(0.05,0,0,0.05,10,0)" xlink:href="#au"/></g></defs></g></svg>