<?xml version="1.0" encoding="utf-8" standalone="yes"?>
<!DOCTYPE svg PUBLIC "-//W3C//DTD SVG 1.1//EN" "http://www.w3.org/Graphics/SVG/1.1/DTD/svg11.dtd">
<svg style="fill:none;stroke:none;fill-rule:evenodd;clip-rule:evenodd;stroke-linecap:round;stroke-linejoin:round;stroke-miterlimit:1.5;" version="1.1" xmlns="http://www.w3.org/2000/svg" xmlns:xlink="http://www.w3.org/1999/xlink" width="848" height="294" viewBox="0 0 848 294"><style class="text-font-style fontImports" data-font-family="Roboto">@import url(https://fonts.googleapis.com/css2?family=Roboto:wght@400;700&amp;amp;display=block);</style><g id="items" style="isolation: isolate"><g id="blend" style="mix-blend-mode: normal"><g id="g-root-cp_1_g-1_v69e1b9a60y-fill" data-item-order="-196549" transform="translate(272.4656677246094, 92)"></g><g id="g-root-cp_1_g-1_v69e1b9a60y-stroke" data-item-order="-196549" transform="translate(272.4656677246094, 92)"><g id="cp_1_g-1_v69e1b9a60y-stroke" fill="none" stroke-linecap="round" stroke-linejoin="round" stroke-miterlimit="4" stroke="#000000" stroke-width="1" stroke-opacity="1"><g><path d="M 140.6697 34L 140.6697 10L 92.6699 10L 92.6699 34C 92.6699 53.8822 76.5513 70 56.6691 70L 56.6691 47.3309L 10 94L 56.669 140.669L 56.669 117.9999C 103.061 117.9999 140.6697 80.3919 140.6697 34Z"></path></g></g></g><g id="g-root-cp_2_g-2_1q6c7zm1b9a6mj-fill" data-item-order="-196545" transform="translate(415.4666748046875, 92)"></g><g id="g-root-cp_2_g-2_1q6c7zm1b9a6mj-stroke" data-item-order="-196545" transform="translate(415.4666748046875, 92)"><g id="cp_2_g-2_1q6c7zm1b9a6mj-stroke" fill="none" stroke-linecap="round" stroke-linejoin="round" stroke-miterlimit="4" stroke="#000000" stroke-width="1" stroke-opacity="1"><g><path d="M 10 34L 10 10L 57.9998 10L 57.9998 34C 57.9998 53.8822 74.1184 70 94.0006 70L 94.0006 47.3309L 140.6697 94L 94.0007 140.669L 94.0007 117.9999C 47.6087 117.9999 10 80.3919 10 34Z"></path></g></g></g><g id="g-root-tx_whichdoc_1q6c7zm1b9a6mk-fill" data-item-order="0" transform="translate(312.4250183105469, 38)"><g id="tx_whichdoc_1q6c7zm1b9a6mk-fill-merged" stroke="none" fill="#000000" fill-opacity="1"><g><text style="font: bold 25px &quot;Roboto&quot;, sans-serif; white-space: pre;" transform="translate(107.04165649414062, 25)" font-weight="bold" font-size="25px" font-family="'Roboto', sans-serif"><tspan x="-95.04" y="15.08" dominant-baseline="ideographic">Publishing Paths</tspan></text></g></g></g><g id="g-root-tx_whichdoc_1q6c7zm1b9a6mk-stroke" data-item-order="0" transform="translate(312.4250183105469, 38)"></g><g id="g-root-tx_userfold_4g27aq1b9bmkp-fill" data-item-order="0" transform="translate(171.98333740234375, 152)"><g id="tx_userfold_4g27aq1b9bmkp-fill-merged" stroke="none" fill="#000000" fill-opacity="1"><g><text style="font: bold 15px &quot;Roboto&quot;, sans-serif; white-space: pre;" transform="translate(91.48333740234375, 19)" font-weight="bold" font-size="15px" font-family="'Roboto', sans-serif"><tspan x="-79.48" y="9.5" dominant-baseline="ideographic">User Folder</tspan></text></g></g></g><g id="g-root-tx_userfold_4g27aq1b9bmkp-stroke" data-item-order="0" transform="translate(171.98333740234375, 152)"></g><g id="g-root-ic_sear_1cuvpma1b9a87h-fill" data-item-order="0" transform="translate(301.4666748046875, 158)"></g><g id="g-root-ic_sear_1cuvpma1b9a87h-stroke" data-item-order="0" transform="translate(301.4666748046875, 158)"><g id="ic_sear_1cuvpma1b9a87h-stroke" fill="none" stroke-linecap="round" stroke-linejoin="round" stroke-miterlimit="4" stroke="#000000" stroke-width="1" stroke-opacity="1"><g><path d="M 28.75 35.543499C 28.75 39.295444 31.791553 42.336998 35.543499 42.336998C 39.295444 42.336998 42.336998 39.295444 42.336998 35.543499C 42.336998 31.791553 39.295444 28.75 35.543499 28.75C 31.791553 28.75 28.75 31.791553 28.75 35.543499ZM 45.25 45.25L 40.378002 40.378002M 22.75 33.25L 12.25 33.25C 11.421573 33.25 10.75 32.578426 10.75 31.75L 10.75 17.371C 10.750085 16.973207 10.908176 16.59174 11.1895 16.310499L 16.310499 11.1895C 16.59174 10.908176 16.973207 10.750085 17.371 10.75L 25.129002 10.75C 25.526791 10.750085 25.90826 10.908176 26.189501 11.1895L 31.310499 16.310499C 31.591824 16.59174 31.749916 16.973207 31.75 17.371L 31.75 22.75M 31.615 16.75L 10.885 16.75M 21.25 10.75L 21.25 16.75"></path></g></g></g><g id="g-root-ic_2_1lxdxte1b9a5u0-fill" data-item-order="0" transform="translate(481.4666748046875, 158)"></g><g id="g-root-ic_2_1lxdxte1b9a5u0-stroke" data-item-order="0" transform="translate(481.4666748046875, 158)"><g id="ic_2_1lxdxte1b9a5u0-stroke" fill="none" stroke-linecap="round" stroke-linejoin="round" stroke-miterlimit="4" stroke="#000000" stroke-width="1" stroke-opacity="1"><g><path d="M 10 10M 38.397999 27.9247L 38.998001 29.874699C 39.147999 30.624699 39.897999 30.9247 40.647999 30.7747L 42.598 30.324699C 44.397999 29.874699 45.598 31.974701 44.397999 33.324699L 43.048 34.824699C 42.598 35.424702 42.598 36.174702 43.048 36.624699L 44.397999 38.124699C 45.598 39.474701 44.397999 41.574699 42.598 41.124699L 40.647999 40.674702C 39.897999 40.5247 39.298 40.974701 38.998001 41.574699L 38.397999 43.5247C 37.798 45.324699 35.397999 45.324699 34.947998 43.5247L 34.348 41.574699C 34.197998 40.824699 33.447998 40.5247 32.697998 40.674702L 30.747999 41.124699C 28.948 41.574699 27.747999 39.474701 28.948 38.124699L 30.298 36.624699C 30.747999 36.0247 30.747999 35.2747 30.298 34.824699L 28.948 33.324699C 27.747999 31.974701 28.948 29.874699 30.747999 30.324699L 32.697998 30.7747C 33.447998 30.9247 34.048 30.474701 34.348 29.874699L 34.947998 27.9247C 35.397999 26.124699 37.947998 26.124699 38.397999 27.9247ZM 24.625 20.125L 24.625 16.825001C 24.625 13.675 22.075014 11.125 18.925014 11.125C 15.775015 11.125 13.22503 13.675 13.22503 16.825001L 13.22503 20.125M 18.625 33.625L 13.375 33.625C 12.175 33.625 11.125 32.575001 11.125 31.375L 11.125 22.375C 11.125 21.174999 12.175 20.125 13.375 20.125L 24.625 20.125C 25.825001 20.125 26.875 21.174999 26.875 22.375L 26.875 24.625M 22.824894 33.625L 29.124849 33.625M 20.125 29.574699L 25.075001 29.574699M 36.673 37.792301C 37.815102 37.792301 38.740902 36.866501 38.740902 35.7244C 38.740902 34.582302 37.815102 33.656502 36.673 33.656502C 35.530899 33.656502 34.605103 34.582302 34.605103 35.7244C 34.605103 36.866501 35.530899 37.792301 36.673 37.792301Z"></path></g></g></g><g id="g-root-tx_devfolde_14144mq1b9bm6k-fill" data-item-order="0" transform="translate(565.4666748046875, 152)"><g id="tx_devfolde_14144mq1b9bm6k-fill-merged" stroke="none" fill="#000000" fill-opacity="1"><g><text style="font: bold 15px &quot;Roboto&quot;, sans-serif; white-space: pre;" transform="translate(10, 19)" font-weight="bold" font-size="15px" font-family="'Roboto', sans-serif"><tspan x="2" y="9.5" dominant-baseline="ideographic">Dev Folder</tspan></text></g></g></g><g id="g-root-tx_devfolde_14144mq1b9bm6k-stroke" data-item-order="0" transform="translate(565.4666748046875, 152)"></g><g id="g-root-tx_suitable_1uneoaa1b9bm6i-fill" data-item-order="0" transform="translate(14, 182)"><g id="tx_suitable_1uneoaa1b9bm6i-fill-merged" stroke="none" fill="#000000" fill-opacity="1"><g><text style="font: 15px &quot;Roboto&quot;, sans-serif; white-space: pre;" transform="translate(249.4666748046875, 37)" font-size="15px" font-family="'Roboto', sans-serif"><tspan x="-237.47" y="-8.5" dominant-baseline="ideographic">External audiences and per-product </tspan><tspan x="-191.35" y="9.5" dominant-baseline="ideographic">documentation, published at </tspan><tspan x="-203.67" y="27.5" dominant-baseline="ideographic">product-specific sub-domains.</tspan></text></g></g></g><g id="g-root-tx_suitable_1uneoaa1b9bm6i-stroke" data-item-order="0" transform="translate(14, 182)"></g><g id="g-root-tx_idealfor_zlamia1b9bmyt-fill" data-item-order="0" transform="translate(565.4666748046875, 182)"><g id="tx_idealfor_zlamia1b9bmyt-fill-merged" stroke="none" fill="#000000" fill-opacity="1"><g><text style="font: 15px &quot;Roboto&quot;, sans-serif; white-space: pre;" transform="translate(10, 28)" font-size="15px" font-family="'Roboto', sans-serif"><tspan x="2" y="0.5" dominant-baseline="ideographic">For internal developers, published at </tspan><tspan x="2" y="18.5" dominant-baseline="ideographic">an auth-gated page or domain.</tspan></text></g></g></g><g id="g-root-tx_idealfor_zlamia1b9bmyt-stroke" data-item-order="0" transform="translate(565.4666748046875, 182)"></g></g></g></svg>