<?xml version="1.0" encoding="utf-8" standalone="yes"?>
<!DOCTYPE svg PUBLIC "-//W3C//DTD SVG 1.1//EN" "http://www.w3.org/Graphics/SVG/1.1/DTD/svg11.dtd">
<svg style="fill:none;stroke:none;fill-rule:evenodd;clip-rule:evenodd;stroke-linecap:round;stroke-linejoin:round;stroke-miterlimit:1.5;" version="1.1" xmlns="http://www.w3.org/2000/svg" xmlns:xlink="http://www.w3.org/1999/xlink" width="819" height="588" viewBox="0 0 819 588"><style class="text-font-style fontImports" data-font-family="Roboto">@import url(https://fonts.googleapis.com/css2?family=Roboto:wght@400;700&amp;amp;display=block);</style><g id="items" style="isolation: isolate"><g id="blend" style="mix-blend-mode: normal"><g id="g-root-sy_6_cu_4hybr61bj9t6r-fill" data-item-order="-244937" transform="translate(628.816650390625, 235.595703125)"></g><g id="g-root-sy_6_cu_4hybr61bj9t6r-stroke" data-item-order="-244937" transform="translate(628.816650390625, 235.595703125)"><g id="sy_6_cu_4hybr61bj9t6r-stroke" fill="none" stroke-linecap="round" stroke-linejoin="round" stroke-miterlimit="4" stroke="#000000" stroke-width="1" stroke-opacity="1"><g><path d="M 34 142C 34 168.5097 55.4904 190 82 190C 108.5096 190 130 168.5097 130 142L 130 46L 118 46L 142 10L 166 46L 154 46L 154 142C 154 181.7645 121.7645 214 82 214C 42.2355 214 10 181.7645 10 142L 34 142Z"></path></g></g></g><g id="g-root-sy_5_cu_1unfdhe1bj9tsc-fill" data-item-order="-244933" transform="translate(508.816650390625, 235.595703125)"></g><g id="g-root-sy_5_cu_1unfdhe1bj9tsc-stroke" data-item-order="-244933" transform="translate(508.816650390625, 235.595703125)"><g id="sy_5_cu_1unfdhe1bj9tsc-stroke" fill="none" stroke-linecap="round" stroke-linejoin="round" stroke-miterlimit="4" stroke="#000000" stroke-width="1" stroke-opacity="1"><g><path d="M 10 82C 10 42.2355 42.2355 10 82 10C 121.7645 10 154 42.2355 154 82L 154 142L 130 142L 130 82C 130 55.4903 108.5096 34 82 34C 55.4904 34 34 55.4903 34 82L 34 202L 10 202L 10 82Z"></path></g></g></g><g id="g-root-sy_4_cu_1q88cg21bj9ret-fill" data-item-order="-244929" transform="translate(388.816650390625, 307.595703125)"></g><g id="g-root-sy_4_cu_1q88cg21bj9ret-stroke" data-item-order="-244929" transform="translate(388.816650390625, 307.595703125)"><g id="sy_4_cu_1q88cg21bj9ret-stroke" fill="none" stroke-linecap="round" stroke-linejoin="round" stroke-miterlimit="4" stroke="#000000" stroke-width="1" stroke-opacity="1"><g><path d="M 34 130C 34 156.5097 55.4903 178 82 178C 108.5097 178 130 156.5097 130 130L 154 130C 154 169.7645 121.7645 202 82 202C 42.2355 202 10 169.7645 10 130L 10 10L 34 10L 34 130Z"></path></g></g></g><g id="g-root-sy_3_cu_1hclc761bj9s7i-fill" data-item-order="-244925" transform="translate(268.816650390625, 175.595703125)"></g><g id="g-root-sy_3_cu_1hclc761bj9s7i-stroke" data-item-order="-244925" transform="translate(268.816650390625, 175.595703125)"><g id="sy_3_cu_1hclc761bj9s7i-stroke" fill="none" stroke-linecap="round" stroke-linejoin="round" stroke-miterlimit="4" stroke="#000000" stroke-width="1" stroke-opacity="1"><g><path d="M 10 82C 10 42.2355 42.2355 10 82 10C 121.7645 10 154 42.2355 154 82L 154 142L 130 142L 130 82C 130 55.4903 108.5097 34 82 34C 55.4903 34 34 55.4903 34 82L 10 82Z"></path></g></g></g><g id="g-root-sy_2_cu_1hclc761bj9s7j-fill" data-item-order="-244921" transform="translate(148.816650390625, 247.595703125)"></g><g id="g-root-sy_2_cu_1hclc761bj9s7j-stroke" data-item-order="-244921" transform="translate(148.816650390625, 247.595703125)"><g id="sy_2_cu_1hclc761bj9s7j-stroke" fill="none" stroke-linecap="round" stroke-linejoin="round" stroke-miterlimit="4" stroke="#000000" stroke-width="1" stroke-opacity="1"><g><path d="M 34 130C 34 156.5097 55.4903 178 82 178C 108.5097 178 130 156.5097 130 130L 130 10L 154 10L 154 130C 154 169.7645 121.7645 202 82 202C 42.2355 202 10 169.7645 10 130L 10 70L 34 70L 34 130Z"></path></g></g></g><g id="g-root-sy_1_cu_1cwru2q1bj9szs-fill" data-item-order="-244917" transform="translate(28.816650390625, 235.595703125)"></g><g id="g-root-sy_1_cu_1cwru2q1bj9szs-stroke" data-item-order="-244917" transform="translate(28.816650390625, 235.595703125)"><g id="sy_1_cu_1cwru2q1bj9szs-stroke" fill="none" stroke-linecap="round" stroke-linejoin="round" stroke-miterlimit="4" stroke="#000000" stroke-width="1" stroke-opacity="1"><g><path d="M 82 34C 55.4903 34 34 55.4903 34 82L 34 202L 10 202L 10 82C 10 42.2355 42.2355 10 82 10C 121.7645 10 154 42.2355 154 82L 130 82C 130 55.4903 108.5097 34 82 34Z"></path></g></g></g><g id="g-root-tx_linearis_dgppfm1bjcl5b-fill" data-item-order="0" transform="translate(189.316650390625, 38)"><g id="tx_linearis_dgppfm1bjcl5b-fill-merged" stroke="none" fill="#000000" fill-opacity="1"><g><text style="font: bold 25px &quot;Roboto&quot;, sans-serif; white-space: pre;" transform="translate(221.5, 25)" font-weight="bold" font-size="25px" font-family="'Roboto', sans-serif"><tspan x="-209.5" y="15.08" dominant-baseline="ideographic">Documentation Automation Overview</tspan></text></g></g></g><g id="g-root-tx_linearis_dgppfm1bjcl5b-stroke" data-item-order="0" transform="translate(189.316650390625, 38)"></g><g id="g-root-tx_develope_1cyn9c21bjckch-fill" data-item-order="0" transform="translate(272.99163818359375, 127.0166015625)"><g id="tx_develope_1cyn9c21bjckch-fill-merged" stroke="none" fill="#000000" fill-opacity="1"><g><text style="font: 15px &quot;Roboto&quot;, sans-serif; white-space: pre;" transform="translate(77.82501220703125, 28.49169921875)" font-size="15px" font-family="'Roboto', sans-serif"><tspan x="-60.82" y="0.01" dominant-baseline="ideographic">Developer Creates</tspan><tspan x="-65.82" y="18.01" dominant-baseline="ideographic">Pull Requests (PRs)</tspan></text></g></g></g><g id="g-root-tx_develope_1cyn9c21bjckch-stroke" data-item-order="0" transform="translate(272.99163818359375, 127.0166015625)"></g><g id="g-root-tx_develope_mccpoi1bjckcl-fill" data-item-order="0" transform="translate(13.999984741210938, 206)"><g id="tx_develope_mccpoi1bjckcl-fill-merged" stroke="none" fill="#000000" fill-opacity="1"><g><text style="font: 15px &quot;Roboto&quot;, sans-serif; white-space: pre;" transform="translate(96.81666564941406, 19)" font-size="15px" font-family="'Roboto', sans-serif"><tspan x="-84.82" y="9.5" dominant-baseline="ideographic">Developer Commits Code</tspan></text></g></g></g><g id="g-root-tx_develope_mccpoi1bjckcl-stroke" data-item-order="0" transform="translate(13.999984741210938, 206)"></g><g id="g-root-ic_2_4hybr61bjb7d5-fill" data-item-order="0" transform="translate(316.816650390625, 224)"></g><g id="g-root-ic_2_4hybr61bjb7d5-stroke" data-item-order="0" transform="translate(316.816650390625, 224)"><g id="ic_2_4hybr61bjb7d5-stroke" fill="none" stroke-linecap="round" stroke-linejoin="round" stroke-miterlimit="4" stroke="#000000" stroke-width="1" stroke-opacity="1"><g><path d="M 31.809401 27C 34.128998 27 36.009399 25.1196 36.009399 22.799999C 36.009399 20.4804 34.128998 18.6 31.809401 18.6C 29.48978 18.6 27.609381 20.4804 27.609381 22.799999C 27.609381 25.1196 29.48978 27 31.809401 27ZM 31.700001 18.6L 18.70002 18.6M 10 10M 35.700001 21.20002L 39.5 27.600019L 49.900002 27.600019M 10 10M 45.900002 23.6L 49.900002 27.6L 45.900002 31.6M 31.809401 49.400002C 34.128998 49.400002 36.009399 47.5196 36.009399 45.200001C 36.009399 42.880402 34.128998 41 31.809401 41C 29.48978 41 27.609381 42.880402 27.609381 45.200001C 27.609381 47.5196 29.48978 49.400002 31.809401 49.400002ZM 31.700001 49.400002L 18.70002 49.400002M 10 10M 35.700001 46.799999L 39.5 40.400002L 49.900002 40.400002M 10 10M 45.900002 44.400002L 49.900002 40.400002L 45.900002 36.400002M 15.156 11.156L 52.844002 11.156C 52.844002 11.156 56.844002 11.156 56.844002 15.156L 56.844002 52.844002C 56.844002 52.844002 56.844002 56.844002 52.844002 56.844002L 15.156 56.844002C 15.156 56.844002 11.156 56.844002 11.156 52.844002L 11.156 15.156C 11.156 15.156 11.156 11.156 15.156 11.156"></path></g></g></g><g id="g-root-tx_reviewer_1upasqq1bjcl51-fill" data-item-order="0" transform="translate(500.26666259765625, 206)"><g id="tx_reviewer_1upasqq1bjcl51-fill-merged" stroke="none" fill="#000000" fill-opacity="1"><g><text style="font: 15px &quot;Roboto&quot;, sans-serif; white-space: pre;" transform="translate(90.54998779296875, 19)" font-size="15px" font-family="'Roboto', sans-serif"><tspan x="-78.55" y="9.5" dominant-baseline="ideographic">Reviewer Approves PRs</tspan></text></g></g></g><g id="g-root-tx_reviewer_1upasqq1bjcl51-stroke" data-item-order="0" transform="translate(500.26666259765625, 206)"></g><g id="g-root-ic_code_dju2v61bjb85f-fill" data-item-order="0" transform="translate(76.816650390625, 284)"></g><g id="g-root-ic_code_dju2v61bjb85f-stroke" data-item-order="0" transform="translate(76.816650390625, 284)"><g id="ic_code_dju2v61bjb85f-stroke" fill="none" stroke-linecap="round" stroke-linejoin="round" stroke-miterlimit="4" stroke="#000000" stroke-width="1" stroke-opacity="1"><g><path d="M 10 10M 28 30L 24 34L 28 38M 10 10M 40 30L 44 34L 40 38M 10 10M 32.5998 40L 35.5998 28M 34 18.699959C 35.988197 18.699959 37.599998 17.0882 37.599998 15.099979C 37.599998 13.11176 35.988197 11.5 34 11.5C 32.011803 11.5 30.4 13.11176 30.4 15.099979C 30.4 17.0882 32.011803 18.699959 34 18.699959ZM 10 10M 37.000198 17.0998L 42.000198 20.299801L 42.4002 16.299801M 17.800039 28.3001C 19.78828 28.3001 21.40008 26.68836 21.40008 24.70014C 21.40008 22.711899 19.78828 21.1001 17.800039 21.1001C 15.81182 21.1001 14.20008 22.711899 14.20008 24.70014C 14.20008 26.68836 15.81182 28.3001 17.800039 28.3001ZM 10 10M 21.00012 23.1001L 26.20014 20.50012L 23.00012 18.1001M 17.800039 46.899799C 19.78828 46.899799 21.40008 45.287998 21.40008 43.299599C 21.40008 41.311401 19.78828 39.699799 17.800039 39.699799C 15.81182 39.699799 14.20008 41.311401 14.20008 43.299599C 14.20008 45.287998 15.81182 46.899799 17.800039 46.899799ZM 10 10M 18.00024 39.699799L 18.400261 33.900002L 14.60022 35.299801M 34 56.500198C 35.988197 56.500198 37.599998 54.888401 37.599998 52.9002C 37.599998 50.911999 35.988197 49.300201 34 49.300201C 32.011803 49.300201 30.4 50.911999 30.4 52.9002C 30.4 54.888401 32.011803 56.500198 34 56.500198ZM 10 10M 30.7344 51.375L 25.599979 47.900398L 25 51.900398M 50.200001 46.899799C 52.188202 46.899799 53.799999 45.287998 53.799999 43.299599C 53.799999 41.311401 52.188202 39.699799 50.200001 39.699799C 48.2118 39.699799 46.599998 41.311401 46.599998 43.299599C 46.599998 45.287998 48.2118 46.899799 50.200001 46.899799ZM 47.0546 45.062401L 41.599998 47.700001L 44.799999 50.099998M 50.200001 28.3001C 52.188202 28.3001 53.799999 26.68836 53.799999 24.70014C 53.799999 22.711899 52.188202 21.1001 50.200001 21.1001C 48.2118 21.1001 46.599998 22.711899 46.599998 24.70014C 46.599998 26.68836 48.2118 28.3001 50.200001 28.3001ZM 10 10M 50.199799 28.299801L 49.799999 34.299801L 53.400002 32.699799"></path></g></g></g><g id="g-root-ic_1_1cyn9c21bj9s07-fill" data-item-order="0" transform="translate(556.816650390625, 284)"></g><g id="g-root-ic_1_1cyn9c21bj9s07-stroke" data-item-order="0" transform="translate(556.816650390625, 284)"><g id="ic_1_1cyn9c21bj9s07-stroke" fill="none" stroke-linecap="round" stroke-linejoin="round" stroke-miterlimit="4" stroke="#000000" stroke-width="1" stroke-opacity="1"><g><path d="M 31 57L 13 57C 11.895431 57 11 56.104568 11 55L 11 13C 11 11.895431 11.895431 11 13 11L 39.585999 11C 40.118408 11.003817 40.627319 11.219762 41 11.6L 48.414001 19C 48.789101 19.374985 48.999886 19.88361 49 20.414L 49 27M 23 24.007999L 17 30.007999L 23 36.007999M 29 24.007999L 35 30.007999L 29 36.007999M 33 45.007999C 33 51.635418 38.372581 57.007999 45 57.007999C 51.627419 57.007999 57 51.635418 57 45.007999C 57 38.380585 51.627419 33.008003 45 33.008003C 38.372581 33.008003 33 38.380585 33 45.007999ZM 50.348 41.517998L 44.537998 49.265999C 44.276604 49.613647 43.877338 49.83091 43.44347 49.861599C 43.009598 49.892288 42.583725 49.733391 42.275997 49.425999L 39.276001 46.425999"></path></g></g></g><g id="g-root-ic_code_1qclo1u1bjb85p-fill" data-item-order="0" transform="translate(196.816650390625, 344)"></g><g id="g-root-ic_code_1qclo1u1bjb85p-stroke" data-item-order="0" transform="translate(196.816650390625, 344)"><g id="ic_code_1qclo1u1bjb85p-stroke" fill="none" stroke-linecap="round" stroke-linejoin="round" stroke-miterlimit="4" stroke="#000000" stroke-width="1" stroke-opacity="1"><g><path d="M 28.300039 18.17502L 28.300039 13.57502C 28.300039 12.37502 29.10004 11.575012 30.299999 11.575012L 49.5 11.575012C 49.900002 11.575012 50.5 11.775012 50.700001 11.975012L 55.5 15.975019C 55.900002 16.375019 56.299999 16.975019 56.299999 17.57502L 56.299999 42.575001C 56.299999 43.775002 55.5 44.575001 54.299999 44.575001L 39.299999 44.575001M 10 10M 36.299999 19.974979L 33.299999 22.974979L 36.299999 25.974979M 10 10M 48.299999 19.974979L 51.299999 22.974979L 48.299999 25.974979M 10 10M 40.299999 26.97504L 44.299999 17.97504M 37.099998 56.424999C 35.299999 51.224998 30.299999 47.424999 24.49996 47.424999C 18.699959 47.424999 13.49996 51.224998 11.699952 56.424999M 24.299999 29.42498L 24.299999 23.42498M 13.2998 35.224998L 35.299801 35.224998M 16.0998 37.424999C 16.299801 41.825001 19.899799 45.424999 24.299801 45.424999C 28.899799 45.424999 32.499802 41.825001 32.499802 37.224998L 32.499802 33.625C 32.499802 29.024981 28.899799 25.42498 24.299801 25.42498C 19.899799 25.42498 16.299801 29.024981 16.0998 33.424999L 16.0998 37.424999Z"></path></g></g></g><g id="g-root-ic_stac_18gybya1bj9ts1-fill" data-item-order="0" transform="translate(676.816650390625, 344)"></g><g id="g-root-ic_stac_18gybya1bj9ts1-stroke" data-item-order="0" transform="translate(676.816650390625, 344)"><g id="ic_stac_18gybya1bj9ts1-stroke" fill="none" stroke-linecap="round" stroke-linejoin="round" stroke-miterlimit="4" stroke="#000000" stroke-width="1" stroke-opacity="1"><g><path d="M 10 10M 34.799999 56.169399L 51.799999 43.969398C 52.1604 43.678398 52.4786 43.395802 52.6786 42.9958C 52.878601 42.595798 53 42.169399 53 41.769402L 53 20.569321C 53 20.169319 52.799999 19.76932 52.400002 19.569321C 52 19.36932 51.599998 19.36932 51.200001 19.569321L 34 31.9694C 33.6618 32.198997 33.305199 32.52 33.105202 32.919998C 32.905197 33.32 32.799999 33.769402 32.799999 34.169399L 32.799999 55.3694C 32.799999 55.769402 33 56.169399 33.400002 56.3694C 34 56.569401 34.400002 56.569401 34.799999 56.169399ZM 33.200001 11.499314L 16 24.29932C 15.8 24.499321 15.4 24.899319 15.2 25.29932C 15 25.69932 15 26.69932 15 26.69932L 15 48.0994M 10 10M 42.200001 15.133619L 25 28.133619C 24.799999 28.33362 24.4 28.73362 24.200001 29.133619C 24 29.533621 24 30.333599 24 30.333599L 24 51.933601"></path></g></g></g><g id="g-root-ic_visu_18ly4n61bj9t70-fill" data-item-order="0" transform="translate(436.816650390625, 404)"></g><g id="g-root-ic_visu_18ly4n61bj9t70-stroke" data-item-order="0" transform="translate(436.816650390625, 404)"><g id="ic_visu_18ly4n61bj9t70-stroke" fill="none" stroke-linecap="round" stroke-linejoin="round" stroke-miterlimit="4" stroke="#000000" stroke-width="1" stroke-opacity="1"><g><path d="M 54.900002 35.046799L 54.900002 51.900002C 54.900002 54.099998 53.099998 55.900002 50.900002 55.900002L 16.900021 55.900002C 14.70002 55.900002 12.90002 54.099998 12.90002 51.900002M 12.90002 32.099998L 12.90002 16.1001C 12.90002 13.9001 14.70002 12.1001 16.900021 12.1001L 50.900002 12.1001C 53.099998 12.1001 54.900002 13.9001 54.900002 16.1001M 10 10M 35.900002 41.300201L 49.972801 28.400141M 30.5 26.1001L 18.11426 38.679398M 32.900002 26.8999C 35.1092 26.8999 36.900002 25.109039 36.900002 22.8999C 36.900002 20.69076 35.1092 18.8999 32.900002 18.8999C 30.6908 18.8999 28.900021 20.69076 28.900021 22.8999C 28.900021 25.109039 30.6908 26.8999 32.900002 26.8999ZM 52.5 29.299801C 54.709202 29.299801 56.5 27.50894 56.5 25.299801C 56.5 23.09066 54.709202 21.299801 52.5 21.299801C 50.290798 21.299801 48.5 23.09066 48.5 25.299801C 48.5 27.50894 50.290798 29.299801 52.5 29.299801ZM 15.5 45.700199C 17.709141 45.700199 19.5 43.909401 19.5 41.700199C 19.5 39.490997 17.709141 37.700199 15.5 37.700199C 13.29086 37.700199 11.5 39.490997 11.5 41.700199C 11.5 43.909401 13.29086 45.700199 15.5 45.700199ZM 32.900002 48.099998C 35.1092 48.099998 36.900002 46.3092 36.900002 44.099998C 36.900002 41.890999 35.1092 40.099998 32.900002 40.099998C 30.6908 40.099998 28.900021 41.890999 28.900021 44.099998C 28.900021 46.3092 30.6908 48.099998 32.900002 48.099998ZM 32.900002 26.8999L 32.900002 40.099998"></path></g></g></g><g id="g-root-tx_develope_zn6qyq1bjclxf-fill" data-item-order="0" transform="translate(125.875, 452)"><g id="tx_develope_zn6qyq1bjclxf-fill-merged" stroke="none" fill="#000000" fill-opacity="1"><g><text style="font: 15px &quot;Roboto&quot;, sans-serif; white-space: pre;" transform="translate(104.941650390625, 28)" font-size="15px" font-family="'Roboto', sans-serif"><tspan x="-92.94" y="0.5" dominant-baseline="ideographic">Claude Decides Doc Impact </tspan><tspan x="-48.49" y="18.5" dominant-baseline="ideographic">Against Policy</tspan></text></g></g></g><g id="g-root-tx_develope_zn6qyq1bjclxf-stroke" data-item-order="0" transform="translate(125.875, 452)"></g><g id="g-root-tx_gitbookp_deua6a1bjcm4q-fill" data-item-order="0" transform="translate(636.0916748046875, 452)"><g id="tx_gitbookp_deua6a1bjcm4q-fill-merged" stroke="none" fill="#000000" fill-opacity="1"><g><text style="font: 15px &quot;Roboto&quot;, sans-serif; white-space: pre;" transform="translate(74.7249755859375, 28)" font-size="15px" font-family="'Roboto', sans-serif"><tspan x="-62.72" y="0.5" dominant-baseline="ideographic">GitBook Publishes </tspan><tspan x="-53.37" y="18.5" dominant-baseline="ideographic">Customer Docs</tspan></text></g></g></g><g id="g-root-tx_gitbookp_deua6a1bjcm4q-stroke" data-item-order="0" transform="translate(636.0916748046875, 452)"></g><g id="g-root-tx_prslinke_1ltnshu1bjclxr-fill" data-item-order="0" transform="translate(372.04168701171875, 512)"><g id="tx_prslinke_1ltnshu1bjclxr-fill-merged" stroke="none" fill="#000000" fill-opacity="1"><g><text style="font: 15px &quot;Roboto&quot;, sans-serif; white-space: pre;" transform="translate(98.7750244140625, 19)" font-size="15px" font-family="'Roboto', sans-serif"><tspan x="-86.78" y="9.5" dominant-baseline="ideographic">PRs Linked by Linear Task</tspan></text></g></g></g><g id="g-root-tx_prslinke_1ltnshu1bjclxr-stroke" data-item-order="0" transform="translate(372.04168701171875, 512)"></g></g></g></svg>